<ttFont>
<head>
    <!-- Most of this table will be recalculated by the compiler -->
    <tableVersion value="1.0"/>
    <fontRevision value="2.004"/>
    <checkSumAdjustment value="0x3075b70a"/>
    <magicNumber value="0x5f0f3cf5"/>
    <flags value="00000000 00000011"/>
    <unitsPerEm value="1000"/>
    <created value="Thu Oct  8 10:02:36 2009"/>
    <modified value="Thu Oct  8 10:02:36 2009"/>
    <xMin value="-477"/>
    <yMin value="-316"/>
    <xMax value="786"/>
    <yMax value="1016"/>
    <macStyle value="00000000 00000000"/>
    <lowestRecPPEM value="3"/>
    <fontDirectionHint value="2"/>
    <indexToLocFormat value="0"/>
    <glyphDataFormat value="0"/>
  </head>
          <CharString index="0">
            502 30 rmoveto
            2 13 -3 10 -11 5 rrcurveto
            3 -6 -22 0 -15 hhcurveto
            -34 523 rlineto
            38 -2 -14 1 -31 hhcurveto
            -29 -16 0 -38 -15 hvcurveto
            -209 -524 rlineto
            -14 -23 0 -2 -6 hvcurveto
            -12 -6 -8 -10 -2 -13 rrcurveto
            -30 -5 26 0 17 hhcurveto
            102 hlineto
            18 24 -79 callsubr
            31 5 -20 0 -36 hhcurveto
            41 104 rlineto
            162 hlineto
            5 -104 rlineto
            -7 callsubr
            24 0 18 hhcurveto
            102 hlineto
            33 callgsubr
            -136 196 rmoveto
            -132 hlineto
            118 314 rlineto
            return
          </CharString>
          <CharString index="1">
            hstemhm
            -107 callgsubr
            return
          </CharString>
          <CharString index="2">
            519 305 rmoveto
            289 48 -16 28 -185 hhcurveto
            -185 -26 -27 -290 -48 hvcurveto
            -289 -48 16 -27 185 164 callgsubr
            -68 9 rmoveto
            -10 -62 -12 -71 -20 -54 rrcurveto
            -56 -20 -30 -21 -89 hhcurveto
            -88 -21 21 50 -4 hvcurveto
            -3 51 14 87 9 55 11 62 11 68 19 46 rrcurveto
            59 23 33 12 82 hhcurveto
            75 33 -9 -55 6 hvcurveto
            4 -47 -12 -75 -11 -61 rrcurveto
            return
          </CharString>
          <CharString index="3">
            hlineto
            -16 -90 callsubr
            26 0 return
          </CharString>
          <CharString index="4">
            hintmask 01110000
            482 109 rmoveto
            28 5 -29 0 -6 hhcurveto
            -18 -9 -3 -19 -10 hvcurveto
            -51 -30 -56 -9 -28 hhcurveto
            -75 -66 50 86 -2 hvcurveto
            298 hlineto
            21 19 0 37 6 hvcurveto
            114 19 -48 98 -130 hhcurveto
            -119 -112 -100 -123 -21 hvcurveto
            hintmask 10110000
            -122 -20 84 -101 129 hhcurveto
            132 62 90 25 4 hvcurveto
            -47 142 rmoveto
            -266 hlineto
            73 26 68 55 70 hhcurveto
            52 58 -25 -103 -8 hvcurveto
            return
          </CharString>
          <CharString index="5">
            509 41 rmoveto
            15 89 98 callgsubr
            -4 -21 -20 144 callgsubr
            -267 hlineto
            38 225 rlineto
            131 hlineto
            -41 -7 -3 -16 35 hhcurveto
            34 4 22 19 3 hvcurveto
            16 93 57 callgsubr
            -2 -16 -41 -7 hvcurveto
            -131 hlineto
            34 203 rlineto
            245 hlineto
            return
          </CharString>
          <CharString index="6">
            -9 -53 rlineto
            -19 -3 -4 -22 34 hhcurveto
            35 4 21 20 3 112 callsubr
            -373 -84 callsubr
            395 -29 callsubr
            return
          </CharString>
          <CharString index="7">
            rmoveto
            20 3 -12 -77 callsubr
            192 callgsubr
            194 callgsubr
            143 59 26 11 6 13 2 11 rlinecurve
            endchar
          </CharString>
          <CharString index="8">
            rmoveto
            46 8 -25 29 -33 hhcurveto
            -30 -21 -22 -24 -4 hvcurveto
            -29 -5 19 -19 25 hhcurveto
            4 6 1 2 5 hvcurveto
            -19 -47 -38 -12 -9 -3 -7 -2 -15 -4 -3 -15 rrcurveto
            -11 -1 9 -13 12 hhcurveto
            24 84 41 82 14 hvcurveto
            endchar
          </CharString>
          <CharString index="9">
            -48 callgsubr
            -31 -5 return
          </CharString>
          <CharString index="10">
            503 216 rmoveto
            125 21 -77 99 -112 hhcurveto
            -112 -109 -99 -125 -21 hvcurveto
            -127 -21 79 -95 110 hhcurveto
            110 111 96 126 21 hvcurveto
            -68 7 rmoveto
            -93 -15 -75 -75 -74 hhcurveto
            -74 -49 75 93 15 hvcurveto
            91 15 76 65 71 hhcurveto
            72 53 -65 -91 -15 hvcurveto
            return
          </CharString>
          <CharString index="11">
            rmoveto
            28 5 -19 22 -28 hhcurveto
            104 callsubr
            return
          </CharString>
          <CharString index="12">
            hhcurveto
            -73 -104 callsubr
            14 hhcurveto
            45 hlineto
            return
          </CharString>
          <CharString index="13">
            -90 -15 -83 -12 -32 hhcurveto
            -79 6 33 32 5 hvcurveto
            45 270 -97 callgsubr
            -43 -256 rlineto
            -96 -16 65 -24 73 hhcurveto
            41 43 10 28 41 hvcurveto
            return
          </CharString>
          <CharString index="14">
            201 callsubr
            -31 -5 return
          </CharString>
          <CharString index="15">
            -53 callsubr
            -72 callsubr
            return
          </CharString>
          <CharString index="16">
            rmoveto
            -88 callgsubr
            -5 17 172 callgsubr
            23 20 25 5 hvcurveto
            165 -20 callsubr
            -5 17 172 callgsubr
            23 20 25 5 hvcurveto
            return
          </CharString>
          <CharString index="17">
            -25 -101 callgsubr
            return
          </CharString>
          <CharString index="18">
            -15 -85 callgsubr
            return
          </CharString>
          <CharString index="19">
            0 -31 -5 hvcurveto
            86 callsubr
            return
          </CharString>
          <CharString index="20">
            10 63 2 8 -5 23 -8 29 -19 21 -12 11 72 37 29 61 7 41 rrcurveto
            86 14 -62 82 -118 hhcurveto
            -177 -68 callgsubr
            36 214 rlineto
            78 hlineto
            19 30 0 -28 27 hvcurveto
            19 -21 -4 -22 -7 -42 rrcurveto
            return
          </CharString>
          <CharString index="21">
            480 125 rmoveto
            17 104 -125 21 -31 5 -66 12 rcurveline
            -29 4 -66 12 7 39 rrcurveto
            26 4 37 31 95 hhcurveto
            83 9 -30 -26 -1 hvcurveto
            -17 -2 -1 -17 31 107 callsubr
            69 rlineto
            16 2 169 callsubr
            -6 -14 -7 -3 hvcurveto
            21 -41 -44 0 -19 hhcurveto
            -167 -36 -82 -36 -6 hvcurveto
            -16 -92 103 -17 89 -14 48 -8 78 -13 -9 -53 rrcurveto
            -37 -6 -43 -33 -91 hhcurveto
            -47 -54 11 78 -12 hvcurveto
            18 -2 -2 11 -26 hhcurveto
            -35 -4 -21 -20 -3 hvcurveto
            -16 -97 rlineto
            -16 -3 -4 -25 30 hhcurveto
            9 16 1 37 18 hvcurveto
            return
          </CharString>
          <CharString index="22">
            -5 vhcurveto
            -143 -60 -15 -6 -12 -5 -3 -18 rlinecurve
            return
          </CharString>
          <CharString index="23">
            -89 callgsubr
            -82 -489 -44 callsubr
            return
          </CharString>
          <CharString index="24">
            94 callgsubr
            55 329 -97 callgsubr
            -36 -213 rlineto
            return
          </CharString>
          <CharString index="25">
            42 callgsubr
            hintmask 1100100110011001
            -75 callgsubr
            hintmask 0000000001000000
            1 4 4 14 6 10 rrcurveto
            hintmask 0010000000100010
            -2 2 34 -23 49 hhcurveto
            92 85 72 89 15 hvcurveto
            hintmask 0011000010010100
            5 30 -4 29 -12 28 23 12 24 4 14 1 rrcurveto
            -27 1 22 -7 10 hhcurveto
            17 25 12 29 114 callsubr
            -57 -9 -52 -44 -52 hhcurveto
            -54 -34 47 53 9 hvcurveto
            hintmask 1100100101000100
            57 10 51 44 52 hhcurveto
            54 34 -47 -53 -9 hvcurveto
            48 -359 rmoveto
            -44 -7 -82 -43 -100 hhcurveto
            -100 -68 43 44 7 hvcurveto
            3 18 15 32 35 20 rrcurveto
            16 28 9 0 73 hhcurveto
            hintmask 0000000000000001
            89 113 0 -86 -15 hvcurveto
            return
          </CharString>
          <CharString index="26">
            500 166 rmoveto
            10 64 -29 42 -9 13 -35 40 -26 7 -75 18 -78 18 rcurveline
            -40 12 -32 35 8 47 rrcurveto
            51 9 57 48 71 hhcurveto
            118 -1 -94 -31 1 hvcurveto
            -22 -1 10 -6 20 hhcurveto
            35 4 21 20 3 hvcurveto
            22 132 rlineto
            16 3 169 callsubr
            -8 -17 -30 -13 hvcurveto
            35 -35 -52 12 -45 hhcurveto
            -111 -88 -79 -85 -15 hvcurveto
            -11 -67 35 -66 79 -24 111 -27 rcurveline
            27 -6 79 -20 -14 -87 rrcurveto
            -52 -9 -53 -59 -79 hhcurveto
            -28 -48 4 27 -35 hvcurveto
            return
          </CharString>
          <CharString index="27">
            hstemhm
            88 197 -192 197 -162 197 -187 82 -61 82 2 82 0 135 callsubr
            9 callsubr
            hintmask 0000001000000000
            -19 -37 -9 -18 -12 -31 rrcurveto
            -1 hlineto
            -2 19 -5 21 -4 19 rrcurveto
            hintmask 0001000001000000
            -53 240 rlineto
            25 hlineto
            hintmask 0001000100000000
            -92 callsubr
            hintmask 0001000001000000
            -117 hlineto
            hintmask 0000000100000000
            92 callsubr
            hintmask 1001000000110000
            -43 callsubr
            hintmask 1011001000001000
            -27 -20 -18 -26 -4 hvcurveto
            -42 -7 27 -40 49 hhcurveto
            100 67 132 11 6 hvcurveto
            231 455 rlineto
            30 hlineto
            hintmask 0000000000000100
            -53 callsubr
            return
          </CharString>
          <CharString index="28">
            0 -49 callgsubr
            return
          </CharString>
          <CharString index="29">
            rmoveto
            -63 callgsubr
            195 -59 callsubr
            return
          </CharString>
          <CharString index="30">
            15 -20 hhcurveto
            0 -8 0 -12 -85 callsubr
            return
          </CharString>
          <CharString index="31">
            575 401 rmoveto
            30 -10 callsubr
            -18 195 callsubr
            -18 -24 -98 callsubr
            23 0 19 hhcurveto
            49 hlineto
            -100 -298 rlineto
            -1 hlineto
            26 -5 46 -5 41 vhcurveto
            63 -8 -1 11 -35 hhcurveto
            -10 -19 0 -22 -14 hvcurveto
            -5 -7 -63 -138 -7 -20 rrcurveto
            -1 hlineto
            -2 298 rlineto
            49 hlineto
            18 24 -79 callsubr
            31 5 -23 0 -19 195 callsubr
            -18 -24 -98 callsubr
            21 0 30 hhcurveto
            4 -336 rlineto
            -23 0 -15 40 40 5 9 61 28 vhcurveto
            40 88 3 14 7 22 rrcurveto
            1 hlineto
            -4 -52 18 -117 2 -8 rrcurveto
            -17 9 18 0 12 hhcurveto
            37 6 16 22 8 hvcurveto
            116 336 rlineto
            30 139 callsubr
            return
          </CharString>
          <CharString index="32">
            rmoveto
            3 18 -10 5 -13 6 -123 60 rcurveline
            -11 5 -8 0 0 vvcurveto
            -20 -17 -15 -20 -3 hvcurveto
            -2 -11 2 -13 22 -11 123 -59 rcurveline
            -3 5 5 -2 7 hhcurveto
            26 12 32 8 2 hvcurveto
            endchar
          </CharString>
          <CharString index="33">
            86 callsubr
            25 hlineto
            -100 -333 -18 -61 -16 -52 -5 -28 rlinecurve
            -1 hlineto
            4 64 -14 198 6 vvcurveto
            23 -5 -23 0 -9 hhcurveto
            -10 -20 0 -22 -13 hvcurveto
            -5 -7 -80 -200 -15 -62 rrcurveto
            -1 hlineto
            1 5 2 19 2 54 14 396 rcurveline
            4 callgsubr
            -79 hlineto
            -15 -26 -101 callgsubr
            28 0 9 hhcurveto
            1 hlineto
            -15 -523 rlineto
            -35 -1 24 0 12 hhcurveto
            9 20 0 20 13 hvcurveto
            4 7 93 234 11 40 rrcurveto
            1 hlineto
            -4 -45 16 -229 1 -2 rrcurveto
            -25 3 26 0 7 hhcurveto
            12 24 0 35 11 hvcurveto
            159 523 rlineto
            return
          </CharString>
          <CharString index="34">
            -12 -73 rlineto
            166 callsubr
            35 4 21 20 3 hvcurveto
            9 53 rlineto
            133 132 callgsubr
            -52 -100 callgsubr
            173 -91 callgsubr
            -52 88 callgsubr
            132 hlineto
            -9 -53 rlineto
            166 callsubr
            35 4 21 20 3 hvcurveto
            return
          </CharString>
          <CharString index="35">
            -48 callsubr
            -16 hhcurveto
            return
          </CharString>
          <CharString index="36">
            rlineto
            -44 -104 callsubr
            14 hhcurveto
            159 10 callgsubr
            -1 callgsubr
            -44 hlineto
            return
          </CharString>
          <CharString index="37">
            rmoveto
            38 13 -9 54 -38 -11 -114 -33 rcurveline
            -104 33 -34 11 -27 -54 33 -13 rlinecurve
            111 -43 5 -2 7 0 7 2 rlinecurve
            endchar
          </CharString>
          <CharString index="38">
            -4 callsubr
            -38 -227 rlineto
            -39 hlineto
            -16 125 callgsubr
            153 10 callgsubr
            return
          </CharString>
          <CharString index="39">
            rmoveto
            -107 76 -8 6 -12 0 -10 -6 rlinecurve
            -130 -75 -37 -21 23 -49 36 20 rlinecurve
            114 62 92 -62 30 -20 39 48 -30 21 rlinecurve
            return
          </CharString>
          <CharString index="40">
            rmoveto
            -111 43 -6 2 -7 0 -6 -96 callgsubr
            101 194 rmoveto
            4 24 -8 24 -18 14 rrcurveto
            14 -19 -23 4 -26 hhcurveto
            -2 hlineto
            -47 -49 102 callsubr
            -1 -8 3 -7 4 -5 rrcurveto
            -1 vlineto
            -5 5 6 103 callgsubr
            9 3 5 6 hvcurveto
            1 1 6 6 4 7 1 7 rlinecurve
            1 6 rlineto
            10 5 13 8 18 hhcurveto
            19 14 -3 -6 8 hvcurveto
            4 91 callgsubr
            32 16 rlinecurve
            22 11 18 52 callgsubr
          </CharString>
          <CharString index="41">
            5 -26 0 -15 hhcurveto
            return
          </CharString>
          <CharString index="42">
            14 171 callsubr
            31 -66 callsubr
            -162 -93 callgsubr
            37 132 callgsubr
            -37 -93 callgsubr
            376 -29 callsubr
            return
          </CharString>
          <CharString index="43">
            -20 125 callsubr
            hintmask 0100100000000000
            1 callsubr
            hintmask 0100000010000000
            61 callsubr
            hintmask 0000000001000000
            -58 -346 rlineto
            hintmask 1000001010000000
            12 callgsubr
            hintmask 0100000100000000
            58 346 rlineto
            42 hlineto
            16 14 12 16 2 hvcurveto
            hintmask 0010000000000000
            1 5 rlineto
            hintmask 0100000000000000
            128 callgsubr
            -154 105 callsubr
            hintmask 0100000100000000
            61 callsubr
            hintmask 1010001001000000
            -17 callsubr
            return
          </CharString>
          <CharString index="44">
            -85 callsubr
            -8 return
          </CharString>
          <CharString index="45">
            139 callgsubr
            170 callgsubr
            -44 69 -59 69 95 69 13 69 hintmask 1110001110000000
            -51 callsubr
            hintmask 0010100000000000
            209 callsubr
            hintmask 0010010000000000
            28 callgsubr
            hintmask 0010001000000000
            -72 callsubr
            -119 -93 callgsubr
            hintmask 1011100000000000
            -77 callgsubr
            hintmask 1100010100000000
            38 226 rlineto
            212 hlineto
            -38 -226 -51 callgsubr
            119 -53 callgsubr
            return
          </CharString>
          <CharString index="46">
            -31 -5 hvcurveto
            return
          </CharString>
          <CharString index="47">
            rlineto
            -54 callgsubr
            return
          </CharString>
          <CharString index="48">
            hmoveto
            -63 callgsubr
            return
          </CharString>
          <CharString index="49">
            -20 -80 callgsubr
            return
          </CharString>
          <CharString index="50">
            -91 callgsubr
            -25 hlineto
            return
          </CharString>
          <CharString index="51">
            -91 callsubr
            endchar
          </CharString>
          <CharString index="52">
            512 30 rmoveto
            31 5 -21 0 -32 hhcurveto
            64 callsubr
            32 21 96 callsubr
            -56 hlineto
            -41 -6 -14 -26 -14 hvcurveto
            -100 -202 -18 -36 -14 -29 -11 -29 rlinecurve
            -1 hlineto
            -2 47 -45 259 -1 6 rrcurveto
            24 -6 -25 0 -14 hhcurveto
            -56 -93 callsubr
            21 0 32 hhcurveto
            -82 -489 26 callgsubr
            31 5 -21 0 -32 hhcurveto
            80 477 rlineto
            1 hlineto
            3 -46 32 -192 2 -13 4 -23 7 -38 4 -7 rrcurveto
            -8 4 11 -7 12 hhcurveto
            13 15 8 14 11 hvcurveto
            4 6 127 253 21 53 rrcurveto
            1 hlineto
            -80 -477 26 callgsubr
            return
          </CharString>
          <CharString index="53">
            484 109 rmoveto
            28 5 -29 0 -6 hhcurveto
            -16 -10 -2 -20 -11 hvcurveto
            -13 -8 -27 -47 -74 hhcurveto
            -85 -60 70 91 15 hvcurveto
            48 8 47 115 135 hhcurveto
            21 39 0 -9 -1 hvcurveto
            -35 -5 17 -14 24 hhcurveto
            24 23 17 29 5 hvcurveto
            73 12 -104 0 -45 hhcurveto
            -172 -82 -136 -88 -15 hvcurveto
            return
          </CharString>
          <CharString index="54">
            15 -40 callgsubr
            return
          </CharString>
          <CharString index="55">
            hlineto
            -42 callsubr
            return
          </CharString>
          <CharString index="56">
            -22 callgsubr
            -119 14 callgsubr
            -34 -202 rlineto
            -212 hlineto
            return
          </CharString>
          <CharString index="57">
            -15 -19 -3 hvcurveto
            50 hmoveto
            37 6 -35 35 -56 hhcurveto
            -56 -47 -35 -37 -6 hvcurveto
            -37 -6 35 -35 56 hhcurveto
            56 47 35 37 6 hvcurveto
            return
          </CharString>
          <CharString index="58">
            13 15 1 6 1 10 rrcurveto
            34 6 -22 0 -19 hhcurveto
            -334 hlineto
            -33 -9 -8 -33 -6 hvcurveto
            -12 -73 rlineto
            166 callsubr
            35 4 21 20 3 hvcurveto
            9 53 rlineto
            258 hlineto
            -410 -485 -13 -15 -1 -6 -1 -10 rlinecurve
            -34 -6 22 0 19 hhcurveto
            352 hlineto
            return
          </CharString>
          <CharString index="59">
            31 -10 callsubr
            return
          </CharString>
          <CharString index="60">
            -30 -5 hvcurveto
            return
          </CharString>
          <CharString index="61">
            -13 11 101 callsubr
            30 151 callgsubr
            23 15 32 22 3 18 rrcurveto
            endchar
          </CharString>
          <CharString index="62">
            517 28 rmoveto
            1 5 rlineto
            16 2 -11 12 -16 hhcurveto
            -56 hlineto
            51 304 48 13 42 36 8 50 rlinecurve
            29 5 -6 37 -38 hhcurveto
            -30 -24 -24 -26 -4 hvcurveto
            -3 -18 7 -17 15 -9 -6 -4 -8 -4 -8 -3 rrcurveto
            hintmask 0010000000000000
            3 -4 -5 2 -6 hhcurveto
            -98 176 callgsubr
            -16 -14 -12 -16 -3 hvcurveto
            -1 -5 rlineto
            return
          </CharString>
          <CharString index="63">
            rlineto
            -30 -104 callsubr
            15 hhcurveto
            return
          </CharString>
          <CharString index="64">
            31 hlineto
            82 -357 rlineto
            3 -10 -1 -3 0 vvcurveto
            0 -39 -84 -17 -25 vhcurveto
            -38 -55 -37 -2 -15 -1 rrcurveto
            0 7 9 2 13 vhcurveto
            hintmask 0100000000000000
            25 4 -15 18 -25 hhcurveto
            return
          </CharString>
          <CharString index="65">
            15 -43 callgsubr
            return
          </CharString>
          <CharString index="66">
            193 callgsubr
            hintmask 01000100
            -67 callgsubr
            hintmask 10001000
            -31 -183 -51 callgsubr
            119 -57 callsubr
            hintmask 01000100
            31 183 198 306 rlineto
            21 -53 callgsubr
            return
          </CharString>
          <CharString index="67">
            -51 callgsubr
            106 -57 callsubr
            return
          </CharString>
          <CharString index="68">
            2 -32 26 hhcurveto
            7 5 2 3 return
          </CharString>
          <CharString index="69">
            rmoveto
            -111 43 -5 2 -7 0 -7 -96 callgsubr
            5 163 rmoveto
            20 4 -13 -77 callsubr
            -8 -1 133 callsubr
            142 59 26 11 6 13 2 11 rlinecurve
            endchar
          </CharString>
          <CharString index="70">
            183 callsubr
            163 210 callgsubr
            hintmask 00101000
            2 callgsubr
            hintmask 11010000
            -69 callgsubr
            hintmask 00101000
            5 callsubr
            return
          </CharString>
          <CharString index="71">
            -28 -35 -29 -16 -14 hhcurveto
            -10 -6 9 12 -11 hvcurveto
            return
          </CharString>
          <CharString index="72">
            rmoveto
            -111 43 -5 2 -7 0 -7 -96 callgsubr
            -5 104 rmoveto
            -8 -1 -12 -32 -26 hhcurveto
            -7 -5 2 3 -5 hvcurveto
            -124 59 -22 11 -2 13 2 11 rlinecurve
            20 4 17 65 callgsubr
          </CharString>
          <CharString index="73">
            0 15 hhcurveto
            return
          </CharString>
          <CharString index="74">
            495 115 callgsubr
            20 3 4 21 177 callsubr
            -20 -21 144 callgsubr
            -241 88 callgsubr
            56 hlineto
            return
          </CharString>
          <CharString index="75">
            rmoveto
            -72 callsubr
            return
          </CharString>
          <CharString index="76">
            575 126 callgsubr
            -181 -102 callgsubr
            82 hlineto
            -69 -410 rlineto
            -85 -14 -83 -5 -19 hhcurveto
            -8 -48 0 26 -24 hvcurveto
            5 5 4 5 3 16 rrcurveto
            24 4 -16 20 -25 hhcurveto
            -23 -24 -15 -32 -5 hvcurveto
            -63 -11 58 -47 100 hhcurveto
            89 90 54 91 15 hvcurveto
            return
          </CharString>
          <CharString index="77">
            -9 -12 11 hvcurveto
            hintmask 00100000
            -60 callgsubr
          </CharString>
          <CharString index="78">
            hlineto
            33 9 9 32 5 hvcurveto
            return
          </CharString>
          <CharString index="79">
            555 -91 callsubr
            return
          </CharString>
          <CharString index="80">
            rlineto
            -129 -104 callsubr
            14 hhcurveto
            329 -53 callgsubr
            return
          </CharString>
          <CharString index="81">
            -32 -4 21 0 18 hhcurveto
            73 hlineto
            16 25 -14 callsubr
            return
          </CharString>
          <CharString index="82">
            -10 15 -22 1 -17 -13 -89 -70 rcurveline
            -16 -13 -6 -22 11 -14 10 -15 22 -1 17 13 89 70 rcurveline
            16 13 6 22 -11 14 rrcurveto
            return
          </CharString>
          <CharString index="83">
            28 35 -16 callgsubr
            return
          </CharString>
          <CharString index="84">
            583 9 callgsubr
            hintmask 10000000
            -28 -35 -29 -16 -14 hhcurveto
            -10 -6 36 callsubr
            -3 13 -16 16 hhcurveto
            11 6 5 6 8 hvcurveto
            hintmask 01000000
            28 35 29 callgsubr
          </CharString>
          <CharString index="85">
            28 25 68 callsubr
            return
          </CharString>
          <CharString index="86">
            9 callgsubr
            hintmask 00001000
            -36 callsubr
            hintmask 00000100
            -59 callgsubr
            hintmask 00001000
            11 callgsubr
            hintmask 00000100
            -24 callsubr
            hintmask 00001000
            -46 callsubr
          </CharString>
          <CharString index="87">
            hmoveto
            -88 callgsubr
            return
          </CharString>
          <CharString index="88">
            -58 callsubr
            hintmask 00110000
            return
          </CharString>
          <CharString index="89">
            hstemhm
            -46 callgsubr
            hintmask 11000000
            -69 -11 52 -65 102 hhcurveto
            37 63 7 31 52 hvcurveto
            7 -11 10 -8 13 -4 -44 -25 -44 -45 89 callgsubr
            hintmask 00100000
            7 43 45 36 58 31 rrcurveto
            90 callgsubr
            return
          </CharString>
          <CharString index="90">
            -58 -346 -9 -56 9 -53 28 -42 rlinecurve
            -39 27 45 -25 51 hhcurveto
            52 52 25 39 41 hvcurveto
            43 42 27 53 9 56 57 342 rcurveline
            45 13 40 38 7 47 rrcurveto
            return
          </CharString>
          <CharString index="91">
            72 callgsubr
            67 56 -24 56 26 56 -24 56 74 157 hintmask 11001000
            -23 callgsubr
            hintmask 01100100
            66 callsubr
            hintmask 11011000
            153 callgsubr
            168 callgsubr
            hintmask 10100100
            167 callgsubr
            100 42 callsubr
            hintmask 10010010
            25 callsubr
            endchar
          </CharString>
          <CharString index="92">
            632 644 rmoveto
            5 30 -6 36 -37 1 -31 -1 -24 -24 -4 -25 -3 -19 7 -17 16 -9 -6 -4 -5 -3 -7 -3 rrcurveto
            3 -3 -6 2 -5 hhcurveto
            -84 hlineto
            return
          </CharString>
          <CharString index="93">
            0 31 5 hvcurveto
            return
          </CharString>
          <CharString index="94">
            -16 -24 -86 callgsubr
            return
          </CharString>
          <CharString index="95">
            37 callgsubr
            3 -7 4 -5 rrcurveto
            -1 vlineto
            -5 5 6 103 callgsubr
            9 3 5 6 hvcurveto
            1 1 6 6 4 7 1 7 rlinecurve
            1 6 rlineto
            10 5 13 8 18 hhcurveto
            19 14 -3 -6 8 hvcurveto
            4 91 callgsubr
            32 16 rlinecurve
            21 11 19 52 callgsubr
          </CharString>
          <CharString index="96">
            108 callsubr
            hintmask 11001100
            -99 callgsubr
            return
          </CharString>
          <CharString index="97">
            5 -24 0 return
          </CharString>
          <CharString index="98">
            94 callgsubr
            85 509 -97 callgsubr
            -27 -158 rlineto
            29 -28 -38 16 -43 hhcurveto
            -109 -112 -95 -127 -21 hvcurveto
            return
          </CharString>
          <CharString index="99">
            470 126 rmoveto
            18 3 4 21 -35 hhcurveto
            -33 -5 -21 -17 -3 hvcurveto
            -62 -11 -59 -10 -23 hhcurveto
            -77 9 52 25 4 hvcurveto
            return
          </CharString>
          <CharString index="100">
            -36 -20 -101 callgsubr
            return
          </CharString>
          <CharString index="101">
            70 callsubr
            67 56 -24 56 26 56 -24 56 74 157 hintmask 0011001000000000
            -23 callgsubr
            hintmask 0001100100000000
            66 callsubr
            hintmask 0011011000000000
            153 callgsubr
            168 callgsubr
            hintmask 0010100100000000
            167 callgsubr
            100 42 callsubr
            return
          </CharString>
          <CharString index="102">
            535 574 -104 callgsubr
            return
          </CharString>
          <CharString index="103">
            100 16 81 38 51 hhcurveto
            53 9 -28 -60 -10 hvcurveto
            return
          </CharString>
          <CharString index="104">
            61 489 61 return
          </CharString>
          <CharString index="105">
            -200 100 94 57 callsubr
            -33 callgsubr
            hintmask 01000000
            -17 -39 -45 0 -8 hhcurveto
            -62 -35 34 39 6 hvcurveto
            9 49 92 37 145 4 rrcurveto
            return
          </CharString>
          <CharString index="106">
            72 callsubr
            125 61 hstemhm
            194 69 -17 69 -69 87 -77 69 118 87 hintmask 01100010
            530 557 rmoveto
            60 10 -80 0 -16 hhcurveto
            -80 -85 -46 -87 -14 hvcurveto
            -9 -53 rlineto
            -100 hlineto
            -16 -25 -88 callsubr
            hintmask 01001000
            101 hlineto
            hintmask 10010000
            82 callsubr
            -101 -102 callgsubr
            271 -52 callsubr
            31 -66 callsubr
            -101 hlineto
            hintmask 01001000
            52 309 160 callgsubr
            hintmask 01000010
            -122 hlineto
            hintmask 00100101
            8 47 rlineto
            78 13 67 0 30 hhcurveto
            -4 -1 3 -39 35 hhcurveto
            20 25 16 28 5 hvcurveto
            endchar
          </CharString>
          <CharString index="107">
            rmoveto
            19 3 -9 12 -20 hhcurveto
            -24 -6 -17 -12 -4 hvcurveto
            -20 -9 -68 0 -42 hhcurveto
            -43 -67 0 20 -1 hvcurveto
            12 -2 17 -24 -19 -14 -12 -19 -3 vhcurveto
            -82 -13 110 0 66 hhcurveto
            66 110 0 82 13 hvcurveto
            endchar
          </CharString>
          <CharString index="108">
            -15 callsubr
            hintmask 0010000000000000
            -16 -14 -13 -15 -3 hvcurveto
            -1 -5 rlineto
            return
          </CharString>
          <CharString index="109">
            hlineto
            55 329 -60 callsubr
            return
          </CharString>
          <CharString index="110">
            -11 61 249 61 201 61 hstemhm
            73 69 -7 69 236 69 -35 69 hintmask 00101010
            509 174 rmoveto
            13 75 -56 59 -70 21 84 27 54 49 9 57 rrcurveto
            82 14 -72 78 -119 hhcurveto
            -120 -97 -79 -81 -14 hvcurveto
            -9 -57 37 -50 75 -26 rrcurveto
            hintmask 11010100
            -79 -21 -73 -59 -13 -75 rrcurveto
            -97 -16 78 -88 125 hhcurveto
            126 107 88 97 16 hvcurveto
            -35 287 rmoveto
            -57 -10 -69 -44 -73 hhcurveto
            hintmask 10101010
            -73 -54 45 56 9 hvcurveto
            52 9 64 48 79 hhcurveto
            78 49 -48 -52 -9 hvcurveto
            -34 -286 rmoveto
            -69 -11 -76 -56 -83 hhcurveto
            hintmask 01010100
            -83 -56 56 69 11 hvcurveto
            61 10 69 63 91 hhcurveto
            92 46 -63 -61 -10 hvcurveto
            endchar
          </CharString>
          <CharString index="111">
            -123 59 -22 11 -2 13 2 11 rlinecurve
            20 3 18 15 20 hhcurveto
            0 8 0 10 -5 vhcurveto
            return
          </CharString>
          <CharString index="112">
            94 16 75 96 121 hhcurveto
            -24 -3 13 -20 25 hhcurveto
            22 23 16 27 5 hvcurveto
            return
          </CharString>
          <CharString index="113">
            -11 61 110 62 112 62 165 61 hstem
            434 69 vstem
            503 193 rmoveto
            114 19 -73 89 -110 hhcurveto
            -52 -55 -17 -41 -52 hvcurveto
            141 38 108 82 88 hhcurveto
            34 14 -11 -5 4 hvcurveto
            -6 -5 -6 -6 -3 -18 rrcurveto
            -24 -4 15 -20 26 hhcurveto
            25 23 17 -49 callgsubr
            49 8 -27 54 -97 hhcurveto
            -134 -154 -121 -202 -34 hvcurveto
            -237 -40 100 -73 99 hhcurveto
            109 112 84 120 20 hvcurveto
            -69 hmoveto
            -86 -14 -76 -57 -72 hhcurveto
            -65 -30 49 61 -10 hvcurveto
            -6 24 6 24 2 14 rrcurveto
            62 10 69 50 76 hhcurveto
            81 42 -67 -74 -13 hvcurveto
            endchar
          </CharString>
          <CharString index="114">
            rmoveto
            12 71 -37 59 -61 30 62 36 37 57 9 54 rrcurveto
            74 13 -62 67 -115 hhcurveto
            -120 -78 -48 -69 -12 hvcurveto
            -33 -5 22 -14 20 hhcurveto
            21 26 17 28 5 hvcurveto
            2 14 -4 10 -3 3 rrcurveto
            31 37 71 0 9 hhcurveto
            68 44 -36 -45 -8 hvcurveto
            -5 -30 -21 -35 -30 -22 -37 -26 -25 -2 -36 -2 -58 -4 -15 0 -5 -29 rrcurveto
            135 callgsubr
            46 hlineto
            hintmask 10010100
            99 40 -67 -58 -10 hvcurveto
            -61 -10 -67 -63 -91 hhcurveto
            -40 -75 11 47 -18 hvcurveto
            6 5 8 6 3 20 rrcurveto
            24 4 -15 20 -25 hhcurveto
            -23 -25 -15 -32 -5 hvcurveto
            -89 -15 87 -58 123 hhcurveto
            131 return
          </CharString>
          <CharString index="115">
            57 callgsubr
            -3 -21 -20 -3 hvcurveto
            return
          </CharString>
          <CharString index="116">
            hintmask 0001000000010100
            567 400 -32 callsubr
            -117 -100 callgsubr
            28 hlineto
            -108 -213 rlineto
            return
          </CharString>
          <CharString index="117">
            -20 -41 callsubr
            return
          </CharString>
          <CharString index="118">
            0 61 184 61 244 61 hstem
            107 69 13 69 224 69 vstem
            551 428 rmoveto
            93 16 -59 90 -115 hhcurveto
            -224 -84 callsubr
            129 -52 callsubr
            31 -66 callsubr
            -30 hlineto
            31 184 rlineto
            125 hlineto
            116 88 90 93 15 hvcurveto
            -69 hmoveto
            -53 -8 -55 -69 -96 hhcurveto
            -106 hlineto
            41 244 rlineto
            106 hlineto
            96 31 -69 -53 -9 hvcurveto
            endchar
          </CharString>
          <CharString index="119">
            580 -32 callsubr
            return
          </CharString>
          <CharString index="120">
            488 41 rmoveto
            15 92 80 callgsubr
            -21 -20 -4 hvcurveto
            -12 -72 rlineto
            -275 hlineto
            return
          </CharString>
          <CharString index="121">
            -93 callgsubr
            25 hlineto
            return
          </CharString>
          <CharString index="122">
            -200 100 94 35 callgsubr
            hstemhm
            188 100 hintmask 00111000
            482 109 rmoveto
            28 5 -29 0 -6 hhcurveto
            -18 -9 -3 -19 -10 hvcurveto
            -51 -30 -56 -9 -28 hhcurveto
            -75 -66 50 86 -2 hvcurveto
            298 hlineto
            21 19 0 37 6 hvcurveto
            114 19 -48 98 -130 hhcurveto
            -119 -112 -100 -123 -21 hvcurveto
            hintmask 01011000
            -122 -20 84 -101 129 hhcurveto
            132 62 90 25 4 hvcurveto
            -47 142 rmoveto
            -266 hlineto
            73 26 68 55 70 hhcurveto
            52 58 -25 -103 -8 hvcurveto
            return
          </CharString>
          <CharString index="123">
            -289 127 -78 callsubr
            return
          </CharString>
          <CharString index="124">
            451 5 callgsubr
            -108 88 callgsubr
            164 callsubr
            31 -66 callsubr
            -285 -102 callgsubr
            108 132 callgsubr
            -108 -102 callgsubr
            117 hlineto
            -38 -26 -37 -40 -7 -42 -45 callgsubr
            return
          </CharString>
          <CharString index="125">
            150 363 -104 callgsubr
            return
          </CharString>
          <CharString index="126">
            89 15 49 47 41 hhcurveto
            23 11 -17 -65 -11 hvcurveto
            -39 -233 rlineto
            -19 125 callgsubr
            75 -52 callsubr
            return
          </CharString>
          <CharString index="127">
            54 callsubr
            26 15 23 hhcurveto
            23 22 -50 callsubr
            41 191 -103 callgsubr
          </CharString>
          <CharString index="128">
            9 callgsubr
            hintmask 00100000
            -36 callsubr
            hintmask 00010000
            -59 callgsubr
            hintmask 00100000
            11 callgsubr
            hintmask 00010000
            -24 callsubr
            hintmask 00100000
            -46 callsubr
          </CharString>
          <CharString index="129">
            -6 35 callgsubr
            return
          </CharString>
          <CharString index="130">
            30 5 -25 0 -15 hhcurveto
            return
          </CharString>
          <CharString index="131">
            rmoveto
            -111 43 -6 2 -7 0 -6 -96 callgsubr
            76 172 84 callgsubr
            return
          </CharString>
          <CharString index="132">
            -22 hlineto
            22 133 113 117 98 -250 rlineto
            -14 39 callgsubr
            75 -52 callsubr
            return
          </CharString>
          <CharString index="133">
            -5 -35 6 -33 25 -21 rrcurveto
            -22 26 34 -5 42 hhcurveto
            43 42 14 24 35 hvcurveto
            -4 vlineto
            return
          </CharString>
          <CharString index="134">
            497 rmoveto
            12 73 -60 callsubr
            return
          </CharString>
          <CharString index="135">
            123 -60 13 -6 10 -5 -3 -18 rlinecurve
            endchar
          </CharString>
          <CharString index="136">
            84 callgsubr
            74 callsubr
            34 callgsubr
            38 callsubr
            95 callgsubr
            -60 callgsubr
          </CharString>
          <CharString index="137">
            -9 -53 rlineto
            -19 -3 -4 -22 34 hhcurveto
            35 4 21 20 3 112 callsubr
            -373 -84 callsubr
            285 hlineto
            130 callsubr
            rrcurveto
            return
          </CharString>
          <CharString index="138">
            rcurveline
            -3 -20 -4 -20 32 -2 44 -2 20 -18 -4 -20 rrcurveto
            -40 -6 -99 0 -38 hhcurveto
            -38 -22 0 -31 -6 hvcurveto
            -23 -3 71 callgsubr
            7 39 -21 44 -69 14 return
          </CharString>
          <CharString index="139">
            61 225 61 203 61 return
          </CharString>
          <CharString index="140">
            -208 62 -31 111 0 111 hstemhm
            341 69 hintmask 10110000
            410 -106 rmoveto
            7 39 -21 44 -69 14 rrcurveto
            37 7 3 17 177 callsubr
            -22 -20 -3 hvcurveto
            -5 -27 -3 -20 -4 -20 32 -2 rlinecurve
            44 -2 20 -18 -4 -20 rrcurveto
            -40 -6 -99 0 -38 hhcurveto
            hintmask 01000000
            -38 -22 0 -31 -6 hvcurveto
            hintmask 10010000
            -23 -3 71 callgsubr
            endchar
          </CharString>
          <CharString index="141">
            22 9 14 32 14 hvcurveto
            -30 35 58 -16 64 hhcurveto
            116 87 88 89 15 hvcurveto
            return
          </CharString>
          <CharString index="142">
            -6 57 callsubr
            return
          </CharString>
          <CharString index="143">
            9 12 -11 hvcurveto
            hintmask 01000000
            -59 callgsubr
            hintmask 10000000
            -16 return
          </CharString>
          <CharString index="144">
            hstemhm
            15 58 41 69 -16 69 -53 69 -59 69 44 38 callgsubr
            return
          </CharString>
          <CharString index="145">
            -16 -2 13 callgsubr
            return
          </CharString>
          <CharString index="146">
            -93 callsubr
            22 0 return
          </CharString>
          <CharString index="147">
            0 44 callgsubr
            return
          </CharString>
          <CharString index="148">
            -229 60 173 57 55 60 171 60 -30 60 return
          </CharString>
          <CharString index="149">
            -52 callsubr
            -1 callgsubr
            return
          </CharString>
          <CharString index="150">
            16 32 16 rlinecurve
            22 11 return
          </CharString>
          <CharString index="151">
            113 rmoveto
            3 17 -7 7 -6 6 -161 163 rcurveline
            215 163 8 6 9 7 3 17 rlinecurve
            21 4 -9 11 -11 hhcurveto
            -6 -3 -1 -8 -11 hvcurveto
            -246 -186 -7 -6 -9 -7 -3 -17 rlinecurve
            -2 -12 3 -10 5 -6 187 -188 rcurveline
            -8 9 2 -1 6 hhcurveto
            11 12 11 21 4 hvcurveto
            return
          </CharString>
          <CharString index="152">
            511 100 hstem
            363 61 vstem
            424 497 rmoveto
            77 13 -31 37 -41 hhcurveto
            -33 -22 -26 -24 -4 hvcurveto
            -27 -5 16 -23 30 hhcurveto
            7 7 1 0 hvcurveto
            4 -1 -9 -6 -1 hvcurveto
            -3 -19 -15 -72 -87 -46 -9 -5 -11 -5 -2 -16 rrcurveto
            -18 -3 14 -14 14 hhcurveto
            24 118 69 126 21 hvcurveto
            endchar
          </CharString>
          <CharString index="153">
            -6 61 -55 89 callsubr
            return
          </CharString>
          <CharString index="154">
            rmoveto
            8 callgsubr
            return
          </CharString>
          <CharString index="155">
            -36 -6 -2 -14 40 hhcurveto
            73 hlineto
            16 25 -14 callsubr
            -127 163 rmoveto
            return
          </CharString>
          <CharString index="156">
            hvcurveto
            5 5 6 6 3 17 rrcurveto
            24 4 -15 20 -26 hhcurveto
            -25 -23 -17 -47 callsubr
            -32 -5 6 -71 128 hhcurveto
            132 144 125 198 33 hvcurveto
            -65 77 rmoveto
            -55 -9 -64 -57 -83 hhcurveto
            -81 -42 67 74 13 hvcurveto
            87 14 81 56 72 hhcurveto
            43 24 -23 -20 12 hvcurveto
            26 -39 return
          </CharString>
          <CharString index="157">
            -6 callgsubr
            195 -59 callsubr
            endchar
          </CharString>
          <CharString index="158">
            -44 -7 -24 -27 -12 hhcurveto
            -12 -14 27 44 7 hvcurveto
            44 8 23 27 12 hhcurveto
            12 15 -27 -44 -8 hvcurveto
            return
          </CharString>
          <CharString index="159">
            36 -37 5 -49 -6 -36 rrcurveto
            -81 154 rmoveto
            -206 -276 -37 41 -4 46 6 35 rlinecurve
            90 15 85 73 88 hhcurveto
            28 6 -2 -7 19 hvcurveto
            return
          </CharString>
          <CharString index="160">
            326 rmoveto
            16 3 -12 0 -8 hhcurveto
            -46 hlineto
            43 260 rlineto
            8 2 2 12 -15 hhcurveto
            -9 -4 -6 -6 -4 hvcurveto
            -26 -42 -27 -6 -9 -1 rrcurveto
            return
          </CharString>
          <CharString index="161">
            rmoveto
            -19 -3 -27 -15 -23 hhcurveto
            -23 -21 15 19 3 hvcurveto
            19 3 return
          </CharString>
          <CharString index="162">
            rlineto
            28 callgsubr
            return
          </CharString>
          <CharString index="163">
            115 callsubr
            23 154 return
          </CharString>
          <CharString index="164">
            61 -55 61 318 61 return
          </CharString>
          <CharString index="165">
            -6 100 callgsubr
            return
          </CharString>
          <CharString index="166">
            rmoveto
            35 6 -37 0 -14 hhcurveto
            -346 hlineto
            -14 -37 0 -35 -6 hvcurveto
            -35 -6 33 0 12 hhcurveto
            358 hlineto
            12 33 0 35 6 hvcurveto
            return
          </CharString>
          <CharString index="167">
            -104 callgsubr
            -55 91 rmoveto
            -8 -1 -13 -32 -26 hhcurveto
            return
          </CharString>
          <CharString index="168">
            -16 -2 10 -12 16 hhcurveto
            42 hlineto
            return
          </CharString>
          <CharString index="169">
            -16 -3 13 callgsubr
            return
          </CharString>
          <CharString index="170">
            hlineto
            82 callsubr
            return
          </CharString>
          <CharString index="171">
            82 489 rlineto
            return
          </CharString>
          <CharString index="172">
            hstemhm
            63 callgsubr
            return
          </CharString>
          <CharString index="173">
            -1 callgsubr
            -100 hlineto
            -15 39 callgsubr
            return
          </CharString>
          <CharString index="174">
            rlineto
            12 2 6 35 -35 hhcurveto
            -35 -6 -35 -12 -2 hvcurveto
            return
          </CharString>
          <CharString index="175">
            22 28 5 hvcurveto
            return
          </CharString>
          <CharString index="176">
            -8 15 hhcurveto
            95 140 0 102 17 hvcurveto
            return
          </CharString>
          <CharString index="177">
            79 callsubr
            hstemhm
            return
          </CharString>
          <CharString index="178">
            -228 61 -61 126 -44 61 455 61 return
          </CharString>
          <CharString index="179">
            0 89 callsubr
            return
          </CharString>
          <CharString index="180">
            -24 -4 17 -20 24 hhcurveto
            24 23 20 24 4 hvcurveto
            return
          </CharString>
          <CharString index="181">
            -28 -34 -29 126 callsubr
            return
          </CharString>
          <CharString index="182">
            rmoveto
            28 5 -18 22 -28 hhcurveto
            129 callsubr
            -5 hvcurveto
            -28 -4 18 119 callgsubr
            26 22 28 4 hvcurveto
            return
          </CharString>
          <CharString index="183">
            22 -34 hhcurveto
            -35 return
          </CharString>
          <CharString index="184">
            -5 -6 -8 hvcurveto
            return
          </CharString>
          <CharString index="185">
            rlineto
            -20 -3 -4 -21 35 hhcurveto
            34 3 20 25 5 hvcurveto
            79 callgsubr
            93 callsubr
            return
          </CharString>
          <CharString index="186">
            80 callsubr
            33 -3 callsubr
            return
          </CharString>
          <CharString index="187">
            -210 -21 104 94 return
          </CharString>
          <CharString index="188">
            rrcurveto
            60 10 57 50 61 hhcurveto
            45 39 -23 -37 9 hvcurveto
            -8 -8 -7 -10 -2 -12 rrcurveto
            73 callsubr
            92 16 -73 68 -95 hhcurveto
            -100 -94 -81 -99 -16 hvcurveto
            return
          </CharString>
          <CharString index="189">
            -52 -309 rlineto
            return
          </CharString>
          <CharString index="190">
            hlineto
            17 16 14 17 108 callgsubr
            return
          </CharString>
          <CharString index="191">
            hlineto
            -17 -16 -14 -17 -3 hvcurveto
            -17 -3 12 -14 17 hhcurveto
            return
          </CharString>
          <CharString index="192">
            hstemhm
            167 69 236 69 return
          </CharString>
          <CharString index="193">
            -30 -5 25 -34 callsubr
            return
          </CharString>
          <CharString index="194">
            86 callgsubr
            hstemhm
            return
          </CharString>
          <CharString index="195">
            -5 110 callgsubr
            return
          </CharString>
          <CharString index="196">
            61 309 61 return
          </CharString>
          <CharString index="197">
            521 30 rmoveto
            31 5 -21 0 -36 hhcurveto
            41 242 rlineto
            20 3 19 114 -89 hhcurveto
            -30 -43 -13 -39 -35 hvcurveto
            34 -9 -25 18 -33 hhcurveto
            -32 -32 -14 -22 -28 hvcurveto
            return
          </CharString>
          <CharString index="198">
            17 2 -2 4 -17 hhcurveto
            -14 hlineto
            -12 -3 -1 -10 -8 hvcurveto
            -144 -179 -6 -6 0 -1 -1 -10 rlinecurve
            -17 -3 4 -3 15 hhcurveto
            126 hlineto
            -9 -54 rlineto
            -31 hlineto
            return
          </CharString>
          <CharString index="199">
            -13 callsubr
            hintmask 0001000010000000
            86 callsubr
            return
          </CharString>
          <CharString index="200">
            -96 -16 -81 -65 -70 hhcurveto
            -78 -20 88 48 8 hvcurveto
            12 73 rlineto
            return
          </CharString>
          <CharString index="201">
            -28 -35 -28 126 callsubr
            return
          </CharString>
          <CharString index="202">
            hlineto
            -89 callsubr
            return
          </CharString>
          <CharString index="203">
            -14 callsubr
            23 callsubr
            return
          </CharString>
          <CharString index="204">
            10 -13 16 hhcurveto
            15 15 13 15 return
          </CharString>
          <CharString index="205">
            61 511 61 return
          </CharString>
          <CharString index="206">
            115 callgsubr
            14 2 5 27 -28 hhcurveto
            -28 -5 -27 -14 -2 159 callsubr
            return
          </CharString>
          <CharString index="207">
            rmoveto
            -74 callgsubr
            return
          </CharString>
          <CharString index="208">
            17 -21 34 hhcurveto
            27 return
          </CharString>
          <CharString index="209">
            -32 -48 -9 hvcurveto
            return
          </CharString>
          <CharString index="210">
            rmoveto
            32 5 -23 0 -17 hhcurveto
            -122 179 callgsubr
            121 hlineto
            16 24 -14 callsubr
            endchar
          </CharString>
          <CharString index="211">
            -28 -25 -22 -28 -5 hvcurveto
            -28 -5 19 -22 28 hhcurveto
            -22 callsubr
            return
          </CharString>
          <CharString index="212">
            hlineto
            hintmask 0010000000000000
            48 callgsubr
            return
          </CharString>
          <CharString index="213">
            -18 -23 15 24 4 hvcurveto
            7 43 40 36 58 31 rrcurveto
            return
          </CharString>
          <CharString index="214">
            hhcurveto
            35 4 21 20 3 hvcurveto
            12 return
          </CharString>
          <CharString index="215">
            hstemhm
            238 69 13 69 return
          </CharString>
          <CharString index="216">
            -17 21 -34 hhcurveto
            -27 return
          </CharString>
          <CharString index="217">
            -43 -25 -32 -36 120 callsubr
            return
          </CharString>
          <CharString index="218">
            89 callsubr
            119 61 hstemhm
            26 199 -164 199 -140 56 0 199 -61 199 -195 199 -127 56 return
          </CharString>
          <CharString index="219">
            hvcurveto
            12 73 -60 callsubr
            return
          </CharString>
          <CharString index="220">
            -16 -3 13 -16 16 hhcurveto
            11 return
          </CharString>
          <CharString index="221">
            5 hvcurveto
            -199 -111 rmoveto
            return
          </CharString>
          <CharString index="222">
            hstemhm
            186 154 return
          </CharString>
          <CharString index="223">
            -15 rrcurveto
            -11 -2 10 -13 12 hhcurveto
            24 84 41 82 return
          </CharString>
          <CharString index="224">
            -19 -3 13 -16 19 hhcurveto
            return
          </CharString>
          <CharString index="225">
            hlineto
            12 35 0 35 6 hvcurveto
            endchar
          </CharString>
          <CharString index="226">
            -144 rmoveto
            8 9 0 21 -7 7 41 callgsubr
            15 callgsubr
            return
          </CharString>
          <CharString index="227">
            -8 -47 -45 callgsubr
            return
          </CharString>
          <CharString index="228">
            62 317 61 -56 61 -21 62 return
          </CharString>
          <CharString index="229">
            560 rmoveto
            78 13 -29 56 -48 hhcurveto
            -49 -48 -58 -75 -12 hvcurveto
            -78 -13 29 -56 48 hhcurveto
            49 48 58 75 12 hvcurveto
            return
          </CharString>
          <CharString index="230">
            165 callsubr
            210 69 29 69 return
          </CharString>
          <CharString index="231">
            -11 61 511 149 callsubr
            return
          </CharString>
          <CharString index="232">
            168 callsubr
            123 70 -16 70 return
          </CharString>
          <CharString index="233">
            -16 -14 hhcurveto
            -10 -7 9 12 -11 hvcurveto
            return
          </CharString>
          <CharString index="234">
            -22 -4 -3 -20 35 hhcurveto
            return
          </CharString>
          <CharString index="235">
            54 callgsubr
            hstemhm
            return
          </CharString>
          <CharString index="236">
            -28 -26 -22 -28 return
          </CharString>
          <CharString index="237">
            -43 -25 -32 -36 -8 -47 -34 callgsubr
            return
          </CharString>
          <CharString index="238">
            15 13 15 3 hvcurveto
            return
          </CharString>
          <CharString index="239">
            -11 129 callgsubr
            return
          </CharString>
          <CharString index="240">
            -39 callsubr
            7 hvcurveto
            return
          </CharString>
          <CharString index="241">
            -29 callsubr
            endchar
          </CharString>
          <CharString index="242">
            197 -152 197 return
          </CharString>
          <CharString index="243">
            9 56 13 77 18 48 rrcurveto
            55 22 26 20 92 hhcurveto
            89 25 -17 -65 -51 -11 -68 -9 -54 hvcurveto
            return
          </CharString>
          <CharString index="244">
            -207 140 callsubr
            return
          </CharString>
          <CharString index="245">
            101 callgsubr
            hstemhm
            return
          </CharString>
          <CharString index="246">
            21 -14 callsubr
            return
          </CharString>
          <CharString index="247">
            -191 rmoveto
            28 5 -19 22 -28 hhcurveto
            -28 -25 -22 -28 -5 hvcurveto
            -28 -5 19 -22 28 hhcurveto
            return
          </CharString>
          <CharString index="248">
            -8 -12 -1 -14 -2 hvcurveto
            -13 -2 9 -2 8 hhcurveto
            return
          </CharString>
          <CharString index="249">
            35 callsubr
            59 64 return
          </CharString>
          <CharString index="250">
            rlineto
            22 -52 callsubr
            return
          </CharString>
          <CharString index="251" raw="1">
            85c854c8 0b  
          </CharString>
          <CharString index="252">
            104 callsubr
            endchar
          </CharString>
          <CharString index="253">
            15 callgsubr
            7 47 33 41 43 22 rrcurveto
            return
          </CharString>
          <CharString index="254">
            8 5 5 9 2 9 rlinecurve
            96 callgsubr
            -8 -7 -3 -4 -6 hvcurveto
            return
          </CharString>
          <CharString index="255">
            177 callgsubr
            202 61 return
          </CharString>
          <CharString index="256">
            61 169 callgsubr
            return
          </CharString>
          <CharString index="257">
            119 69 13 69 return
          </CharString>
          <CharString index="258">
            -88 callsubr
            104 -52 callsubr
            return
          </CharString>
          <CharString index="259">
            -12 -15 28 44 8 hvcurveto
            41 6 23 30 13 hhcurveto
            13 13 -30 -41 -6 hvcurveto
            return
          </CharString>
          <CharString index="260">
            -15 186 callsubr
            return
          </CharString>
          <CharString index="261">
            -24 -23 -20 -24 -4 hvcurveto
            return
          </CharString>
          <CharString index="262">
            -16 -17 -26 hvcurveto
            return
          </CharString>
          <CharString index="263">
            -203 54 144 60 0 54 -54 60 22 54 0 60 128 61 return
          </CharString>
          <CharString index="264">
            -101 callgsubr
            27 0 14 hhcurveto
            return
          </CharString>
          <CharString index="265">
            9 -12 20 hhcurveto
            24 return
          </CharString>
          <CharString index="266">
            hvcurveto
            -12 -69 rlineto
            return
          </CharString>
          <CharString index="267">
            hvcurveto
            -44 -266 rlineto
            -18 -3 -4 -23 32 hhcurveto
            18 5 5 10 return
          </CharString>
          <CharString index="268">
            rlineto
            -54 -93 callgsubr
            return
          </CharString>
          <CharString index="269">
            152 -21 140 70 140 -20 hstem
            546 306 rmoveto
            return
          </CharString>
          <CharString index="270">
            rlineto
            35 -52 callsubr
            return
          </CharString>
          <CharString index="271">
            108 -52 callsubr
            return
          </CharString>
          <CharString index="272">
            hstemhm
            114 69 -43 69 return
          </CharString>
          <CharString index="273">
            -19 -3 -4 -22 34 hhcurveto
            return
          </CharString>
          <CharString index="274">
            500 30 rmoveto
            31 5 return
          </CharString>
          <CharString index="275">
            hstemhm
            108 70 -12 70 return
          </CharString>
          <CharString index="276">
            4 25 -30 hhcurveto
            -24 return
          </CharString>
          <CharString index="277">
            103 56 308 56 return
          </CharString>
          <CharString index="278">
            27 -79 callsubr
            return
          </CharString>
          <CharString index="279">
            -21 230 -20 return
          </CharString>
          <CharString index="280">
            30 3 -20 0 -18 hhcurveto
            -32 hlineto
            168 callgsubr
            return
          </CharString>
          <CharString index="281">
            61 -55 89 callsubr
            56 callsubr
            return
          </CharString>
          <CharString index="282">
            189 callsubr
            endchar
          </CharString>
          <CharString index="283">
            -5 hvcurveto
            -30 -5 return
          </CharString>
          <CharString index="284">
            -34 hhcurveto
            -35 -4 return
          </CharString>
          <CharString index="285">
            13 callgsubr
            hintmask 01000000
            28 return
          </CharString>
          <CharString index="286">
            rrcurveto
            -35 -6 26 -4 13 hhcurveto
            35 9 25 14 2 hvcurveto
            return
          </CharString>
          <CharString index="287">
            rrcurveto
            39 6 2 13 -40 hhcurveto
            -30 -11 -5 -36 -6 hvcurveto
            return
          </CharString>
          <CharString index="288">
            rlineto
            18 3 3 16 -22 hhcurveto
            -21 -3 -17 -17 -3 hvcurveto
            return
          </CharString>
          <CharString index="289">
            80 callsubr
            33 76 callgsubr
            return
          </CharString>
          <CharString index="290">
            0 76 callgsubr
            return
          </CharString>
          <CharString index="291">
            hhcurveto
            21 26 17 28 4 hvcurveto
            2 return
          </CharString>
          <CharString index="292">
            -200 100 100 89 callsubr
            return
          </CharString>
          <CharString index="293">
            -25 -48 callgsubr
            return
          </CharString>
          <CharString index="294">
            hhcurveto
            17 3 19 14 2 hvcurveto
            136 815 rlineto
            return
          </CharString>
          <CharString index="295">
            hstemhm
            107 69 13 69 167 69 -39 69 -30 69 return
          </CharString>
          <CharString index="296">
            rlineto
            96 hlineto
            113 34 -133 -116 -20 hvcurveto
            return
          </CharString>
          <CharString index="297">
            -17 -3 10 -14 18 hhcurveto
            17 17 209 callgsubr
            return
          </CharString>
          <CharString index="298">
            38 68 38 154 -20 return
          </CharString>
          <CharString index="299">
            126 61 232 61 return
          </CharString>
          <CharString index="300">
            24 4 -17 20 -24 hhcurveto
            return
          </CharString>
          <CharString index="301">
            83 199 94 199 return
          </CharString>
          <CharString index="302">
            hhcurveto
            -115 hlineto
            return
          </CharString>
          <CharString index="303">
            hstemhm
            108 160 57 203 callgsubr
            return
          </CharString>
          <CharString index="304">
            8 -34 hhcurveto
            -28 hlineto
            -24 -5 -1 -20 -17 hvcurveto
            return
          </CharString>
          <CharString index="305">
            95 callsubr
            21 0 return
          </CharString>
          <CharString index="306">
            hstemhm
            32 187 63 50 -17 187 -76 50 return
          </CharString>
          <CharString index="307">
            61 165 61 263 61 return
          </CharString>
          <CharString index="308">
            hlineto
            153 callsubr
            return
          </CharString>
          <CharString index="309">
            hstemhm
            80 69 -24 69 return
          </CharString>
          <CharString index="310">
            64 49 -20 hstemhm
            return
          </CharString>
          <CharString index="311">
            64 69 64 -59 64 65 -20 hstemhm
            hintmask 10110000
            return
          </CharString>
          <CharString index="312">
            0 61 373 -21 104 94 -61 61 hstemhm
            return
          </CharString>
          <CharString index="313">
            72 callsubr
            -55 61 68 100 hstemhm
            return
          </CharString>
          <CharString index="314">
            -2 -3 -20 rlinecurve
            -33 -6 8 -7 31 hhcurveto
            return
          </CharString>
          <CharString index="315">
            19 3 -13 16 return
          </CharString>
          <CharString index="316">
            34 202 rlineto
            return
          </CharString>
        <CharString name=".notdef">
          173 endchar
        </CharString>
        <CharString name="A">
          40 callsubr
          hstem
          63 callgsubr
          vstem
          -107 callsubr
          endchar
        </CharString>
        <CharString name="AE">
          -30 callgsubr
        </CharString>
        <CharString name="AE.dup">
          -30 callgsubr
        </CharString>
        <CharString name="AEacute">
          0 61 122 61 42 61 203 61 83 87 callsubr
          28 151 27 56 -35 151 -104 56 26 56 53 56 -38 56 -21 56 hintmask 1010000001010000
          506 99 callsubr
          -123 hlineto
          38 225 rlineto
          hintmask 0010000010001000
          115 -91 callgsubr
          -115 hlineto
          hintmask 0001000000100100
          34 203 rlineto
          115 hlineto
          -9 -53 rlineto
          hintmask 0000000000001000
          -14 -2 -5 -27 28 hhcurveto
          hintmask 0001000010000100
          28 5 27 14 2 112 callsubr
          -281 201 callsubr
          hintmask 1101001101100000
          135 callgsubr
          -181 -489 rlineto
          -26 -22 -88 callsubr
          71 -53 callgsubr
          31 5 -23 0 -23 hhcurveto
          46 122 rlineto
          111 hlineto
          -21 -122 rlineto
          -14 39 callgsubr
          194 -29 callsubr
          -201 203 rmoveto
          -99 hlineto
          113 306 rlineto
          37 hlineto
          hintmask 0000110000000000
          142 222 -103 callgsubr
        </CharString>
        <CharString name="Aacute">
          40 callsubr
          91 -21 134 -39 callgsubr
          146 232 -103 callgsubr
        </CharString>
        <CharString name="Abreve">
          165 callgsubr
          49 -39 callgsubr
          18 callgsubr
          endchar
        </CharString>
        <CharString name="Abreveacute">
          165 callgsubr
          69 64 -59 64 65 -20 65 callsubr
          hintmask 1110000110000000
          -107 callsubr
          hintmask 0001011000000000
          18 callgsubr
          -45 150 rmoveto
          20 3 -12 -77 callsubr
          hintmask 0000100000000000
          192 callgsubr
          hintmask 0000010000000000
          194 callgsubr
          hintmask 0000100000000000
          143 59 26 11 6 13 2 11 rlinecurve
          endchar
        </CharString>
        <CharString name="Abrevedotbelow">
          -200 100 100 44 callgsubr
          70 203 callsubr
          32 187 -31 100 27 187 hintmask 0111111010000000
          -107 callsubr
          18 callgsubr
          hintmask 1000000100000000
          -277 -905 -96 callsubr
          endchar
        </CharString>
        <CharString name="Abrevegrave">
          165 callgsubr
          49 -20 40 64 -59 64 65 callsubr
          hintmask 1110000110000000
          -107 callsubr
          hintmask 0001110000000000
          213 215 60 callsubr
          hintmask 0000001000000000
          -7 -4 2 3 -6 hvcurveto
          hintmask 0000010000000000
          4 callsubr
          hintmask 0000001000000000
          28 callsubr
        </CharString>
        <CharString name="Abrevehookabove">
          165 callgsubr
          279 -39 callgsubr
          213 215 -11 callgsubr
        </CharString>
        <CharString name="Abrevetilde">
          165 callgsubr
          89 65 -10 65 65 callsubr
          hintmask 11100011
          -107 callsubr
          hintmask 00010100
          18 callgsubr
          25 159 -21 callsubr
        </CharString>
        <CharString name="Acaron">
          40 callsubr
          65 callsubr
          vstemhm
          -107 callsubr
          156 168 -70 callsubr
        </CharString>
        <CharString name="Acircumflex">
          40 callsubr
          65 callsubr
          vstemhm
          -107 callsubr
          159 181 rmoveto
          -111 43 -5 2 -7 0 -7 -96 callgsubr
          endchar
        </CharString>
        <CharString name="Acircumflexacute">
          40 callsubr
          316 -20 65 callsubr
          hintmask 11101100
          -107 callsubr
          hintmask 00010000
          159 181 -38 callsubr
        </CharString>
        <CharString name="Acircumflexdotbelow">
          -200 100 100 44 callgsubr
          hstemhm
          32 187 -31 100 27 187 hintmask 01111010
          -107 callsubr
          159 181 rmoveto
          -111 43 -5 2 -7 0 -7 -96 callgsubr
          hintmask 10000100
          -223 -871 -96 callsubr
          endchar
        </CharString>
        <CharString name="Acircumflexgrave">
          40 callsubr
          65 callsubr
          vstemhm
          -107 callsubr
          159 181 -35 callsubr
        </CharString>
        <CharString name="Acircumflexhookabove">
          40 callsubr
          392 -20 65 callsubr
          hintmask 11101100
          -107 callsubr
          hintmask 00010000
          159 181 rmoveto
          -111 43 -5 2 -7 0 -7 -96 callgsubr
          101 194 -106 callgsubr
        </CharString>
        <CharString name="Acircumflextilde">
          40 callsubr
          202 65 -10 65 -78 callgsubr
          hintmask 00001000
          159 181 rmoveto
          -111 43 -5 2 -7 0 -7 -96 callgsubr
          76 172 84 callgsubr
          hintmask 00010000
          74 callsubr
          hintmask 00001000
          34 callgsubr
          hintmask 00010000
          38 callsubr
          hintmask 00001000
          28 35 28 16 14 hhcurveto
          10 7 122 callgsubr
        </CharString>
        <CharString name="Adblgrave">
          40 callsubr
          65 callsubr
          vstemhm
          -107 callsubr
          hintmask 00001000
          157 145 rmoveto
          -76 callgsubr
          66 -70 rcurveline
          12 -13 23 1 15 15 rrcurveto
          -194 hmoveto
          -76 callgsubr
          66 -70 rcurveline
          12 -13 23 1 15 15 rrcurveto
          endchar
        </CharString>
        <CharString name="Adieresis">
          40 callsubr
          60 90 hstemhm
          32 187 19 90 -13 187 -69 90 hintmask 11101010
          -107 callsubr
          hintmask 00010101
          -24 168 -78 callsubr
          endchar
        </CharString>
        <CharString name="Adotbelow">
          -200 100 100 44 callgsubr
          hstemhm
          32 187 -31 100 27 187 hintmask 01111010
          -107 callsubr
          hintmask 10000100
          -64 -690 -96 callsubr
          endchar
        </CharString>
        <CharString name="Agrave">
          40 callsubr
          91 -21 134 -39 callgsubr
          135 173 -75 callsubr
        </CharString>
        <CharString name="Ahookabove">
          40 callsubr
          92 -21 230 -39 callgsubr
          146 284 -106 callgsubr
        </CharString>
        <CharString name="Alpha">
          40 callsubr
          hstem
          63 callgsubr
          vstem
          -107 callsubr
          endchar
        </CharString>
        <CharString name="Amacron">
          40 callsubr
          80 63 65 callsubr
          hintmask 11101100
          -107 callsubr
          hintmask 00010000
          219 174 -71 callgsubr
        </CharString>
        <CharString name="Aogonek">
          -203 54 149 61 104 61 397 162 callgsubr
          hintmask 0111101010000000
          502 30 rmoveto
          2 13 -3 10 -11 5 rrcurveto
          3 -6 -22 0 -15 hhcurveto
          -34 523 rlineto
          38 -2 -14 1 -31 hhcurveto
          -29 -16 0 -38 -15 hvcurveto
          -209 -524 rlineto
          -14 -23 0 -2 -6 hvcurveto
          -12 -6 -8 -10 -2 -13 rrcurveto
          -30 -5 26 0 17 hhcurveto
          102 hlineto
          18 24 -79 callsubr
          31 5 -20 0 -36 hhcurveto
          41 104 rlineto
          162 hlineto
          5 -104 rlineto
          hintmask 0100000100000000
          -7 callsubr
          24 0 18 hhcurveto
          hintmask 1000010010000000
          110 callsubr
          hintmask 1000001000000000
          -16 -13 -27 -21 -20 hhcurveto
          hintmask 0100010000000000
          106 callsubr
          21 -6 0 6 hhcurveto
          hintmask 0010000100000000
          33 callgsubr
          -136 196 rmoveto
          -132 hlineto
          118 314 rlineto
          hintmask 0010000010000000
          endchar
        </CharString>
        <CharString name="Aogonekacute">
          -203 54 149 44 callgsubr
          91 -21 134 162 callgsubr
          hintmask 0111001010100000
          502 30 rmoveto
          2 13 -3 10 -11 5 rrcurveto
          3 -6 -22 0 -15 hhcurveto
          -34 523 rlineto
          38 -2 -14 1 -31 hhcurveto
          -29 -16 0 -38 -15 hvcurveto
          -209 -524 rlineto
          -14 -23 0 -2 -6 hvcurveto
          -12 -6 -8 -10 -2 -13 rrcurveto
          -30 -5 26 0 17 hhcurveto
          102 hlineto
          18 24 -79 callsubr
          31 5 -20 0 -36 hhcurveto
          41 104 rlineto
          162 hlineto
          5 -104 rlineto
          hintmask 0100000001000000
          -7 callsubr
          24 0 18 hhcurveto
          hintmask 1000000100100000
          110 callsubr
          hintmask 1000000010000000
          -16 -13 -27 -21 -20 hhcurveto
          hintmask 0100000100000000
          106 callsubr
          21 -6 0 6 hhcurveto
          hintmask 0010000001000000
          33 callgsubr
          -136 196 rmoveto
          -132 hlineto
          118 314 rlineto
          hintmask 0010000000100000
          hintmask 0000110010000000
          146 232 -103 callgsubr
        </CharString>
        <CharString name="Aring">
          0 61 104 61 397 38 68 38 199 callsubr
          hintmask 11101010
          -107 callsubr
          hintmask 00110101
          74 155 19 callgsubr
        </CharString>
        <CharString name="Aringacute">
          0 61 104 61 397 191 callsubr
          199 callsubr
          hintmask 1110010100000000
          -107 callsubr
          hintmask 0011101010000000
          74 155 20 callsubr
        </CharString>
        <CharString name="Atilde">
          40 callsubr
          60 65 -10 65 -78 callgsubr
          hintmask 00001000
          211 211 21 callgsubr
        </CharString>
        <CharString name="B">
          -2 callgsubr
        </CharString>
        <CharString name="Beta">
          -2 callgsubr
        </CharString>
        <CharString name="C">
          54 callgsubr
          hstem
          91 69 352 69 vstem
          -66 callgsubr
          -183 -30 89 -134 130 hhcurveto
          116 101 89 90 15 hvcurveto
          endchar
        </CharString>
        <CharString name="Cacute">
          124 callsubr
          91 69 352 69 hintmask 11001100
          -66 callgsubr
          -183 -30 89 -134 130 hhcurveto
          116 101 89 90 15 hvcurveto
          hintmask 00110000
          13 604 -103 callgsubr
        </CharString>
        <CharString name="Ccaron">
          128 callsubr
          91 69 352 69 vstemhm
          -66 callgsubr
          -183 -30 89 -134 130 hhcurveto
          116 101 89 90 15 hvcurveto
          23 540 -70 callsubr
        </CharString>
        <CharString name="Ccedilla">
          54 callgsubr
          hstem
          91 69 111 69 14 69 89 69 vstem
          -66 callgsubr
          -30 -179 85 -132 125 -6 -2 -13 31 callsubr
          1 6 rcurveline
          90 24 69 73 12 74 rrcurveto
          endchar
        </CharString>
        <CharString name="Ccircumflex">
          128 callsubr
          91 69 352 69 vstemhm
          -66 callgsubr
          -183 -30 89 -134 130 hhcurveto
          116 101 89 90 15 hvcurveto
          26 553 rmoveto
          -111 43 -5 2 -7 0 -7 -96 callgsubr
          endchar
        </CharString>
        <CharString name="Cdotaccent">
          54 callgsubr
          52 100 hstemhm
          91 69 200 100 52 69 hintmask 11010100
          -66 callgsubr
          -183 -30 89 -134 130 hhcurveto
          116 101 89 90 15 hvcurveto
          hintmask 00101000
          -52 556 -70 callgsubr
          endchar
        </CharString>
        <CharString name="Chi">
          -18 callgsubr
        </CharString>
        <CharString name="D">
          166 callgsubr
          92 69 13 69 223 69 vstem
          -42 callgsubr
          endchar
        </CharString>
        <CharString name="Dcaron">
          72 callgsubr
          92 69 13 69 223 69 vstemhm
          -42 callgsubr
          -21 407 -70 callsubr
        </CharString>
        <CharString name="Dcroat">
          -12 callgsubr
        </CharString>
        <CharString name="Ddotbelow">
          75 callgsubr
          hstemhm
          92 69 -36 100 -51 69 223 69 hintmask 01110110
          -42 callgsubr
          hintmask 10001000
          -241 -451 -96 callsubr
          endchar
        </CharString>
        <CharString name="Delta">
          0 67 556 -20 hstem
          494 22 rmoveto
          0 0 4 -2 14 vhcurveto
          -77 547 rlineto
          33 -5 -11 3 -33 hhcurveto
          -23 -22 0 -33 -16 hvcurveto
          -259 -550 rlineto
          -8 -15 0 -3 0 vvcurveto
          -22 -4 20 -34 callsubr
          386 hlineto
          15 20 0 22 4 hvcurveto
          -78 45 rmoveto
          -286 hlineto
          178 378 44 95 rlineto
          1 hlineto
          1 -13 2 -28 8 -54 rrcurveto
          endchar
        </CharString>
        <CharString name="Dlinebelow">
          207 callgsubr
          92 69 13 69 223 69 hintmask 01111100
          -42 callgsubr
          hintmask 10000000
          -102 -451 -71 callgsubr
        </CharString>
        <CharString name="E">
          0 32 callsubr
          25 callgsubr
          hintmask 11111100
          -102 callsubr
          hintmask 10111010
          -101 callsubr
          endchar
        </CharString>
        <CharString name="Eacute">
          0 32 callsubr
          83 -21 134 -20 25 callgsubr
          hintmask 1110011100000000
          -102 callsubr
          hintmask 1010011010000000
          -101 callsubr
          hintmask 0001100000000000
          -11 731 -103 callgsubr
        </CharString>
        <CharString name="Ebreve">
          0 32 callsubr
          62 64 49 -20 25 callgsubr
          hintmask 1110011100000000
          -102 callsubr
          hintmask 1010011010000000
          -101 callsubr
          hintmask 0001100000000000
          56 714 -82 callgsubr
        </CharString>
        <CharString name="Ecaron">
          0 32 callsubr
          25 callgsubr
          hintmask 11111100
          -102 callsubr
          hintmask 10111010
          -101 callsubr
          hintmask 00000000
          -1 667 -70 callsubr
        </CharString>
        <CharString name="Ecircumflex">
          0 32 callsubr
          25 callgsubr
          hintmask 11111100
          -102 callsubr
          hintmask 10111010
          -101 callsubr
          hintmask 00000000
          2 680 rmoveto
          -111 43 -5 2 -7 0 -7 -96 callgsubr
          endchar
        </CharString>
        <CharString name="Ecircumflexacute">
          0 32 callsubr
          308 -20 25 callgsubr
          hintmask 11101110
          -102 callsubr
          hintmask 10101101
          -101 callsubr
          hintmask 00010000
          2 680 -38 callsubr
        </CharString>
        <CharString name="Ecircumflexdotbelow">
          -200 100 100 32 callsubr
          hstemhm
          107 69 12 100 -99 69 197 69 -30 69 hintmask 0111101100000000
          -102 callsubr
          hintmask 0101101010000000
          -101 callsubr
          2 680 rmoveto
          -111 43 -5 2 -7 0 -7 -96 callgsubr
          hintmask 1000010000000000
          -223 -871 -96 callsubr
          endchar
        </CharString>
        <CharString name="Ecircumflexgrave">
          0 32 callsubr
          25 callgsubr
          hintmask 11111100
          -102 callsubr
          hintmask 10111010
          -101 callsubr
          hintmask 00000000
          2 680 -35 callsubr
        </CharString>
        <CharString name="Ecircumflexhookabove">
          0 32 callsubr
          384 -20 25 callgsubr
          hintmask 11101110
          -102 callsubr
          hintmask 10101101
          -101 callsubr
          hintmask 00010000
          2 680 rmoveto
          -111 43 -5 2 -7 0 -7 -96 callgsubr
          101 194 -106 callgsubr
        </CharString>
        <CharString name="Ecircumflextilde">
          0 32 callsubr
          194 65 -10 65 25 callgsubr
          hintmask 1110011100000000
          -102 callsubr
          hintmask 1010011010000000
          -101 callsubr
          hintmask 0000100000000000
          2 680 rmoveto
          -111 43 -5 2 -7 0 -7 -96 callgsubr
          76 172 84 callgsubr
          hintmask 0001000000000000
          74 callsubr
          hintmask 0000100000000000
          34 callgsubr
          hintmask 0001000000000000
          38 callsubr
          hintmask 0000100000000000
          95 callgsubr
          hintmask 0001000000000000
          -60 callgsubr
        </CharString>
        <CharString name="Edblgrave">
          0 32 callsubr
          25 callgsubr
          hintmask 11111100
          -102 callsubr
          hintmask 10111010
          -101 callsubr
          hintmask 00000000
          29 644 rmoveto
          -76 callgsubr
          66 -70 rcurveline
          12 -13 23 1 15 15 rrcurveto
          -194 hmoveto
          -76 callgsubr
          66 -70 rcurveline
          12 -13 23 1 15 15 rrcurveto
          endchar
        </CharString>
        <CharString name="Edieresis">
          0 32 callsubr
          52 90 hstemhm
          107 69 13 69 -20 90 105 90 -68 69 -30 69 hintmask 1110110010000000
          -102 callsubr
          hintmask 1010110001000000
          -101 callsubr
          hintmask 0001001100000000
          -181 667 -78 callsubr
          endchar
        </CharString>
        <CharString name="Edotaccent">
          0 32 callsubr
          63 100 hstemhm
          107 69 13 69 76 100 21 69 -30 69 hintmask 1110110100000000
          -102 callsubr
          hintmask 1010110010000000
          -101 callsubr
          hintmask 0001001000000000
          -75 683 -70 callgsubr
          endchar
        </CharString>
        <CharString name="Edotbelow">
          -200 100 100 32 callsubr
          hstemhm
          107 69 12 100 -99 69 197 69 -30 69 hintmask 0111101100000000
          -102 callsubr
          hintmask 0101101010000000
          -101 callsubr
          hintmask 1000010000000000
          -221 -191 -96 callsubr
          endchar
        </CharString>
        <CharString name="Egrave">
          0 32 callsubr
          83 -21 134 -20 25 callgsubr
          hintmask 1110011100000000
          -102 callsubr
          hintmask 1010011010000000
          -101 callsubr
          hintmask 0001100000000000
          -22 672 -75 callsubr
        </CharString>
        <CharString name="Ehookabove">
          0 32 callsubr
          84 172 callsubr
          25 callgsubr
          hintmask 1110011100000000
          -102 callsubr
          hintmask 1010011010000000
          -101 callsubr
          hintmask 0001100000000000
          -11 783 -106 callgsubr
        </CharString>
        <CharString name="Emacron">
          0 32 callsubr
          72 63 25 callgsubr
          hintmask 11101110
          -102 callsubr
          hintmask 10101101
          -101 callsubr
          hintmask 00010000
          62 673 -71 callgsubr
        </CharString>
        <CharString name="Eng">
          -11 88 -77 -3 callsubr
          -59 70 hstemhm
          107 69 136 69 90 70 hintmask 00010000
          541 306 rmoveto
          157 26 -36 159 -138 hhcurveto
          -48 -45 -19 -31 -39 hvcurveto
          hintmask 01101000
          29 5 -5 10 -33 -95 callsubr
          -82 -489 -71 callsubr
          61 367 rlineto
          hintmask 10010110
          68 20 58 56 66 hhcurveto
          102 8 -127 -119 -20 hvcurveto
          -16 -94 -18 -113 -49 -31 rrcurveto
          6 -6 -9 3 -10 hhcurveto
          154 callsubr
          -24 -4 16 -20 24 hhcurveto
          128 40 167 150 25 hvcurveto
          endchar
        </CharString>
        <CharString name="Eogonek">
          -203 54 149 32 callsubr
          188 callsubr
          hintmask 0111110100000000
          -102 callsubr
          hintmask 1101110010000000
          30 callsubr
          hintmask 1100001000000000
          41 callgsubr
          -16 -13 -27 -21 -20 hhcurveto
          106 callsubr
          29 134 callsubr
        </CharString>
        <CharString name="Eogonekacute">
          -203 54 149 32 callsubr
          83 -21 134 -20 188 callsubr
          hintmask 0111001101000000
          -102 callsubr
          hintmask 1101001100100000
          30 callsubr
          hintmask 1100000010000000
          41 callgsubr
          -16 -13 -27 -21 -20 hhcurveto
          106 callsubr
          29 -29 callsubr
          hintmask 0000110000000000
          -11 731 -103 callgsubr
        </CharString>
        <CharString name="Epsilon">
          0 32 callsubr
          25 callgsubr
          hintmask 11111100
          -102 callsubr
          hintmask 10111010
          -101 callsubr
          endchar
        </CharString>
        <CharString name="Ereversed">
          0 32 callsubr
          hstem
          48 69 14 69 172 69 13 69 vstem
          507 30 rmoveto
          -1 callgsubr
          -30 88 callgsubr
          30 hlineto
          15 26 -14 callsubr
          -27 callgsubr
          -373 hlineto
          -34 -8 -10 -61 callsubr
          -12 -73 rlineto
          -20 -3 -4 -21 35 hhcurveto
          34 4 22 19 3 hvcurveto
          9 53 rlineto
          245 hlineto
          -34 -203 rlineto
          -131 hlineto
          41 7 2 16 -35 hhcurveto
          -34 -3 -22 -19 -3 hvcurveto
          -16 -93 rlineto
          166 callsubr
          35 3 16 41 7 hvcurveto
          131 hlineto
          -38 -225 rlineto
          -267 hlineto
          12 69 rlineto
          20 3 4 21 -35 hhcurveto
          -34 -4 -22 -19 -3 hvcurveto
          -15 -89 rlineto
          -32 -5 5 -9 33 hhcurveto
          395 -52 callsubr
          endchar
        </CharString>
        <CharString name="Eta">
          -62 callsubr
          endchar
        </CharString>
        <CharString name="Eth">
          -12 callgsubr
        </CharString>
        <CharString name="Etilde">
          0 32 callsubr
          52 65 -10 65 25 callgsubr
          hintmask 1110011100000000
          -102 callsubr
          hintmask 1010011010000000
          -101 callsubr
          hintmask 0000100000000000
          54 710 55 callgsubr
          hintmask 0001000000000000
          -36 callsubr
          hintmask 0000100000000000
          24 callgsubr
          hintmask 0001000010000000
          -60 callgsubr
        </CharString>
        <CharString name="Euro">
          -11 62 0 62 98 62 66 62 97 62 0 62 hstemhm
          167 70 243 70 hintmask 01111011
          470 18 rmoveto
          16 95 rlineto
          16 3 -11 13 -16 hhcurveto
          -12 hlineto
          -15 -14 -11 -14 -4 hvcurveto
          -38 -11 -38 -28 -39 hhcurveto
          -40 -24 33 36 -15 hvcurveto
          -12 28 -6 31 -1 32 rrcurveto
          143 hlineto
          11 10 7 10 4 hvcurveto
          8 22 rlineto
          12 5 -10 11 -14 hhcurveto
          -156 hlineto
          2 11 1 11 2 11 6 33 rcurveline
          183 hlineto
          11 11 7 10 4 hvcurveto
          8 22 rlineto
          12 4 -9 11 -14 hhcurveto
          -179 hlineto
          13 31 16 31 21 29 rrcurveto
          35 27 35 33 40 hhcurveto
          39 28 -28 -38 -1 hvcurveto
          -14 -1 10 -11 15 hhcurveto
          12 hlineto
          16 15 13 16 3 hvcurveto
          16 95 rlineto
          hintmask 10110110
          16 3 -11 13 -16 hhcurveto
          -4 hlineto
          -9 -9 -4 -6 -6 hvcurveto
          -13 -13 rlineto
          15 -22 -28 8 -31 hhcurveto
          -63 -58 -44 -54 -42 hvcurveto
          -29 -38 -21 -42 -16 -43 rrcurveto
          -35 hlineto
          -11 -10 -8 -10 -5 hvcurveto
          -6 -16 rlineto
          -14 -6 9 -14 14 hhcurveto
          32 hlineto
          -6 -33 -2 -11 -1 -11 -2 -11 rlinecurve
          -28 hlineto
          -10 -11 -8 -10 -4 hvcurveto
          -6 -16 rlineto
          -14 -6 8 -14 15 hhcurveto
          40 hlineto
          1 -44 7 -41 17 -39 rrcurveto
          -54 23 44 -44 62 hhcurveto
          31 31 8 15 28 hvcurveto
          8 -12 rlineto
          -7 4 8 -4 9 hhcurveto
          3 hlineto
          16 15 13 16 3 hvcurveto
          endchar
        </CharString>
        <CharString name="F">
          0 61 214 187 callgsubr
          hstemhm
          112 69 -56 69 0 69 172 69 0 69 cntrmask 11100000
          hintmask 11101000
          573 27 callsubr
          -381 -104 callsubr
          15 hhcurveto
          33 hlineto
          hintmask 11110110
          -15 callgsubr
          -33 -104 callsubr
          15 hhcurveto
          154 -91 callgsubr
          -52 131 callgsubr
          136 hlineto
          -41 -7 -3 -16 35 hhcurveto
          34 4 22 19 3 hvcurveto
          16 93 80 callgsubr
          -16 -41 -7 hvcurveto
          -136 131 callgsubr
          250 hlineto
          -9 -53 rlineto
          166 callsubr
          hintmask 11100001
          35 4 21 20 3 hvcurveto
          endchar
        </CharString>
        <CharString name="G">
          -11 70 callgsubr
          hintmask 11111000
          -90 callgsubr
          hintmask 00000100
          127 callsubr
          hintmask 00001000
          34 4 22 19 3 hvcurveto
          hintmask 01000100
          69 callgsubr
          endchar
        </CharString>
        <CharString name="Gacute">
          -11 61 159 61 291 149 callsubr
          89 69 229 69 -41 69 hintmask 11100110
          -90 callgsubr
          hintmask 00000001
          127 callsubr
          hintmask 00000010
          34 4 22 19 3 hvcurveto
          hintmask 01000001
          69 callgsubr
          hintmask 00011000
          -38 532 -103 callgsubr
        </CharString>
        <CharString name="Gamma">
          166 callgsubr
          150 callsubr
          232 69 vstem
          571 27 callsubr
          -376 -93 callgsubr
          37 132 callgsubr
          -37 -93 callgsubr
          162 hlineto
          14 171 callsubr
          31 -66 callsubr
          -56 88 callgsubr
          241 hlineto
          -9 -53 rlineto
          166 callsubr
          35 4 21 20 3 hvcurveto
          endchar
        </CharString>
        <CharString name="Gbreve">
          -11 114 callgsubr
          51 203 callsubr
          89 69 229 69 -41 69 hintmask 11100110
          -90 callgsubr
          hintmask 00000001
          127 callsubr
          hintmask 00000010
          34 4 22 19 3 hvcurveto
          hintmask 01000001
          69 callgsubr
          hintmask 00011000
          29 515 -82 callgsubr
        </CharString>
        <CharString name="Gcaron">
          -11 70 callgsubr
          hintmask 11111000
          -90 callgsubr
          hintmask 00000100
          127 callsubr
          hintmask 00001000
          34 4 22 19 3 hvcurveto
          hintmask 01000100
          69 callgsubr
          hintmask 00000000
          -28 468 -70 callsubr
        </CharString>
        <CharString name="Gcedilla">
          80 callsubr
          22 70 callgsubr
          hintmask 00111110
          -90 callgsubr
          hintmask 00000001
          127 callsubr
          hintmask 00000010
          34 4 22 19 3 hvcurveto
          hintmask 11010001
          69 callgsubr
          -229 -348 -99 callsubr
        </CharString>
        <CharString name="Gcircumflex">
          -11 70 callgsubr
          hintmask 11111000
          -90 callgsubr
          hintmask 00000100
          127 callsubr
          hintmask 00001000
          34 4 22 19 3 hvcurveto
          hintmask 01000100
          69 callgsubr
          hintmask 00000000
          -25 481 rmoveto
          -111 43 -5 2 -7 0 -7 -96 callgsubr
          endchar
        </CharString>
        <CharString name="Gcommaaccent">
          80 callsubr
          22 70 callgsubr
          hintmask 00111110
          -90 callgsubr
          hintmask 00000001
          127 callsubr
          hintmask 00000010
          34 4 22 19 3 hvcurveto
          hintmask 00010001
          69 callgsubr
          hintmask 11000000
          -229 -348 -99 callsubr
        </CharString>
        <CharString name="Gdotaccent">
          -11 114 callgsubr
          52 100 hstemhm
          89 69 176 100 -47 69 -41 69 hintmask 11101010
          -90 callgsubr
          hintmask 00000001
          127 callsubr
          hintmask 00000010
          34 4 22 19 3 hvcurveto
          hintmask 01000001
          69 callgsubr
          hintmask 00010100
          -102 484 -70 callgsubr
          endchar
        </CharString>
        <CharString name="H">
          -62 callsubr
          endchar
        </CharString>
        <CharString name="H_uni0303">
          139 callgsubr
          52 65 -10 65 170 callgsubr
          -44 69 -59 69 95 69 13 69 hintmask 1110000011100000
          -51 callsubr
          hintmask 0010001000000000
          209 callsubr
          hintmask 0010000100000000
          28 callgsubr
          hintmask 0010000010000000
          -72 callsubr
          -119 -93 callgsubr
          hintmask 1010011000000000
          -77 callgsubr
          hintmask 1100000101000000
          38 226 rlineto
          212 hlineto
          -38 -226 -51 callgsubr
          119 -53 callgsubr
          hintmask 0000100000000000
          56 721 55 callgsubr
          hintmask 0001000000000000
          -36 callsubr
          hintmask 0000100100000000
          24 callgsubr
          hintmask 0001000000000000
          -60 callgsubr
        </CharString>
        <CharString name="Hbar">
          0 177 callgsubr
          79 62 0 61 0 61 hstemhm
          97 69 -8 69 -58 69 -59 69 -44 69 -59 69 95 69 -8 69 -58 69 -59 69 hintmask 1000000000010000
          507 30 -32 callsubr
          -25 hlineto
          hintmask 0010000000001000
          61 366 rlineto
          30 hlineto
          17 17 14 17 2 hvcurveto
          17 3 -11 14 -17 hhcurveto
          hintmask 0010000000000100
          -30 hlineto
          hintmask 0001000000000010
          10 61 55 callsubr
          hintmask 0000100000000010
          -72 callsubr
          -119 14 callgsubr
          hintmask 0010000100000100
          -10 -61 rlineto
          -212 hlineto
          hintmask 0001000010000000
          10 61 rlineto
          hintmask 0001000001000000
          28 callgsubr
          hintmask 0000100000100000
          -72 callsubr
          -119 -93 callgsubr
          hintmask 0001000010000000
          25 hlineto
          hintmask 0010000100000000
          -10 -61 rlineto
          -30 hlineto
          -17 -17 -14 -17 -3 hvcurveto
          -17 -2 11 -14 17 hhcurveto
          hintmask 0010001000000000
          30 hlineto
          hintmask 1100010001010000
          -61 -366 rlineto
          -25 -93 callgsubr
          119 -57 callsubr
          38 226 rlineto
          212 hlineto
          -38 -226 -51 callgsubr
          119 -53 callgsubr
          -81 318 rmoveto
          hintmask 0100000000100000
          -212 hlineto
          hintmask 0110001000001000
          13 79 rlineto
          212 hlineto
          endchar
        </CharString>
        <CharString name="Hbrevebelow">
          -206 64 49 -20 113 148 callsubr
          170 callgsubr
          -44 69 -59 69 95 69 13 69 hintmask 0011100011100000
          -51 callsubr
          hintmask 0000101000000000
          209 callsubr
          hintmask 0000100100000000
          28 callgsubr
          hintmask 0000100010000000
          -72 callsubr
          -119 -93 callgsubr
          hintmask 0010111000000000
          -77 callgsubr
          hintmask 0011000101000000
          38 226 rlineto
          212 hlineto
          -38 -226 -51 callgsubr
          119 -53 callgsubr
          hintmask 1100000000000000
          -89 -154 0 callsubr
        </CharString>
        <CharString name="Hcircumflex">
          -62 callsubr
          hintmask 0000000000000000
          4 691 rmoveto
          -111 43 -5 2 -7 0 -7 -96 callgsubr
          endchar
        </CharString>
        <CharString name="Hdieresis">
          139 callgsubr
          52 90 170 callgsubr
          -44 69 -59 69 -45 90 50 69 -14 90 -63 69 hintmask 1110000101010000
          -51 callsubr
          hintmask 0010010000000000
          209 callsubr
          hintmask 0010001000000000
          28 callgsubr
          hintmask 0010000100000000
          -72 callsubr
          -119 -93 callgsubr
          hintmask 1010110000000000
          -77 callgsubr
          hintmask 1100001001000000
          38 226 rlineto
          212 hlineto
          -38 -226 -51 callgsubr
          119 -53 callgsubr
          hintmask 0001000010100000
          -179 678 -78 callsubr
          endchar
        </CharString>
        <CharString name="Hdotbelow">
          -200 100 100 148 callsubr
          170 callgsubr
          -60 100 -84 69 -59 69 95 69 13 69 hintmask 0111000011100000
          -51 callsubr
          hintmask 0001010000000000
          209 callsubr
          hintmask 0001000100000000
          28 callgsubr
          hintmask 0001000010000000
          -72 callsubr
          -119 -93 callgsubr
          hintmask 0101110000000000
          -77 callgsubr
          hintmask 0110000101000000
          38 226 rlineto
          212 hlineto
          -38 -226 -51 callgsubr
          119 -53 callgsubr
          hintmask 1000001000000000
          -219 -180 -96 callsubr
          endchar
        </CharString>
        <CharString name="I">
          166 callgsubr
          238 69 13 69 vstem
          -99 callgsubr
          endchar
        </CharString>
        <CharString name="Iacute">
          -3 callgsubr
          83 -21 134 31 callgsubr
          hintmask 00110000
          47 742 -103 callgsubr
        </CharString>
        <CharString name="Ibreve">
          -3 callgsubr
          62 64 49 31 callgsubr
          hintmask 00110000
          114 725 -82 callgsubr
        </CharString>
        <CharString name="Icaron">
          0 61 489 61 108 callsubr
          vstemhm
          -99 callgsubr
          57 678 -70 callsubr
        </CharString>
        <CharString name="Icircumflex">
          0 61 489 61 108 callsubr
          vstemhm
          -99 callgsubr
          60 691 rmoveto
          -111 43 -5 2 -7 0 -7 -96 callgsubr
          endchar
        </CharString>
        <CharString name="Idblgrave">
          0 61 489 61 108 callsubr
          vstemhm
          -99 callgsubr
          87 655 rmoveto
          -76 callgsubr
          66 -70 rcurveline
          12 -13 23 1 15 15 rrcurveto
          -194 hmoveto
          -76 callgsubr
          66 -70 rcurveline
          12 -13 23 1 15 15 rrcurveto
          endchar
        </CharString>
        <CharString name="Idieresis">
          -3 callgsubr
          52 90 hstemhm
          238 69 -69 90 -8 69 44 90 hintmask 11010100
          -99 callgsubr
          hintmask 00110000
          -123 678 100 callsubr
          hintmask 00101010
          50 callsubr
        </CharString>
        <CharString name="Idieresisacute">
          -3 callgsubr
          52 90 82 87 callsubr
          238 69 -69 90 -8 69 44 90 hintmask 1100010100000000
          -99 callgsubr
          hintmask 0010010000000000
          -123 678 100 callsubr
          hintmask 0011101010000000
          -6 callgsubr
          195 -59 callsubr
          -1 205 -103 callgsubr
        </CharString>
        <CharString name="Idotaccent">
          -3 callgsubr
          63 100 108 callsubr
          -55 100 hintmask 11011000
          -99 callgsubr
          hintmask 00100100
          -17 694 -70 callgsubr
          endchar
        </CharString>
        <CharString name="Idotbelow">
          174 callgsubr
          13 69 hintmask 01101100
          -99 callgsubr
          hintmask 10010000
          -163 -180 -96 callsubr
          endchar
        </CharString>
        <CharString name="Igrave">
          -3 callgsubr
          83 -21 134 31 callgsubr
          hintmask 00111000
          36 683 -75 callsubr
        </CharString>
        <CharString name="Ihookabove">
          -3 callgsubr
          84 -21 230 31 callgsubr
          hintmask 00111000
          47 794 -106 callgsubr
        </CharString>
        <CharString name="Imacron">
          -3 callgsubr
          72 63 108 callsubr
          hintmask 11011000
          -99 callgsubr
          hintmask 00110000
          120 684 -71 callgsubr
        </CharString>
        <CharString name="Imacron.alt">
          -3 callgsubr
          72 63 108 callsubr
          hintmask 11011000
          -99 callgsubr
          hintmask 00100000
          32 684 103 callsubr
        </CharString>
        <CharString name="Iogonek">
          -203 54 149 -3 callsubr
          hstemhm
          238 69 -56 69 0 69 hintmask 11110100
          17 callsubr
          hintmask 11001000
          120 callgsubr
          endchar
        </CharString>
        <CharString name="Iogonekacute">
          -203 54 149 -3 callsubr
          83 87 callsubr
          238 69 -56 69 0 69 hintmask 11100101
          17 callsubr
          hintmask 11000010
          120 callgsubr
          hintmask 00011000
          47 742 -103 callgsubr
        </CharString>
        <CharString name="Iota">
          166 callgsubr
          238 69 13 69 vstem
          -99 callgsubr
          endchar
        </CharString>
        <CharString name="Itilde">
          -3 callgsubr
          52 65 -10 65 -11 callsubr
          hintmask 00010000
          112 721 -87 callgsubr
        </CharString>
        <CharString name="J">
          132 callsubr
          hstemhm
          88 89 184 69 0 69 hintmask 11110000
          -31 callsubr
          hintmask 01001000
          70 416 rlineto
          30 hlineto
          16 25 -14 callsubr
          endchar
        </CharString>
        <CharString name="J_uni030C.cap">
          -11 61 384 -21 104 94 -61 61 hstemhm
          88 89 184 69 0 69 hintmask 10011100
          -31 callsubr
          hintmask 00010010
          70 416 rlineto
          30 hlineto
          16 25 -14 callsubr
          156 -45 106 callgsubr
          hintmask 01100000
          17 callgsubr
        </CharString>
        <CharString name="Jacute">
          132 callsubr
          83 87 callsubr
          88 89 184 69 0 69 hintmask 11001100
          -31 callsubr
          hintmask 01000010
          70 416 rlineto
          30 hlineto
          16 25 -14 callsubr
          hintmask 00110100
          8 191 -103 callgsubr
        </CharString>
        <CharString name="Jcircumflex">
          132 callsubr
          hstemhm
          88 89 184 69 0 69 hintmask 11110000
          -31 callsubr
          hintmask 01001000
          70 416 rlineto
          30 hlineto
          16 25 -14 callsubr
          hintmask 00000000
          21 140 rmoveto
          -111 43 -5 2 -7 0 -7 -96 callgsubr
          endchar
        </CharString>
        <CharString name="K">
          -16 callsubr
        </CharString>
        <CharString name="Kappa">
          -16 callsubr
        </CharString>
        <CharString name="Kcedilla">
          -6 callsubr
          hintmask 1110010010000000
          25 callsubr
          -193 -138 -99 callsubr
        </CharString>
        <CharString name="Kcommaaccent">
          -6 callsubr
          hintmask 0010010010000000
          25 callsubr
          hintmask 1100000000000000
          -193 -138 -99 callsubr
        </CharString>
        <CharString name="L">
          0 61 489 61 206 callgsubr
          hintmask 11110100
          -33 callsubr
          hintmask 11111000
          -65 callsubr
          endchar
        </CharString>
        <CharString name="L_uni0303">
          -3 callgsubr
          52 65 -10 65 206 callgsubr
          hintmask 11001101
          -33 callsubr
          hintmask 11001110
          -65 callsubr
          hintmask 00010000
          -51 710 -87 callgsubr
        </CharString>
        <CharString name="Lacute">
          -3 callgsubr
          83 -21 134 -20 206 callgsubr
          hintmask 11001101
          -33 callsubr
          hintmask 11001110
          -65 callsubr
          hintmask 00110000
          -116 731 -103 callgsubr
        </CharString>
        <CharString name="Lambda">
          0 61 477 85 hstem
          34 190 86 190 vstem
          167 callsubr
          -21 0 -36 hhcurveto
          -33 525 rlineto
          37 -3 -20 0 -21 hhcurveto
          -10 hlineto
          -20 -21 0 -34 -14 hvcurveto
          -210 -528 rlineto
          -36 201 callgsubr
          26 -34 callsubr
          108 42 callsubr
          -21 hlineto
          130 331 20 50 24 61 10 35 rlinecurve
          1 hlineto
          -1 -28 2 -26 1 -32 23 -391 rcurveline
          -21 hlineto
          -15 39 callgsubr
          164 callsubr
          endchar
        </CharString>
        <CharString name="Lcaron">
          0 61 373 -21 104 94 -61 61 206 callgsubr
          hintmask 10011101
          -33 callsubr
          hintmask 10011110
          -65 callsubr
          52 495 106 callgsubr
          hintmask 01100000
          17 callgsubr
        </CharString>
        <CharString name="Lcedilla">
          70 callsubr
          150 callsubr
          102 69 0 69 hintmask 00111101
          -33 callsubr
          hintmask 11111110
          -65 callsubr
          -188 -149 -99 callsubr
        </CharString>
        <CharString name="Lcommaaccent">
          70 callsubr
          150 callsubr
          102 69 0 69 hintmask 00111101
          -33 callsubr
          hintmask 00111110
          -65 callsubr
          hintmask 11000000
          -188 -149 -99 callsubr
        </CharString>
        <CharString name="Ldot">
          0 61 206 100 183 61 hstemhm
          150 callsubr
          102 69 -32 100 -68 69 hintmask 10111001
          -33 callsubr
          hintmask 11111100
          -65 callsubr
          14 276 rmoveto
          28 5 -19 22 -28 hhcurveto
          hintmask 01000010
          145 callsubr
        </CharString>
        <CharString name="Ldotbelow">
          75 callgsubr
          hstemhm
          119 69 0 100 -87 69 102 69 0 69 hintmask 01110101
          -33 callsubr
          hintmask 01110110
          -65 callsubr
          hintmask 10010000
          137 callsubr
          hintmask 00001000
          -22 callsubr
          endchar
        </CharString>
        <CharString name="Ldotbelowmacron">
          75 callgsubr
          72 63 hstemhm
          119 69 0 100 -87 69 102 69 0 69 hintmask 0110101010000000
          -33 callsubr
          hintmask 1110101100000000
          -65 callsubr
          137 callsubr
          hintmask 0000010000000000
          -22 callsubr
          hintmask 0001000000000000
          174 864 -71 callgsubr
        </CharString>
        <CharString name="Lslash">
          0 61 489 61 206 callgsubr
          hintmask 11110100
          495 115 callgsubr
          20 3 4 21 177 callsubr
          -20 -21 144 callgsubr
          -241 hlineto
          42 248 224 136 161 callgsubr
          -189 -115 rcurveline
          29 170 rlineto
          56 hlineto
          hintmask 11111000
          14 171 callsubr
          31 -66 callsubr
          -162 -93 callgsubr
          37 hlineto
          -36 -217 -76 -47 199 callgsubr
          17 -4 16 10 39 24 rcurveline
          -34 -201 rlineto
          -37 -93 callgsubr
          376 134 callsubr
        </CharString>
        <CharString name="M">
          0 200 callsubr
          hstem
          296 56 0 56 0 56 cntrmask 00011100
          -55 callsubr
          endchar
        </CharString>
        <CharString name="Mdotbelow">
          -200 100 100 200 callsubr
          hstemhm
          80 56 23 56 -27 100 8 56 56 56 49 56 hintmask 0111110111000000
          -55 callsubr
          hintmask 1000001000000000
          -224 -180 -96 callsubr
          endchar
        </CharString>
        <CharString name="Mu">
          0 200 callsubr
          hstem
          80 56 23 56 81 56 56 56 49 56 vstem
          -55 callsubr
          endchar
        </CharString>
        <CharString name="N">
          166 callgsubr
          170 callsubr
          vstem
          -95 callgsubr
          endchar
        </CharString>
        <CharString name="Nacute">
          -3 callgsubr
          83 87 callsubr
          170 callsubr
          hintmask 11001100
          -95 callgsubr
          hintmask 00110000
          -95 192 -103 callgsubr
        </CharString>
        <CharString name="Ncaron">
          72 callgsubr
          170 callsubr
          vstemhm
          -95 callgsubr
          -85 128 -70 callsubr
        </CharString>
        <CharString name="Ncedilla">
          79 callsubr
          hstem
          170 callsubr
          vstem
          -95 callgsubr
          -286 -688 -99 callsubr
        </CharString>
        <CharString name="Ncommaaccent">
          70 callsubr
          170 callsubr
          hintmask 00111100
          -95 callgsubr
          hintmask 11000000
          -286 -688 -99 callsubr
        </CharString>
        <CharString name="Ndotaccent">
          -3 callgsubr
          52 100 hstemhm
          103 56 173 100 35 56 hintmask 11010100
          -95 callgsubr
          hintmask 00101000
          -161 133 -70 callgsubr
          endchar
        </CharString>
        <CharString name="Ndotbelow">
          75 callgsubr
          hstemhm
          103 56 29 100 179 56 hintmask 01110100
          -95 callgsubr
          hintmask 10001000
          -305 -730 -96 callsubr
          endchar
        </CharString>
        <CharString name="Ntilde">
          -3 callgsubr
          52 140 callgsubr
          170 callsubr
          hintmask 11001100
          -95 callgsubr
          hintmask 00010000
          -30 171 -87 callgsubr
        </CharString>
        <CharString name="Nu">
          166 callgsubr
          170 callsubr
          vstem
          -95 callgsubr
          endchar
        </CharString>
        <CharString name="O">
          54 callgsubr
          hstem
          -105 callsubr
          endchar
        </CharString>
        <CharString name="OE">
          -26 callgsubr
        </CharString>
        <CharString name="OE.dup">
          -26 callgsubr
        </CharString>
        <CharString name="Oacute">
          -11 61 511 61 72 -21 134 -19 callsubr
          47 458 -103 callgsubr
        </CharString>
        <CharString name="Obreve">
          54 callgsubr
          51 64 49 -19 callsubr
          114 441 -82 callgsubr
        </CharString>
        <CharString name="Ocaron">
          128 callsubr
          -105 callsubr
          57 394 -70 callsubr
        </CharString>
        <CharString name="Ocircumflex">
          128 callsubr
          -105 callsubr
          60 407 rmoveto
          -111 43 -5 2 -7 0 -7 -96 callgsubr
          endchar
        </CharString>
        <CharString name="Ocircumflexacute">
          54 callgsubr
          297 -58 callsubr
          hintmask 00100000
          60 407 -38 callsubr
        </CharString>
        <CharString name="Ocircumflexdotbelow">
          -200 100 89 61 511 171 callgsubr
          hintmask 01100000
          -105 callsubr
          60 407 rmoveto
          -111 43 -5 2 -7 0 -7 -96 callgsubr
          hintmask 10010000
          -223 -871 -96 callsubr
          endchar
        </CharString>
        <CharString name="Ocircumflexgrave">
          128 callsubr
          -105 callsubr
          60 407 -35 callsubr
        </CharString>
        <CharString name="Ocircumflexhookabove">
          54 callgsubr
          373 -58 callsubr
          hintmask 00100000
          60 407 rmoveto
          -111 43 -5 2 -7 0 -7 -96 callgsubr
          101 194 -106 callgsubr
        </CharString>
        <CharString name="Ocircumflextilde">
          54 callgsubr
          183 65 -10 65 -80 callgsubr
          hintmask 00010000
          60 407 rmoveto
          -111 43 -5 2 -7 0 -7 -96 callgsubr
          76 172 84 callgsubr
          hintmask 00100000
          74 callsubr
          hintmask 00010000
          34 callgsubr
          hintmask 00100000
          38 callsubr
          hintmask 00010000
          28 35 28 16 14 hhcurveto
          10 7 -30 callsubr
        </CharString>
        <CharString name="Odblgrave">
          128 callsubr
          -105 callsubr
          87 371 rmoveto
          -76 callgsubr
          66 -70 rcurveline
          12 -13 23 1 15 15 rrcurveto
          -194 hmoveto
          -76 callgsubr
          66 -70 rcurveline
          12 -13 23 1 15 15 rrcurveto
          endchar
        </CharString>
        <CharString name="Odieresis">
          54 callgsubr
          41 90 hstemhm
          238 90 105 90 hintmask 11000000
          -105 callsubr
          hintmask 00111000
          -123 394 -78 callsubr
          endchar
        </CharString>
        <CharString name="Odotbelow">
          -200 100 89 61 511 171 callgsubr
          hintmask 01100000
          -105 callsubr
          hintmask 10010000
          -163 -464 -96 callsubr
          endchar
        </CharString>
        <CharString name="Ograve">
          -11 61 511 61 72 -21 134 -19 callsubr
          36 399 -75 callsubr
        </CharString>
        <CharString name="Ohookabove">
          54 callgsubr
          73 -21 230 -19 callsubr
          47 510 -106 callgsubr
        </CharString>
        <CharString name="Ohorn">
          54 callgsubr
          89 -20 hstem
          365 98 vstem
          -84 callgsubr
          endchar
        </CharString>
        <CharString name="Ohornacute">
          54 callgsubr
          72 -21 38 -20 116 -20 hstemhm
          365 98 hintmask 11010100
          -84 callgsubr
          hintmask 00101000
          19 454 -103 callgsubr
        </CharString>
        <CharString name="Ohorndotbelow">
          -200 100 89 98 callsubr
          89 -20 196 callgsubr
          77 98 hintmask 01110100
          -84 callgsubr
          hintmask 10001000
          -162 -468 -96 callsubr
          endchar
        </CharString>
        <CharString name="Ohorngrave">
          54 callgsubr
          72 -21 38 -20 116 -20 hstemhm
          365 98 hintmask 11010100
          -84 callgsubr
          hintmask 00101000
          8 395 -75 callsubr
        </CharString>
        <CharString name="Ohornhookabove">
          54 callgsubr
          73 -21 37 -20 213 -20 hstemhm
          365 98 hintmask 11010100
          -84 callgsubr
          hintmask 00101000
          48 506 -106 callgsubr
        </CharString>
        <CharString name="Ohorntilde">
          54 callgsubr
          41 140 callgsubr
          365 98 hintmask 11001000
          -84 callgsubr
          hintmask 00010000
          84 433 -87 callgsubr
        </CharString>
        <CharString name="Ohungarumlaut">
          128 callsubr
          -105 callsubr
          -87 487 rmoveto
          -25 callgsubr
          194 hmoveto
          -25 callgsubr
          endchar
        </CharString>
        <CharString name="Omacron">
          54 callgsubr
          61 63 -80 callgsubr
          hintmask 00100000
          120 400 -71 callgsubr
        </CharString>
        <CharString name="Omega">
          -9 callgsubr
        </CharString>
        <CharString name="Omicron">
          54 callgsubr
          hstem
          -105 callsubr
          endchar
        </CharString>
        <CharString name="Oogonek">
          54 callgsubr
          hstem
          519 305 rmoveto
          289 48 -16 28 -185 hhcurveto
          -185 -26 -27 -290 -48 hvcurveto
          -45 -270 11 -41 152 -5 -32 -25 -28 -36 -6 -36 -56 callgsubr
          6 40 25 36 33 23 165 3 26 36 46 277 rrcurveto
          -68 9 rmoveto
          -10 -62 -12 -71 -20 -54 rrcurveto
          -56 -20 -30 -21 -89 hhcurveto
          -88 -21 21 50 -4 hvcurveto
          -3 51 14 87 9 55 11 62 11 68 19 46 rrcurveto
          59 23 33 12 82 hhcurveto
          75 33 -9 -55 6 hvcurveto
          4 -47 -12 -75 -11 -61 rrcurveto
          endchar
        </CharString>
        <CharString name="Oogonekacute">
          124 callsubr
          hintmask 11000000
          519 305 rmoveto
          289 48 -16 28 -185 hhcurveto
          -185 -26 -27 -290 -48 hvcurveto
          -45 -270 11 -41 152 -5 -32 -25 -28 -36 -6 -36 -56 callgsubr
          6 40 25 36 33 23 165 3 26 36 46 277 rrcurveto
          -68 9 rmoveto
          -10 -62 -12 -71 -20 -54 rrcurveto
          -56 -20 -30 -21 -89 hhcurveto
          -88 -21 21 50 -4 hvcurveto
          -3 51 14 87 9 55 11 62 11 68 19 46 rrcurveto
          59 23 33 12 82 hhcurveto
          75 33 -9 -55 6 hvcurveto
          4 -47 -12 -75 -11 -61 rrcurveto
          hintmask 00110000
          47 458 -103 callgsubr
        </CharString>
        <CharString name="Orogate">
          519 305 rmoveto
          45 272 -12 41 -155 4 20 122 rcurveline
          17 -14 14 -17 -15 -13 -12 -14 -3 vhcurveto
          -21 -127 -156 -4 -26 -40 -45 -273 rlinecurve
          -45 -272 11 -40 156 -4 -20 -121 197 callgsubr
          21 127 155 4 27 40 45 272 rlinecurve
          -68 9 rmoveto
          -10 -62 -12 -71 -20 -54 rrcurveto
          -56 -20 -30 -21 -89 hhcurveto
          -88 -21 21 50 -4 hvcurveto
          -3 51 14 87 9 55 11 62 11 68 19 46 rrcurveto
          59 23 33 12 82 hhcurveto
          75 33 -9 -55 6 hvcurveto
          4 -47 -12 -75 -11 -61 rrcurveto
          endchar
        </CharString>
        <CharString name="Oslash">
          54 callgsubr
          hstem
          107 56 300 56 vstem
          -55 callgsubr
          endchar
        </CharString>
        <CharString name="Oslash.dup">
          54 callgsubr
          hstem
          107 56 300 56 vstem
          -55 callgsubr
          endchar
        </CharString>
        <CharString name="Oslashacute">
          124 callsubr
          107 56 300 56 hintmask 11001100
          -55 callgsubr
          hintmask 00110000
          80 214 -103 callgsubr
        </CharString>
        <CharString name="Otilde">
          54 callgsubr
          41 65 -10 65 -80 callgsubr
          hintmask 00010000
          112 437 -87 callgsubr
        </CharString>
        <CharString name="P">
          11 callsubr
        </CharString>
        <CharString name="Phi">
          0 61 94 61 179 61 94 61 hstem
          238 69 -28 69 -28 69 cntrmask 00001110
          535 305 rmoveto
          12 75 -68 65 -106 11 16 94 rcurveline
          41 -52 callsubr
          31 -66 callsubr
          -151 -102 callgsubr
          41 hlineto
          -16 -94 -113 -11 -88 -67 -12 -72 rlinecurve
          -13 -76 71 -65 105 -10 -16 -94 rcurveline
          -41 -102 callgsubr
          151 -52 callsubr
          31 -66 callsubr
          -41 hlineto
          16 94 113 12 87 67 12 71 rlinecurve
          -69 1 rmoveto
          -8 -47 -61 -34 -64 -9 30 179 rcurveline
          65 -9 45 -37 -7 -43 rrcurveto
          -202 -90 rmoveto
          -70 10 -41 38 7 41 7 44 57 37 70 9 rrcurveto
          endchar
        </CharString>
        <CharString name="Pi">
          166 callgsubr
          97 69 13 69 130 69 13 69 vstem
          -22 callgsubr
          -400 -68 callgsubr
          82 489 rlineto
          212 hlineto
          -82 -489 -51 callgsubr
          119 -53 callgsubr
          endchar
        </CharString>
        <CharString name="Psi">
          0 61 361 61 67 61 hstemhm
          134 69 35 69 -53 69 -58 69 -14 69 hintmask 01000010
          561 452 rmoveto
          31 6 -26 0 -10 hhcurveto
          -71 -15 -74 -39 -6 hvcurveto
          -9 -55 -22 -74 -74 -22 rrcurveto
          hintmask 00100001
          55 331 rlineto
          35 42 callsubr
          -139 -104 callsubr
          15 hhcurveto
          35 hlineto
          hintmask 01010010
          -55 -331 -68 21 2 71 10 60 rlinecurve
          51 8 3 61 -65 hhcurveto
          -10 -26 0 -31 -6 hvcurveto
          -4 -24 18 -4 7 -2 13 -3 -5 -34 -4 -27 rrcurveto
          hintmask 00000100
          -12 -75 11 -106 117 -21 rrcurveto
          hintmask 10011000
          -16 -95 rlineto
          -35 -104 callsubr
          15 hhcurveto
          139 42 callsubr
          -35 hlineto
          hintmask 01000100
          16 95 125 21 44 103 15 88 rlinecurve
          3 14 6 37 14 3 9 2 18 4 4 24 rrcurveto
          endchar
        </CharString>
        <CharString name="Q">
          128 callsubr
          107 69 121 69 0 69 15 69 hintmask 11101100
          519 305 rmoveto
          289 48 -16 28 -185 hhcurveto
          -185 -26 -27 -290 -48 hvcurveto
          -289 -48 16 -27 185 hhcurveto
          13 32 0 1 11 hvcurveto
          42 -117 rlineto
          -12 6 11 0 16 hhcurveto
          9 hlineto
          15 17 0 19 3 hvcurveto
          1 6 -14 36 -7 22 -6 13 -13 34 -4 13 47 18 24 35 22 81 15 54 11 67 8 46 rrcurveto
          -69 1 rmoveto
          -35 -209 -22 -14 -25 -15 -33 87 rcurveline
          15 -7 0 1 -20 hhcurveto
          hintmask 11110100
          -11 hlineto
          -14 -18 0 -19 -4 hvcurveto
          -5 0 -3 2 -5 vhcurveto
          31 -89 rlineto
          -32 hlineto
          -90 -15 28 54 -1 hvcurveto
          51 11 68 9 54 vhcurveto
          136 callsubr
          endchar
        </CharString>
        <CharString name="R">
          0 61 214 187 callgsubr
          170 callgsubr
          114 69 -67 69 5 69 -38 69 cntrmask 1110000000000000
          hintmask 1110010010000000
          538 93 rmoveto
          32 -10 callsubr
          -11 hhcurveto
          -10 -23 0 -30 -6 hvcurveto
          -8 -1 -9 -37 -17 hhcurveto
          -28 8 46 53 9 hvcurveto
          hintmask 1111101100000000
          -87 callsubr
          hintmask 1110010000000000
          -11 -65 -5 -30 14 -32 rrcurveto
          hintmask 1110101010000000
          -30 12 25 -16 34 hhcurveto
          63 35 66 38 7 hvcurveto
          -100 350 rmoveto
          -49 -8 -55 -58 -91 hhcurveto
          -72 131 callgsubr
          72 hlineto
          hintmask 1110000100000000
          92 34 -59 -48 -8 hvcurveto
          endchar
        </CharString>
        <CharString name="Racute">
          0 61 214 187 callgsubr
          170 callgsubr
          114 69 -67 69 5 69 -38 69 cntrmask 1110000000000000
          hintmask 1110010010000000
          538 93 rmoveto
          32 -10 callsubr
          -11 hhcurveto
          -10 -23 0 -30 -6 hvcurveto
          -8 -1 -9 -37 -17 hhcurveto
          -28 8 46 53 9 hvcurveto
          hintmask 1111101100000000
          -87 callsubr
          hintmask 1110010000000000
          -11 -65 -5 -30 14 -32 rrcurveto
          hintmask 1110101010000000
          -30 12 25 -16 34 hhcurveto
          63 35 66 38 7 hvcurveto
          -100 350 rmoveto
          -49 -8 -55 -58 -91 hhcurveto
          -72 131 callgsubr
          72 hlineto
          hintmask 1110000100000000
          92 34 -59 -48 -8 hvcurveto
          hintmask 1110000000000000
          60 329 -103 callgsubr
        </CharString>
        <CharString name="Rcaron">
          0 61 214 187 callgsubr
          170 callgsubr
          114 69 -67 69 5 69 -38 69 cntrmask 1110000000000000
          hintmask 1110010010000000
          538 93 rmoveto
          32 -10 callsubr
          -11 hhcurveto
          -10 -23 0 -30 -6 hvcurveto
          -8 -1 -9 -37 -17 hhcurveto
          -28 8 46 53 9 hvcurveto
          hintmask 1111101100000000
          -87 callsubr
          hintmask 1110010000000000
          -11 -65 -5 -30 14 -32 rrcurveto
          hintmask 1110101010000000
          -30 12 25 -16 34 hhcurveto
          63 35 66 38 7 hvcurveto
          -100 350 rmoveto
          -49 -8 -55 -58 -91 hhcurveto
          -72 131 callgsubr
          72 hlineto
          hintmask 1110000100000000
          92 34 -59 -48 -8 hvcurveto
          hintmask 1110001000000000
          70 265 -70 callsubr
        </CharString>
        <CharString name="Rcedilla">
          0 61 214 187 callgsubr
          170 callgsubr
          114 69 -67 69 5 69 -38 69 cntrmask 1110000000000000
          hintmask 1110010010000000
          538 93 rmoveto
          32 -10 callsubr
          -11 hhcurveto
          -10 -23 0 -30 -6 hvcurveto
          -8 -1 -9 -37 -17 hhcurveto
          -28 8 46 53 9 hvcurveto
          hintmask 1111101100000000
          -87 callsubr
          hintmask 1110010000000000
          -11 -65 -5 -30 14 -32 rrcurveto
          hintmask 1110101010000000
          -30 12 25 -16 34 hhcurveto
          63 35 66 38 7 hvcurveto
          -100 350 rmoveto
          -49 -8 -55 -58 -91 hhcurveto
          -72 131 callgsubr
          72 hlineto
          hintmask 1110000100000000
          92 34 -59 -48 -8 hvcurveto
          -131 -551 -99 callsubr
        </CharString>
        <CharString name="Rcommaaccent">
          0 61 214 187 callgsubr
          170 callgsubr
          114 69 -67 69 5 69 -38 69 cntrmask 1110000000000000
          hintmask 1110010010000000
          538 93 rmoveto
          32 -10 callsubr
          -11 hhcurveto
          -10 -23 0 -30 -6 hvcurveto
          -8 -1 -9 -37 -17 hhcurveto
          -28 8 46 53 9 hvcurveto
          hintmask 1111101100000000
          -87 callsubr
          hintmask 1110010000000000
          -11 -65 -5 -30 14 -32 rrcurveto
          hintmask 1110101010000000
          -30 12 25 -16 34 hhcurveto
          63 35 66 38 7 hvcurveto
          -100 350 rmoveto
          -49 -8 -55 -58 -91 hhcurveto
          -72 131 callgsubr
          72 hlineto
          hintmask 1110000100000000
          92 34 -59 -48 -8 hvcurveto
          hintmask 1110000000000000
          -131 -551 -99 callsubr
        </CharString>
        <CharString name="Rdblgrave">
          0 61 214 187 callgsubr
          170 callgsubr
          114 69 -67 69 5 69 -38 69 cntrmask 1110000000000000
          hintmask 1110010010000000
          538 93 rmoveto
          32 -10 callsubr
          -11 hhcurveto
          -10 -23 0 -30 -6 hvcurveto
          -8 -1 -9 -37 -17 hhcurveto
          -28 8 46 53 9 hvcurveto
          hintmask 1111101100000000
          -87 callsubr
          hintmask 1110010000000000
          -11 -65 -5 -30 14 -32 rrcurveto
          hintmask 1110101010000000
          -30 12 25 -16 34 hhcurveto
          63 35 66 38 7 hvcurveto
          -100 350 rmoveto
          -49 -8 -55 -58 -91 hhcurveto
          -72 131 callgsubr
          72 hlineto
          hintmask 1110000100000000
          92 34 -59 -48 -8 hvcurveto
          hintmask 1110000000000000
          71 242 rmoveto
          -76 callgsubr
          66 -70 rcurveline
          12 -13 23 1 15 15 rrcurveto
          -194 hmoveto
          -76 callgsubr
          66 -70 rcurveline
          12 -13 23 1 15 15 rrcurveto
          endchar
        </CharString>
        <CharString name="Rdotaccent">
          0 61 214 187 callgsubr
          170 callgsubr
          86 100 -72 69 -67 69 5 69 -38 69 cntrmask 1110000000000000
          hintmask 1110001001000000
          538 93 rmoveto
          32 -10 callsubr
          -11 hhcurveto
          -10 -23 0 -30 -6 hvcurveto
          -8 -1 -9 -37 -17 hhcurveto
          -28 8 46 53 9 hvcurveto
          hintmask 1111100110000000
          -87 callsubr
          hintmask 1110001000000000
          -11 -65 -5 -30 14 -32 rrcurveto
          hintmask 1110100101000000
          -30 12 25 -16 34 hhcurveto
          63 35 66 38 7 hvcurveto
          -100 350 rmoveto
          -49 -8 -55 -58 -91 hhcurveto
          -72 131 callgsubr
          72 hlineto
          hintmask 1110000010000000
          92 34 -59 -48 -8 hvcurveto
          hintmask 1110010000000000
          -4 281 -70 callgsubr
          endchar
        </CharString>
        <CharString name="Rdotbelow">
          0 61 214 187 callgsubr
          170 callgsubr
          -60 100 74 69 -67 69 5 69 -38 69 cntrmask 1110000000000000
          hintmask 1110001001000000
          538 93 rmoveto
          32 -10 callsubr
          -11 hhcurveto
          -10 -23 0 -30 -6 hvcurveto
          -8 -1 -9 -37 -17 hhcurveto
          -28 8 46 53 9 hvcurveto
          hintmask 1111100110000000
          -87 callsubr
          hintmask 1110001000000000
          -11 -65 -5 -30 14 -32 rrcurveto
          hintmask 1110100101000000
          -30 12 25 -16 34 hhcurveto
          63 35 66 38 7 hvcurveto
          -100 350 rmoveto
          -49 -8 -55 -58 -91 hhcurveto
          -72 131 callgsubr
          72 hlineto
          hintmask 1110000010000000
          92 34 -59 -48 -8 hvcurveto
          hintmask 1110010000000000
          -150 -593 -96 callsubr
          endchar
        </CharString>
        <CharString name="Rdotbelowmacron">
          0 61 214 187 callgsubr
          170 callgsubr
          -60 100 74 69 -67 69 5 69 -38 69 cntrmask 1110000000000000
          hintmask 1110001001000000
          538 93 rmoveto
          32 -10 callsubr
          -11 hhcurveto
          -10 -23 0 -30 -6 hvcurveto
          -8 -1 -9 -37 -17 hhcurveto
          -28 8 46 53 9 hvcurveto
          hintmask 1111100110000000
          -87 callsubr
          hintmask 1110001000000000
          -11 -65 -5 -30 14 -32 rrcurveto
          hintmask 1110100101000000
          -30 12 25 -16 34 hhcurveto
          63 35 66 38 7 hvcurveto
          -100 350 rmoveto
          -49 -8 -55 -58 -91 hhcurveto
          -72 131 callgsubr
          72 hlineto
          hintmask 1110010010000000
          92 34 -59 -48 -8 hvcurveto
          -150 -593 -96 callsubr
          hintmask 1110000000000000
          283 864 -71 callgsubr
        </CharString>
        <CharString name="Rho">
          11 callsubr
        </CharString>
        <CharString name="S">
          -11 127 callgsubr
          hintmask 11010000
          -81 callsubr
          hintmask 10100000
          -7 callgsubr
          hintmask 10010000
          34 callsubr
          endchar
        </CharString>
        <CharString name="Sacute">
          124 callsubr
          80 69 -24 69 hintmask 11000100
          -81 callsubr
          hintmask 10001000
          -7 callgsubr
          hintmask 10000100
          34 callsubr
          hintmask 00110000
          -2 606 -103 callgsubr
        </CharString>
        <CharString name="Scaron">
          -11 127 callgsubr
          hintmask 11010000
          -81 callsubr
          hintmask 10100000
          -7 callgsubr
          hintmask 10010000
          34 callsubr
          hintmask 00000000
          8 542 -70 callsubr
        </CharString>
        <CharString name="Scedilla">
          128 callsubr
          80 69 -31 65 -58 69 51 69 -48 65 -5 69 hintmask 11001010
          -81 callsubr
          hintmask 10100000
          -7 callgsubr
          hintmask 00001100
          22 9 14 32 14 hvcurveto
          28 -24 43 -15 49 -5 -4 -26 rcurveline
          hintmask 00000010
          -3 -20 -4 -20 32 -2 rrcurveto
          hintmask 00010101
          44 -2 20 -18 -4 -20 rrcurveto
          -40 -6 -99 0 -38 hhcurveto
          -38 -22 -86 callgsubr
          -23 -4 71 callgsubr
          7 39 -21 44 -68 14 1 11 rcurveline
          100 15 72 79 14 81 rrcurveto
          endchar
        </CharString>
        <CharString name="Scircumflex">
          -11 127 callgsubr
          hintmask 11010000
          -81 callsubr
          hintmask 10100000
          -7 callgsubr
          hintmask 10010000
          34 callsubr
          hintmask 00000000
          11 555 rmoveto
          -111 43 -5 2 -7 0 -7 -96 callgsubr
          endchar
        </CharString>
        <CharString name="Sdotbelow">
          -200 100 89 127 callgsubr
          -6 100 hintmask 01101000
          -81 callsubr
          hintmask 01010000
          -7 callgsubr
          hintmask 01001000
          34 callsubr
          hintmask 10000100
          -212 -316 -96 callsubr
          endchar
        </CharString>
        <CharString name="Sigma">
          0 63 487 61 hstemhm
          434 69 -5 69 hintmask 11100000
          491 41 rmoveto
          12 75 rlineto
          19 4 47 callgsubr
          -3 -21 -20 -4 hvcurveto
          -8 -53 rlineto
          -279 hlineto
          163 220 12 15 0 2 2 12 rlinecurve
          -100 238 rlineto
          283 hlineto
          hintmask 11010000
          -9 -53 rlineto
          -19 -3 -4 -22 34 hhcurveto
          35 4 21 20 3 112 callsubr
          -363 hlineto
          -16 -25 -86 callgsubr
          -1 -5 -1 -6 6 -13 107 -251 rcurveline
          -191 -255 -11 -14 0 -2 -1 -6 rlinecurve
          -28 -5 28 0 13 hhcurveto
          363 134 callsubr
        </CharString>
        <CharString name="T">
          72 callgsubr
          109 69 -9 69 0 69 13 69 123 69 hintmask 01010000
          -10 callgsubr
          hintmask 11101110
          -73 callsubr
          endchar
        </CharString>
        <CharString name="T_uni0303">
          -3 callgsubr
          52 140 callgsubr
          109 69 -9 69 0 69 13 69 123 69 hintmask 0100010000000000
          -10 callgsubr
          hintmask 1100101110000000
          -73 callsubr
          hintmask 0001000010000000
          -18 254 55 callgsubr
          hintmask 0010000000000000
          -36 callsubr
          hintmask 0001000000000000
          13 -11 109 callsubr
          -30 155 callsubr
          -23 -15 -32 -22 -3 -18 rrcurveto
          hintmask 0010000000000000
          62 callsubr
          hintmask 0001000000000000
          -24 callsubr
          hintmask 0010000000000000
          -60 callgsubr
        </CharString>
        <CharString name="T_uni0308">
          -3 callgsubr
          52 90 hstemhm
          109 69 -9 69 0 69 -69 90 -8 69 44 90 -11 69 hintmask 0100100000000000
          -10 callgsubr
          hintmask 1101010101000000
          -73 callsubr
          hintmask 0010100000000000
          -253 211 100 callsubr
          hintmask 0010001010000000
          50 callsubr
        </CharString>
        <CharString name="Tau">
          72 callgsubr
          109 69 -9 69 0 69 13 69 123 69 hintmask 01010000
          -10 callgsubr
          hintmask 11101110
          -73 callsubr
          endchar
        </CharString>
        <CharString name="Tcaron">
          72 callgsubr
          109 69 -9 69 0 69 13 69 123 69 hintmask 01010000
          -10 callgsubr
          hintmask 11101110
          -73 callsubr
          hintmask 00000000
          -73 211 -70 callsubr
        </CharString>
        <CharString name="Tcedilla">
          -211 62 -31 111 69 -3 callsubr
          hstemhm
          109 69 -9 69 0 69 1 69 -57 69 123 69 hintmask 0001010000000000
          -10 callgsubr
          hintmask 0111101010000000
          -12 -73 rlineto
          166 callsubr
          35 4 21 20 3 hvcurveto
          9 53 rlineto
          133 132 callgsubr
          -52 -100 callgsubr
          52 hlineto
          -5 -27 -3 -20 -4 -20 32 -2 rlinecurve
          hintmask 1000000100000000
          44 -2 20 -18 -4 -20 rrcurveto
          -40 -6 -99 0 -38 hhcurveto
          hintmask 0100000000000000
          -38 -22 0 -31 -6 hvcurveto
          hintmask 1010001100000000
          -23 -3 71 callgsubr
          7 39 -21 44 -69 14 2 12 rcurveline
          53 -91 callgsubr
          -52 hlineto
          hintmask 0001000011000000
          64 callsubr
          132 hlineto
          -9 -53 rlineto
          166 callsubr
          35 4 21 20 3 hvcurveto
          endchar
        </CharString>
        <CharString name="Tdotbelow">
          75 callgsubr
          hstemhm
          109 69 -9 69 -50 100 -50 69 13 69 123 69 hintmask 0010100000000000
          -10 callgsubr
          hintmask 0111001110000000
          -73 callsubr
          hintmask 1000010000000000
          -293 -647 -96 callsubr
          endchar
        </CharString>
        <CharString name="Theta">
          -11 61 222 67 222 61 hstem
          107 69 274 69 cntrmask 11100000
          519 305 rmoveto
          289 48 -16 28 -185 hhcurveto
          -185 -26 -27 -290 -48 hvcurveto
          -289 -48 16 -27 185 164 callgsubr
          -69 1 rmoveto
          -9 -56 -13 -77 -18 -48 rrcurveto
          -55 -22 -26 -20 -92 hhcurveto
          -89 -25 17 65 51 11 68 9 54 hvcurveto
          136 callsubr
          -43 -24 rmoveto
          8 47 rlineto
          20 3 4 21 -35 hhcurveto
          -11 -21 0 -31 -7 hvcurveto
          -58 hlineto
          30 3 -20 1 -12 hhcurveto
          -35 -4 -21 -20 -3 hvcurveto
          -8 -47 rlineto
          -20 -3 -4 -21 35 hhcurveto
          11 21 0 31 7 hvcurveto
          58 hlineto
          -30 -3 20 -1 12 hhcurveto
          35 4 21 20 3 hvcurveto
          endchar
        </CharString>
        <CharString name="Thorn">
          0 61 98 177 callgsubr
          43 61 hstem
          532 333 rmoveto
          82 13 -47 92 -121 hhcurveto
          -114 hlineto
          7 43 rlineto
          52 hlineto
          2 1 23 2 5 28 rrcurveto
          30 5 -25 0 -18 hhcurveto
          -138 hlineto
          -18 186 callsubr
          -1 -5 -3 -20 21 -5 rrcurveto
          -1 4 33 0 18 hhcurveto
          -15 callgsubr
          -52 hlineto
          -2 -1 -23 -2 -5 -28 rrcurveto
          -30 -5 25 0 18 hhcurveto
          138 hlineto
          18 -40 callgsubr
          1 5 3 20 -21 5 rrcurveto
          1 -4 -33 0 -18 hhcurveto
          17 98 rlineto
          115 hlineto
          117 81 90 84 14 hvcurveto
          -70 hmoveto
          -47 -8 -50 -66 -99 hhcurveto
          -90 hlineto
          37 226 rlineto
          100 hlineto
          96 21 -70 -43 -7 hvcurveto
          endchar
        </CharString>
        <CharString name="Tlinebelow">
          207 callgsubr
          109 69 -9 69 0 69 13 69 123 69 hintmask 00101000
          -10 callgsubr
          hintmask 01110111
          -73 callsubr
          hintmask 10000000
          -154 -647 -71 callgsubr
        </CharString>
        <CharString name="U">
          132 callsubr
          hstem
          167 69 236 69 vstem
          -105 callgsubr
          endchar
        </CharString>
        <CharString name="U_uni032F">
          -185 -21 49 64 82 129 callgsubr
          85 callsubr
          hintmask 00111100
          -105 callgsubr
          hintmask 11000000
          -207 -756 0 callgsubr
        </CharString>
        <CharString name="Uacute">
          132 callsubr
          83 -21 134 -20 85 callsubr
          hintmask 11001100
          -105 callgsubr
          hintmask 00110000
          -119 191 -103 callgsubr
        </CharString>
        <CharString name="Ubreve">
          132 callsubr
          62 64 49 -20 85 callsubr
          hintmask 11001100
          -105 callgsubr
          hintmask 00110000
          -52 174 -82 callgsubr
        </CharString>
        <CharString name="Ucaron">
          132 callsubr
          85 callsubr
          vstemhm
          -105 callgsubr
          -109 127 -70 callsubr
        </CharString>
        <CharString name="Ucircumflex">
          132 callsubr
          85 callsubr
          vstemhm
          -105 callgsubr
          -106 140 rmoveto
          -111 43 -5 2 -7 0 -7 -96 callgsubr
          endchar
        </CharString>
        <CharString name="Udblgrave">
          132 callsubr
          85 callsubr
          vstemhm
          -105 callgsubr
          -79 104 rmoveto
          -76 callgsubr
          66 -70 rcurveline
          12 -13 23 1 15 15 rrcurveto
          -194 hmoveto
          -76 callgsubr
          66 -70 rcurveline
          12 -13 23 1 15 15 rrcurveto
          endchar
        </CharString>
        <CharString name="Udieresis">
          132 callsubr
          52 90 134 callgsubr
          hintmask 11010010
          -105 callgsubr
          hintmask 00101100
          16 callsubr
          endchar
        </CharString>
        <CharString name="Udieresisacute">
          132 callsubr
          52 90 82 -21 134 -20 134 callgsubr
          hintmask 1100010010000000
          -105 callgsubr
          hintmask 0011101100000000
          16 callsubr
          -1 205 -103 callgsubr
        </CharString>
        <CharString name="Udieresiscaron">
          132 callsubr
          52 90 134 callgsubr
          hintmask 11010010
          -105 callgsubr
          hintmask 00101100
          16 callsubr
          9 141 -70 callsubr
        </CharString>
        <CharString name="Udieresisgrave">
          132 callsubr
          52 90 82 -21 134 -20 134 callgsubr
          hintmask 1100010010000000
          -105 callgsubr
          hintmask 0011101100000000
          16 callsubr
          -12 146 -75 callsubr
        </CharString>
        <CharString name="Udotbelow">
          -200 100 89 129 callgsubr
          hstemhm
          167 69 -48 100 184 69 hintmask 01110100
          -105 callgsubr
          hintmask 10001000
          -329 -731 -96 callsubr
          endchar
        </CharString>
        <CharString name="Ugrave">
          132 callsubr
          83 -21 134 -20 85 callsubr
          hintmask 11001100
          -105 callgsubr
          hintmask 00110000
          -130 132 -75 callsubr
        </CharString>
        <CharString name="Uhookabove">
          132 callsubr
          84 172 callsubr
          85 callsubr
          hintmask 11001100
          -105 callgsubr
          hintmask 00110000
          -119 243 -106 callgsubr
        </CharString>
        <CharString name="Uhorn">
          132 callsubr
          -28 61 67 -20 125 callsubr
          hintmask 01010000
          -15 callsubr
          hintmask 00100000
          48 callgsubr
          hintmask 01000010
          61 callsubr
          hintmask 00000001
          -58 -346 rlineto
          hintmask 10001010
          12 callgsubr
          hintmask 01000100
          58 346 rlineto
          42 hlineto
          16 14 12 16 2 hvcurveto
          hintmask 00100000
          1 5 rlineto
          hintmask 01000000
          128 callgsubr
          -154 hlineto
          hintmask 00100000
          48 callgsubr
          hintmask 01000100
          61 callsubr
          hintmask 10101001
          -17 callsubr
          endchar
        </CharString>
        <CharString name="Uhornacute">
          132 callsubr
          -28 61 50 -21 38 -20 116 -64 callsubr
          hintmask 0001010000000000
          -163 128 -103 callgsubr
        </CharString>
        <CharString name="Uhorndotbelow">
          -200 100 89 129 callgsubr
          -28 61 67 -20 168 callsubr
          -48 100 71 70 -16 70 hintmask 0010100000000000
          -15 callsubr
          hintmask 0001000000000000
          48 callgsubr
          hintmask 0010000010000000
          61 callsubr
          hintmask 0000000001000000
          -58 -346 rlineto
          hintmask 0100010010000000
          12 callgsubr
          hintmask 0010001000000000
          58 346 rlineto
          42 hlineto
          16 14 12 16 2 hvcurveto
          hintmask 0001000000000000
          1 5 rlineto
          hintmask 0010000100000000
          128 callgsubr
          -154 176 callgsubr
          48 callgsubr
          hintmask 0010001000000000
          61 callsubr
          hintmask 0101010001000000
          -17 callsubr
          hintmask 1000000100000000
          -344 -794 -96 callsubr
          endchar
        </CharString>
        <CharString name="Uhorngrave">
          132 callsubr
          -28 61 50 -21 38 -20 116 -64 callsubr
          hintmask 0001010000000000
          -174 69 -75 callsubr
        </CharString>
        <CharString name="Uhornhookabove">
          132 callsubr
          -28 61 51 -21 37 -20 213 -64 callsubr
          hintmask 0001010010000000
          -134 180 -106 callgsubr
        </CharString>
        <CharString name="Uhorntilde">
          132 callsubr
          -28 61 19 65 -10 65 125 callsubr
          hintmask 0100000000000000
          1 callsubr
          hintmask 0100000100000000
          61 callsubr
          hintmask 0000000010000000
          -58 -346 rlineto
          hintmask 1000010100000000
          12 callgsubr
          hintmask 0100001000000000
          58 346 rlineto
          42 hlineto
          16 14 12 16 2 hvcurveto
          hintmask 0010000000000000
          1 5 rlineto
          hintmask 0100000000000000
          128 callgsubr
          -154 105 callsubr
          hintmask 0100001000000000
          61 callsubr
          hintmask 1010010010000000
          -17 callsubr
          hintmask 0000100010000000
          -98 107 55 callgsubr
          hintmask 0001000000000000
          -36 callsubr
          hintmask 0000100000000000
          24 callgsubr
          hintmask 0001000000000000
          -60 callgsubr
        </CharString>
        <CharString name="Uhungarumlaut">
          132 callsubr
          85 callsubr
          vstemhm
          -105 callgsubr
          -253 220 rmoveto
          -25 callgsubr
          194 hmoveto
          -25 callgsubr
          endchar
        </CharString>
        <CharString name="Umacron">
          132 callsubr
          72 63 85 callsubr
          hintmask 11011000
          -105 callgsubr
          hintmask 00100000
          -46 133 -71 callgsubr
        </CharString>
        <CharString name="Uogonek">
          -203 54 138 129 callgsubr
          hstem
          167 69 236 69 vstem
          617 126 callgsubr
          -129 -89 callgsubr
          -57 -341 rlineto
          -107 -18 -75 -52 -52 hhcurveto
          -53 -56 52 107 18 hvcurveto
          57 341 rlineto
          30 hlineto
          15 26 -14 callsubr
          -27 callgsubr
          -129 -89 callgsubr
          -58 -346 -19 -113 59 -86 86 -14 rlinecurve
          -33 -26 -29 -36 -6 -37 -56 callgsubr
          7 42 26 38 37 23 87 18 82 85 18 108 58 346 rcurveline
          30 hlineto
          16 25 -14 callsubr
          endchar
        </CharString>
        <CharString name="Upsilon">
          0 61 509 52 hstemhm
          120 69 49 69 -20 69 143 69 hintmask 01101000
          568 493 rmoveto
          57 10 -30 72 -73 hhcurveto
          -59 -45 -44 -98 -28 hvcurveto
          -1 hlineto
          105 4 -34 37 -55 hhcurveto
          -72 -55 -71 -58 -10 hvcurveto
          -32 -5 25 0 9 hhcurveto
          11 23 0 31 6 hvcurveto
          38 7 17 40 36 hhcurveto
          74 -27 -162 -52 -9 hvcurveto
          hintmask 10010000
          -49 -295 rlineto
          -35 -104 callsubr
          15 hhcurveto
          139 42 callsubr
          -35 hlineto
          hintmask 01001100
          49 295 rlineto
          53 9 27 161 73 hhcurveto
          37 2 -43 -33 -5 hvcurveto
          -33 -4 21 0 13 hhcurveto
          9 25 0 32 5 hvcurveto
          endchar
        </CharString>
        <CharString name="Uring">
          132 callsubr
          12 38 68 38 hstemhm
          167 69 46 50 94 50 -4 69 hintmask 11001001
          -105 callgsubr
          hintmask 00110110
          -191 114 19 callgsubr
        </CharString>
        <CharString name="Utilde">
          132 callsubr
          52 65 -10 65 85 callsubr
          hintmask 11001100
          -105 callgsubr
          hintmask 00010000
          -54 170 -87 callgsubr
        </CharString>
        <CharString name="V">
          -8 80 478 61 hstem
          115 184 120 184 vstem
          603 126 callgsubr
          -102 198 callsubr
          35 hhcurveto
          -128 -306 -22 -53 -32 -76 -14 -43 rlinecurve
          -1 hlineto
          1 35 -1 17 -3 37 -32 389 rcurveline
          35 149 callgsubr
          -26 0 -15 hhcurveto
          -102 198 callsubr
          36 hhcurveto
          45 -520 rlineto
          -38 4 16 0 29 hhcurveto
          27 19 0 37 15 hvcurveto
          219 521 rlineto
          36 139 callsubr
          endchar
        </CharString>
        <CharString name="W">
          -8 84 474 61 196 callsubr
          hintmask 01001000
          610 580 rmoveto
          31 -66 callsubr
          -79 -14 callgsubr
          hintmask 11110000
          -74 callsubr
          hintmask 00001000
          155 callgsubr
          endchar
        </CharString>
        <CharString name="Wacute">
          -8 84 474 61 83 -21 134 -20 196 callsubr
          hintmask 01000010
          610 580 rmoveto
          31 -66 callsubr
          -79 -14 callgsubr
          hintmask 11001100
          -74 callsubr
          hintmask 00000010
          155 callgsubr
          hintmask 00110000
          -112 192 -103 callgsubr
        </CharString>
        <CharString name="Wcircumflex">
          -8 84 474 61 196 callsubr
          hintmask 01001000
          610 580 rmoveto
          31 -66 callsubr
          -79 -14 callgsubr
          hintmask 11110000
          -74 callsubr
          hintmask 00001000
          155 callgsubr
          hintmask 00000000
          -99 141 rmoveto
          -111 43 -5 2 -7 0 -7 -96 callgsubr
          endchar
        </CharString>
        <CharString name="Wdieresis">
          -8 84 474 61 52 90 hstemhm
          108 160 -30 90 -3 160 -52 90 -73 160 hintmask 01000001
          610 580 rmoveto
          31 -66 callsubr
          -79 -14 callgsubr
          hintmask 11010100
          -74 callsubr
          hintmask 00000001
          155 callgsubr
          hintmask 00101000
          -282 128 rmoveto
          -63 callgsubr
          195 hmoveto
          hintmask 00100100
          26 4 -17 19 -25 hhcurveto
          hintmask 00100010
          -25 -23 -19 -26 -4 hvcurveto
          -25 -4 16 -20 25 hhcurveto
          -6 callgsubr
          endchar
        </CharString>
        <CharString name="Wgrave">
          -8 84 474 61 83 -21 134 -20 196 callsubr
          hintmask 01000010
          610 580 rmoveto
          31 -66 callsubr
          -79 -14 callgsubr
          hintmask 11001100
          -74 callsubr
          hintmask 00000010
          155 callgsubr
          hintmask 00110100
          -123 133 -75 callsubr
        </CharString>
        <CharString name="X">
          -18 callgsubr
        </CharString>
        <CharString name="Xi">
          0 59 229 59 205 59 hstem
          129 69 312 69 vstem
          579 551 rmoveto
          3 19 -60 callsubr
          -369 hlineto
          -33 -9 -8 -33 -6 hvcurveto
          -3 -19 rlineto
          166 callsubr
          35 3 20 22 4 hvcurveto
          312 hlineto
          127 callsubr
          34 4 22 19 3 hvcurveto
          -115 -258 rmoveto
          8 49 rlineto
          20 3 4 20 -35 hhcurveto
          -24 -12 -10 -25 -4 hvcurveto
          -168 hlineto
          25 4 -8 10 -24 hhcurveto
          -35 -4 -20 -20 -3 hvcurveto
          -8 -49 rlineto
          -20 -3 -4 -20 35 hhcurveto
          24 12 10 25 4 hvcurveto
          168 hlineto
          -25 -4 8 -10 24 hhcurveto
          35 4 20 20 3 hvcurveto
          34 -252 rmoveto
          4 24 80 callgsubr
          -19 -28 -5 hvcurveto
          -320 hlineto
          28 5 3 19 -35 hhcurveto
          -34 -4 -22 -19 -3 hvcurveto
          -4 -24 rlineto
          -33 -6 7 -8 33 hhcurveto
          377 134 callsubr
        </CharString>
        <CharString name="Y">
          0 61 489 61 193 callgsubr
          hintmask 01010000
          -67 callgsubr
          hintmask 10100000
          -31 -183 -51 callgsubr
          119 -57 callsubr
          hintmask 01010000
          31 183 198 306 rlineto
          21 -53 callgsubr
          endchar
        </CharString>
        <CharString name="Yacute">
          -3 callgsubr
          83 -21 134 10 callsubr
          hintmask 00110000
          -104 192 -103 callgsubr
        </CharString>
        <CharString name="Ycircumflex">
          0 61 489 61 193 callgsubr
          hintmask 01010000
          -67 callgsubr
          hintmask 10100000
          -31 -183 -51 callgsubr
          119 -57 callsubr
          hintmask 01010000
          31 183 198 306 rlineto
          21 -53 callgsubr
          hintmask 00000000
          -91 141 rmoveto
          -111 43 -5 2 -7 0 -7 -96 callgsubr
          endchar
        </CharString>
        <CharString name="Ydieresis">
          -3 callgsubr
          52 90 hstemhm
          238 69 -69 90 -59 69 95 90 hintmask 01000100
          -67 callgsubr
          hintmask 10010000
          -31 -183 -51 callgsubr
          119 -57 callsubr
          hintmask 01000100
          31 183 198 306 rlineto
          21 -53 callgsubr
          hintmask 00110000
          -274 128 100 callsubr
          hintmask 00101010
          50 callsubr
        </CharString>
        <CharString name="Ydotbelow">
          174 callgsubr
          -38 69 hintmask 00100100
          -67 callgsubr
          hintmask 01001000
          -31 -183 -51 callgsubr
          119 -57 callsubr
          hintmask 00100100
          31 183 198 306 rlineto
          21 -53 callgsubr
          hintmask 10010000
          -314 -730 -96 callsubr
          endchar
        </CharString>
        <CharString name="Ygrave">
          -3 callgsubr
          83 -21 134 10 callsubr
          hintmask 00111000
          -115 133 -75 callsubr
        </CharString>
        <CharString name="Yhookabove">
          -3 callgsubr
          84 -21 230 10 callsubr
          hintmask 00111000
          -104 244 -106 callgsubr
        </CharString>
        <CharString name="Ytilde">
          -3 callgsubr
          52 65 -10 65 -41 callsubr
          hintmask 00010000
          -39 171 -87 callgsubr
        </CharString>
        <CharString name="Z">
          -38 callgsubr
          endchar
        </CharString>
        <CharString name="Zacute">
          -3 callgsubr
          83 87 callsubr
          143 69 222 186 callgsubr
          hintmask 10000100
          13 callsubr
          hintmask 00000010
          410 485 rlineto
          hintmask 11001001
          -49 callsubr
          hintmask 00000010
          33 9 9 32 5 hvcurveto
          hintmask 00110000
          10 731 -103 callgsubr
        </CharString>
        <CharString name="Zcaron">
          -38 callgsubr
          hintmask 00000000
          20 667 -70 callsubr
        </CharString>
        <CharString name="Zdotaccent">
          -3 callgsubr
          63 100 hstemhm
          143 69 122 100 0 186 callgsubr
          hintmask 10000100
          13 callsubr
          hintmask 00000010
          410 485 rlineto
          hintmask 11010001
          -49 callsubr
          hintmask 00000010
          33 9 9 32 5 hvcurveto
          hintmask 00101000
          -54 683 -70 callgsubr
          endchar
        </CharString>
        <CharString name="Zdotbelow">
          75 callgsubr
          hstemhm
          143 69 -24 100 146 186 callgsubr
          hintmask 01000100
          13 callsubr
          hintmask 00000010
          410 485 rlineto
          hintmask 01110001
          -49 callsubr
          hintmask 00000010
          33 9 9 32 5 hvcurveto
          hintmask 10001000
          -200 -191 -96 callsubr
          endchar
        </CharString>
        <CharString name="Zeta">
          -38 callgsubr
          endchar
        </CharString>
        <CharString name="a">
          35 callsubr
          -106 callsubr
          endchar
        </CharString>
        <CharString name="aacute">
          35 callsubr
          69 -21 134 -44 callgsubr
          81 369 -100 callsubr
        </CharString>
        <CharString name="abreve">
          142 callsubr
          49 -44 callgsubr
          18 callsubr
          endchar
        </CharString>
        <CharString name="abreveacute">
          142 callsubr
          69 64 -59 64 65 -83 callgsubr
          hintmask 00010110
          18 callsubr
          -45 150 rmoveto
          20 3 -12 -77 callsubr
          hintmask 00001000
          192 callgsubr
          hintmask 00000100
          194 callgsubr
          hintmask 00001000
          143 59 26 11 6 13 2 11 rlinecurve
          endchar
        </CharString>
        <CharString name="abrevedotbelow">
          -200 100 94 57 callsubr
          59 64 49 -20 -33 callgsubr
          hintmask 01001100
          -17 -39 -45 0 -8 hhcurveto
          -62 -35 34 39 6 hvcurveto
          9 49 92 37 145 4 rrcurveto
          18 callsubr
          hintmask 10000010
          -248 -731 -96 callsubr
          endchar
        </CharString>
        <CharString name="abrevegrave">
          142 callsubr
          49 -20 40 64 -59 64 -106 callsubr
          hintmask 00011100
          150 363 60 callsubr
          hintmask 00000010
          -7 -4 2 3 -6 hvcurveto
          hintmask 00000100
          4 callsubr
          hintmask 00000010
          28 callsubr
        </CharString>
        <CharString name="abrevehookabove">
          142 callsubr
          279 -44 callgsubr
          150 363 -12 callsubr
        </CharString>
        <CharString name="abrevetilde">
          142 callsubr
          89 65 -10 65 -106 callsubr
          hintmask 00010100
          18 callsubr
          25 159 9 callgsubr
          hintmask 00001000
          94 callsubr
          hintmask 00000100
          -59 callgsubr
          hintmask 00001000
          -16 -3 13 7 callgsubr
          hintmask 00000100
          191 callgsubr
          hintmask 00001000
          -46 callsubr
        </CharString>
        <CharString name="acaron">
          35 callsubr
          -106 callsubr
          hintmask 00000000
          106 349 -62 callgsubr
        </CharString>
        <CharString name="acircumflex">
          35 callsubr
          -106 callsubr
          hintmask 00000000
          101 324 -68 callsubr
          endchar
        </CharString>
        <CharString name="acircumflexacute">
          35 callsubr
          303 -83 callgsubr
          hintmask 00010000
          96 327 rmoveto
          -111 43 -6 2 -7 0 -6 -96 callgsubr
          5 163 -13 callgsubr
        </CharString>
        <CharString name="acircumflexdotbelow">
          -2 callsubr
          101 324 -68 callsubr
          hintmask 10001000
          -199 -692 -96 callsubr
          endchar
        </CharString>
        <CharString name="acircumflexgrave">
          35 callsubr
          -106 callsubr
          hintmask 00000000
          96 327 -35 callgsubr
        </CharString>
        <CharString name="acircumflexhookabove">
          35 callsubr
          379 -83 callgsubr
          hintmask 00010000
          96 327 -67 callsubr
        </CharString>
        <CharString name="acircumflextilde">
          35 callsubr
          189 65 -10 65 -106 callsubr
          hintmask 00001000
          96 327 24 callsubr
          hintmask 00010000
          94 callsubr
          hintmask 00001000
          -59 callgsubr
          hintmask 00010000
          38 callsubr
          hintmask 00001000
          28 34 29 56 callgsubr
          hintmask 00010000
          30 callgsubr
        </CharString>
        <CharString name="acute">
          509 86 callgsubr
          hstem
          467 587 -100 callsubr
        </CharString>
        <CharString name="acute.cap">
          513 86 callgsubr
          hstem
          468 591 -103 callgsubr
        </CharString>
        <CharString name="acute.dup">
          509 86 callgsubr
          hstem
          467 587 -100 callsubr
        </CharString>
        <CharString name="acute.ts1">
          499 -21 133 -20 21 -20 hstemhm
          hintmask 00100000
          504 576 rmoveto
          18 3 -12 18 -20 hhcurveto
          hintmask 11000000
          -6 -1 -13 -2 -15 -8 -13 -5 rlinecurve
          -45 -18 -97 -26 -5 -33 rrcurveto
          -22 -4 12 -19 22 hhcurveto
          16 2 19 10 16 7 86 35 rcurveline
          22 10 29 6 5 28 rrcurveto
          endchar
        </CharString>
        <CharString name="adblgrave">
          35 callsubr
          -106 callsubr
          hintmask 00000000
          121 279 rmoveto
          -76 callgsubr
          65 -70 rcurveline
          13 -13 22 1 16 15 rrcurveto
          -194 hmoveto
          -76 callgsubr
          65 -70 rcurveline
          13 -13 22 1 16 15 rrcurveto
          endchar
        </CharString>
        <CharString name="adieresis">
          35 callsubr
          70 90 hstemhm
          158 callgsubr
          -107 callgsubr
          hintmask 00011100
          -68 337 -56 callsubr
        </CharString>
        <CharString name="adotbelow">
          -2 callsubr
          hintmask 10001000
          -98 -368 -96 callsubr
          endchar
        </CharString>
        <CharString name="ae">
          -28 callgsubr
        </CharString>
        <CharString name="ae.dup">
          -28 callgsubr
        </CharString>
        <CharString name="aeacute">
          -6 61 21 61 52 62 128 61 69 87 callsubr
          53 56 115 57 -51 57 155 57 hintmask 1101000011000000
          522 109 rmoveto
          128 callgsubr
          -22 -7 -19 -6 -3 hvcurveto
          -39 -17 -25 -18 -22 hhcurveto
          -44 -41 51 85 6 hvcurveto
          172 hlineto
          36 6 11 31 5 hvcurveto
          133 22 -41 74 -72 hhcurveto
          -35 -45 -20 -52 -39 hvcurveto
          43 -16 -33 29 -54 hhcurveto
          -92 -31 -40 -33 -6 hvcurveto
          -30 -5 19 -16 24 hhcurveto
          8 33 3 42 10 hvcurveto
          1 3 -1 3 1 3 rrcurveto
          4 14 0 12 vhcurveto
          hintmask 1000001100000000
          49 25 -35 -63 -10 hvcurveto
          -6 -33 -112 -1 -96 -46 -14 -83 rlinecurve
          -59 -10 31 -65 72 hhcurveto
          hintmask 1011000011000000
          50 57 25 44 34 hvcurveto
          -10 5 31 -59 65 hhcurveto
          85 46 95 20 3 hvcurveto
          -33 142 rmoveto
          -155 hlineto
          64 17 48 64 43 hhcurveto
          30 28 -32 -96 -11 hvcurveto
          -223 -62 rmoveto
          -3 -11 -3 -15 -5 -29 rrcurveto
          hintmask 1110001100000000
          -3 -19 -3 -21 -25 -18 rrcurveto
          -19 -26 -29 -2 -7 hhcurveto
          -41 -17 34 -49 callgsubr
          7 43 70 24 80 3 rrcurveto
          hintmask 0000110000000000
          201 398 -100 callsubr
        </CharString>
        <CharString name="agrave">
          35 callsubr
          69 -21 134 -44 callgsubr
          70 310 -65 callgsubr
        </CharString>
        <CharString name="ahookabove">
          35 callsubr
          230 -83 callgsubr
          hintmask 00110000
          73 372 -106 callgsubr
        </CharString>
        <CharString name="amacron">
          35 callsubr
          84 63 -106 callsubr
          hintmask 00010000
          159 337 -37 callgsubr
        </CharString>
        <CharString name="ampersand">
          -11 61 320 61 130 61 hstem
          324 56 0 69 0 56 cntrmask 00011100
          557 400 -32 callsubr
          -92 -93 callsubr
          24 0 17 hhcurveto
          -39 -71 -47 -86 -36 -53 -10 21 -30 63 -11 54 118 105 10 59 4 23 rrcurveto
          61 10 -8 76 -71 hhcurveto
          -50 -62 -45 -100 -16 hvcurveto
          -8 -43 -2 -56 11 -63 -10 -8 -68 -64 -3 -1 -23 -24 -21 -35 -8 -46 rrcurveto
          -76 -13 35 -72 76 hhcurveto
          52 47 32 38 37 hvcurveto
          -19 13 34 -51 58 hhcurveto
          66 41 68 48 8 hvcurveto
          5 33 -28 0 0 vvcurveto
          -26 -6 -26 -5 -1 hvcurveto
          -44 -11 -22 -13 -16 hhcurveto
          -37 -30 46 12 -7 hvcurveto
          27 35 28 46 14 25 86 156 rcurveline
          31 -53 callgsubr
          -233 85 rmoveto
          -5 -29 -24 -36 -59 -56 -7 52 8 53 2 8 rrcurveto
          58 9 31 26 22 hhcurveto
          34 -10 -67 -9 -1 hvcurveto
          -67 -377 rmoveto
          -53 -46 -37 -5 -14 hhcurveto
          -45 1 63 27 4 hvcurveto
          8 48 13 12 56 52 4 -16 14 -33 10 -23 16 -39 3 -9 13 -24 rrcurveto
          endchar
        </CharString>
        <CharString name="anglearc">
          102 -21 450 -20 hstemhm
          358 70 -31 70 hintmask 01010000
          505 116 rmoveto
          3 14 -6 12 -10 5 -68 37 rcurveline
          21 39 15 41 7 42 7 42 -1 41 -9 39 81 37 rcurveline
          11 5 10 12 3 14 rrcurveto
          195 callgsubr
          -6 -6 -1 -3 -5 hvcurveto
          -79 -37 rlineto
          hintmask 11100000
          -5 10 -5 9 -6 9 rrcurveto
          8 -4 -9 5 -11 hhcurveto
          -19 -19 -16 -19 -3 hvcurveto
          -2 -8 2 -8 3 -6 10 -15 rcurveline
          -263 -122 -12 -5 -10 -12 -2 -14 rlinecurve
          -2 -14 6 -12 10 -5 222 -122 rcurveline
          -15 -15 -5 -6 -4 -8 -2 -8 rlinecurve
          -19 -3 14 -16 19 hhcurveto
          11 10 5 8 8 hvcurveto
          8 9 9 9 7 10 67 -37 rcurveline
          -3 5 5 -1 6 hhcurveto
          19 18 16 19 3 hvcurveto
          -108 190 rmoveto
          -5 -31 -10 -30 -16 -29 -164 90 rcurveline
          194 90 rlineto
          hintmask 00010000
          6 -29 0 -30 -5 -31 rrcurveto
          endchar
        </CharString>
        <CharString name="angleleft">
          -62 -21 777 -20 21 -20 hstemhm
          hintmask 00100000
          441 -47 rmoveto
          4 21 -19 22 -8 19 -132 273 rcurveline
          -3 5 -5 7 1 6 2 11 41 44 22 27 67 81 63 83 69 80 7 9 7 8 2 11 rrcurveto
          19 3 -12 16 -19 hhcurveto
          hintmask 11000000
          -7 -1 -26 -3 -33 -51 -22 -28 rlinecurve
          -181 -222 -22 -27 -36 -34 -4 -24 rlinecurve
          -1 -3 -1 -19 18 -23 8 -19 rlinecurve
          138 -285 rlineto
          -17 9 5 -22 24 hhcurveto
          19 19 18 18 3 hvcurveto
          endchar
        </CharString>
        <CharString name="angleright">
          -62 -21 777 -20 21 -20 hstemhm
          hintmask 00100000
          426 307 rmoveto
          1 3 1 20 -20 25 -8 20 rlinecurve
          -74 152 -63 131 rlineto
          16 -9 -6 21 -21 hhcurveto
          hintmask 11000000
          -7 -1 -18 -2 -14 -16 -3 -16 rlinecurve
          -3 -18 12 -14 6 -14 138 -285 rcurveline
          3 -6 6 -9 -7 vvcurveto
          -2 -13 -39 -41 -20 -24 -173 -213 rcurveline
          -18 -20 -25 -25 -3 -19 rrcurveto
          117 callsubr
          19 12 14 15 12 hvcurveto
          41 51 228 278 9 10 7 9 2 13 rlinecurve
          endchar
        </CharString>
        <CharString name="aogonek">
          -203 54 143 57 callsubr
          -18 callsubr
          endchar
        </CharString>
        <CharString name="aogonekacute">
          -203 54 143 57 callsubr
          69 -21 134 -20 -18 callsubr
          hintmask 00001100
          81 369 -100 callsubr
        </CharString>
        <CharString name="aring">
          35 callsubr
          52 38 68 38 hstemhm
          260 50 94 50 -107 callgsubr
          hintmask 00011110
          18 346 54 callsubr
          27 15 23 hhcurveto
          23 21 -50 callsubr
          endchar
        </CharString>
        <CharString name="aringacute">
          35 callsubr
          52 191 callsubr
          hstemhm
          260 50 94 50 -107 callgsubr
          hintmask 00011111
          18 346 54 callsubr
          27 15 23 hhcurveto
          23 21 -50 callsubr
          41 191 -100 callsubr
        </CharString>
        <CharString name="asciicircum">
          528 543 rmoveto
          -150 79 -7 3 -9 0 -7 -3 rlinecurve
          -176 -79 -38 -17 15 -52 37 15 rlinecurve
          161 65 141 -65 32 -15 33 52 -32 17 rlinecurve
          endchar
        </CharString>
        <CharString name="asciitilde">
          494 334 29 callsubr
        </CharString>
        <CharString name="asciitilde.low">
          453 88 29 callsubr
        </CharString>
        <CharString name="asterisk">
          251 66 -8 66 hintmask 01000000
          492 214 rmoveto
          3 17 -11 9 -2 1 -22 17 -62 33 -24 14 118 59 rcurveline
          13 7 14 7 3 19 rrcurveto
          4 1 5 29 -40 hhcurveto
          -136 -72 6 26 12 66 5 29 rlinecurve
          9 1 6 33 -33 hhcurveto
          -33 -6 -33 -9 -1 hvcurveto
          -5 -29 -10 -66 -2 -26 -98 63 rcurveline
          9 -12 -2 0 -7 hhcurveto
          -20 -16 -18 -15 -3 hvcurveto
          -3 -19 10 -6 12 -7 99 -59 rcurveline
          -118 -59 -13 -7 -14 -6 -3 -20 rlinecurve
          -4 -1 -5 -29 40 hhcurveto
          136 72 rlineto
          hintmask 10000000
          -6 -26 -12 -66 -5 -29 rrcurveto
          -9 -1 -6 -33 33 hhcurveto
          33 6 33 9 1 hvcurveto
          5 29 10 66 2 26 56 -34 -34 20 63 -42 rrcurveto
          -16 24 2 0 8 hhcurveto
          20 16 18 15 3 hvcurveto
          endchar
        </CharString>
        <CharString name="asterisk.math">
          113 -21 430 -20 hstemhm
          209 64 36 64 -20 64 40 64 hintmask 00001100
          491 217 rmoveto
          3 17 -11 11 -15 7 -24 15 rcurveline
          -22 13 -22 16 -24 10 rrcurveto
          2 vlineto
          28 10 27 16 26 13 29 15 rcurveline
          18 7 14 11 3 17 rrcurveto
          16 3 -10 19 -20 hhcurveto
          -14 -14 -10 -7 -13 hvcurveto
          -33 -19 -34 -17 -33 -19 rrcurveto
          hintmask 11110000
          6 36 8 37 6 36 3 15 rcurveline
          17 3 -5 21 -25 hhcurveto
          -19 -16 -13 -22 -4 hvcurveto
          -1 -10 -3 -13 -2 -13 -1 -13 rlinecurve
          -5 -33 -3 -15 -1 -15 -3 -15 rlinecurve
          -27 19 -28 17 -27 19 rrcurveto
          7 -11 -10 10 -14 hhcurveto
          -20 -16 -19 -16 -3 hvcurveto
          -3 -17 12 -11 14 -7 25 -15 rcurveline
          22 -13 21 -16 24 -10 rrcurveto
          -2 vlineto
          -28 -10 -26 -16 -26 -13 -30 -15 rcurveline
          -17 -7 -15 -11 -3 -17 rrcurveto
          -16 -2 9 -19 20 hhcurveto
          14 14 10 7 13 hvcurveto
          33 19 34 17 33 19 -2 -15 -4 -15 -2 -15 -6 -33 rcurveline
          -3 -13 -2 -13 -2 -13 -2 -10 rcurveline
          -22 -3 11 -13 19 hhcurveto
          25 12 21 17 3 hvcurveto
          2 15 6 36 4 37 6 36 rlinecurve
          hintmask 00001000
          27 -19 28 -17 27 -19 rrcurveto
          -7 11 10 -10 14 hhcurveto
          20 17 19 16 2 hvcurveto
          endchar
        </CharString>
        <CharString name="at">
          -6 61 51 61 277 61 51 61 hstemhm
          95 56 91 56 55 56 -45 56 hintmask 10111101
          493 80 rmoveto
          28 5 -28 0 -10 hhcurveto
          -17 -3 0 -10 -12 hvcurveto
          -32 -40 -40 -11 -34 hhcurveto
          -108 -79 108 142 24 hvcurveto
          149 25 118 102 103 hhcurveto
          28 43 -10 -61 13 hvcurveto
          2 -3 -25 18 -33 hhcurveto
          -80 -79 -86 -113 -19 hvcurveto
          hintmask 11011010
          -119 -20 57 -81 74 hhcurveto
          49 103 42 173 29 hvcurveto
          65 10 39 231 -176 hhcurveto
          -136 -146 -131 -180 -30 hvcurveto
          -179 -30 100 -133 140 hhcurveto
          90 94 57 29 4 hvcurveto
          -18 225 rmoveto
          hintmask 01000101
          -81 -14 -54 -57 -43 hhcurveto
          -47 -32 60 78 13 hvcurveto
          hintmask 00100010
          84 14 55 55 42 hhcurveto
          45 34 -58 -81 -13 hvcurveto
          endchar
        </CharString>
        <CharString name="atilde">
          35 callsubr
          55 65 -10 65 -106 callsubr
          hintmask 00001000
          149 365 9 callgsubr
          hintmask 00010000
          -36 callsubr
          hintmask 00001000
          6 callgsubr
        </CharString>
        <CharString name="b">
          -6 61 321 61 113 61 hstem
          281 69 105 69 vstem
          82 callgsubr
          -85 -509 78 callsubr
          102 callgsubr
        </CharString>
        <CharString name="backslash">
          458 -48 rmoveto
          1 8 -2 10 -2 6 -216 691 rcurveline
          10 -3 -5 17 -22 hhcurveto
          -20 -18 -17 -18 -3 hvcurveto
          -1 -8 2 -10 2 -6 216 -691 rcurveline
          -10 3 5 -17 22 hhcurveto
          20 18 17 18 3 hvcurveto
          endchar
        </CharString>
        <CharString name="baht">
          139 callgsubr
          hstem
          282 62 0 62 0 62 cntrmask 00011100
          510 167 rmoveto
          11 69 -37 65 -78 19 68 22 53 52 10 62 rrcurveto
          73 12 -47 82 -111 hhcurveto
          -3 hlineto
          10 62 rlineto
          96 callgsubr
          -18 -15 -14 -17 -3 hvcurveto
          -11 -62 rlineto
          -160 hlineto
          -14 39 callgsubr
          27 132 callgsubr
          -27 -104 callsubr
          14 hhcurveto
          161 hlineto
          -10 -62 rlineto
          190 callsubr
          9 62 rlineto
          24 hlineto
          113 75 89 78 13 hvcurveto
          -42 288 rmoveto
          -6 -38 -37 -58 -81 -10 34 201 rcurveline
          84 11 -62 -33 -5 hvcurveto
          -186 -107 rmoveto
          -64 hlineto
          209 callsubr
          64 hlineto
          125 -381 rmoveto
          -49 -8 -49 -59 -87 hhcurveto
          -2 hlineto
          39 226 rlineto
          12 hlineto
          85 18 -73 -45 -8 hvcurveto
          -207 -108 rmoveto
          -64 hlineto
          38 226 rlineto
          63 hlineto
          endchar
        </CharString>
        <CharString name="bar">
          221 70 44 70 vstem
          291 -36 rmoveto
          53 callgsubr
          endchar
        </CharString>
        <CharString name="bigcircle">
          185 callgsubr
          449 38 vstem
          -50 callgsubr
          endchar
        </CharString>
        <CharString name="blanksymbol">
          -6 61 321 61 -49 61 101 61 hstemhm
          162 69 50 69 105 69 hintmask 01000000
          524 216 rmoveto
          123 21 -73 98 -106 hhcurveto
          hintmask 10111110
          -48 -48 -18 -31 -39 hvcurveto
          10 61 129 97 147 callsubr
          -83 -62 6 39 -97 callgsubr
          -13 -78 -85 -64 -8 -5 157 callgsubr
          39 29 -58 -349 78 callsubr
          hintmask 01000110
          102 callgsubr
        </CharString>
        <CharString name="braceleft">
          -83 183 callgsubr
          cntrmask 11100000
          458 -52 rmoveto
          29 5 -25 1 -9 hhcurveto
          -135 3 6 36 5 31 27 161 rcurveline
          4 25 4 41 -50 30 46 25 21 33 5 25 22 132 rcurveline
          4 25 7 40 4 8 rrcurveto
          38 24 89 2 35 hhcurveto
          6 21 6 24 4 hvcurveto
          -48 callsubr
          -18 hhcurveto
          -70 -111 -13 -88 -32 hvcurveto
          -2 -6 -8 -50 -5 -28 -15 -90 rcurveline
          -6 -36 -3 -15 -38 -16 rrcurveto
          -15 -39 -50 -1 -23 hhcurveto
          -6 -21 -6 -24 -4 hvcurveto
          -30 -5 24 -1 10 hhcurveto
          26 -1 108 -3 -7 -54 -27 -166 rcurveline
          -5 -30 -8 -45 47 -29 rrcurveto
          -23 38 54 -7 48 hhcurveto
          18 24 -14 callsubr
          endchar
        </CharString>
        <CharString name="braceright">
          -83 183 callgsubr
          196 69 57 69 cntrmask 11100000
          518 305 rmoveto
          30 5 -24 1 -10 hhcurveto
          -24 1 -109 2 7 56 28 167 rcurveline
          4 28 8 45 -47 29 rrcurveto
          26 -44 -62 4 -35 hhcurveto
          -17 -25 -86 callgsubr
          -26 -5 19 -4 14 hhcurveto
          137 -2 -6 -36 -5 -33 -27 -161 rcurveline
          -7 -40 10 -32 39 -23 -61 -32 -10 -47 -1 -4 -29 -178 rcurveline
          -5 -29 -6 -36 -146 -2 rrcurveto
          -6 -21 -6 -24 -4 hvcurveto
          -31 -5 25 0 17 hhcurveto
          87 98 20 81 29 hvcurveto
          2 6 8 50 5 28 15 90 rcurveline
          6 36 3 15 38 16 rrcurveto
          15 39 48 1 24 hhcurveto
          6 21 6 24 4 hvcurveto
          endchar
        </CharString>
        <CharString name="bracketleft">
          -83 61 655 61 hstem
          474 -53 -32 callsubr
          -152 hlineto
          110 655 rlineto
          152 -91 callgsubr
          -181 hlineto
          -33 -9 -9 -32 -5 hvcurveto
          -116 -695 rlineto
          -31 -5 4 -10 34 hhcurveto
          181 -53 callgsubr
          endchar
        </CharString>
        <CharString name="bracketright">
          -83 61 655 61 hstem
          295 -42 rmoveto
          116 695 -60 callsubr
          -181 -100 callgsubr
          152 hlineto
          -110 -655 rlineto
          -152 -100 callgsubr
          181 134 callsubr
        </CharString>
        <CharString name="breve">
          499 64 49 -20 hstem
          -5 callgsubr
          endchar
        </CharString>
        <CharString name="breve.cap">
          492 64 49 -20 hstem
          -5 callsubr
          endchar
        </CharString>
        <CharString name="breve.ts1">
          497 65 50 -20 hstem
          556 581 rmoveto
          16 3 -7 15 -22 hhcurveto
          -11 -11 -5 -9 -6 hvcurveto
          -5 -6 -1 -8 -5 -5 rrcurveto
          -15 -18 -36 -2 -32 hhcurveto
          -79 hlineto
          -31 -55 0 17 -14 hvcurveto
          -4 5 3 7 -2 6 rrcurveto
          10 -5 -9 5 -11 hhcurveto
          -3 -2 0 -1 -3 hvcurveto
          -18 -3 -8 -14 -2 -15 rrcurveto
          -77 -13 123 -5 55 hhcurveto
          32 hlineto
          70 113 3 81 14 hvcurveto
          endchar
        </CharString>
        <CharString name="brokenbar">
          221 70 -30 70 -36 70 -30 70 hintmask 00010000
          365 407 rmoveto
          40 240 67 callsubr
          hintmask 00100000
          -40 -240 rlineto
          -18 -3 14 -13 19 hhcurveto
          19 18 13 18 3 hvcurveto
          -74 -443 rmoveto
          hintmask 01000000
          40 240 rlineto
          18 3 -14 13 -19 hhcurveto
          -19 -18 -13 -18 -3 hvcurveto
          hintmask 10000000
          -40 -240 rlineto
          -12 -2 -6 -35 35 hhcurveto
          35 6 35 12 2 hvcurveto
          endchar
        </CharString>
        <CharString name="bullet">
          96 276 hstem
          164 276 116 callgsubr
          endchar
        </CharString>
        <CharString name="c">
          58 callsubr
          hstem
          109 69 vstem
          -54 callsubr
          -120 -20 77 -102 126 hhcurveto
          139 50 98 17 3 hvcurveto
          endchar
        </CharString>
        <CharString name="cacute">
          124 callgsubr
          109 69 hintmask 11001000
          -54 callsubr
          -120 -20 77 -102 126 hhcurveto
          139 50 98 17 3 hvcurveto
          hintmask 00110000
          10 478 -100 callsubr
        </CharString>
        <CharString name="caron">
          492 567 -62 callgsubr
        </CharString>
        <CharString name="caron.cap">
          478 527 -70 callsubr
        </CharString>
        <CharString name="caron.ts1">
          498 -21 141 -20 hstem
          543 577 rmoveto
          16 3 -7 25 -22 hhcurveto
          -12 -13 -8 -5 -11 hvcurveto
          -89 -41 -27 -12 rlineto
          -2 -3 -5 -2 -4 hhcurveto
          -2 hlineto
          -4 1 -4 3 -4 2 -21 11 rcurveline
          -67 36 rlineto
          6 -11 -12 11 -15 hhcurveto
          0 -5 0 -2 -1 vhcurveto
          -17 -3 -15 -24 -2 -13 -3 -22 28 -10 21 -10 82 -41 rcurveline
          23 -11 rlineto
          -2 6 6 -4 7 hhcurveto
          18 36 20 11 24 hvcurveto
          71 30 20 8 28 8 4 23 rlinecurve
          endchar
        </CharString>
        <CharString name="ccaron">
          58 callsubr
          hstemhm
          109 69 vstemhm
          -54 callsubr
          -120 -20 77 -102 126 hhcurveto
          139 50 98 17 3 hvcurveto
          35 458 -62 callgsubr
        </CharString>
        <CharString name="ccedilla">
          -66 61 -1 100 callgsubr
          hstemhm
          109 69 176 69 hintmask 01110000
          -54 callsubr
          hintmask 10001000
          -19 -114 68 -97 114 -10 -3 -19 31 callsubr
          2 8 rcurveline
          101 19 39 76 2 15 rrcurveto
          endchar
        </CharString>
        <CharString name="ccircumflex">
          58 callsubr
          hstemhm
          109 69 vstemhm
          -54 callsubr
          -120 -20 77 -102 126 hhcurveto
          139 50 98 17 3 hvcurveto
          30 433 -68 callsubr
          endchar
        </CharString>
        <CharString name="cdotaccent">
          58 callsubr
          65 100 hstemhm
          109 69 155 100 hintmask 11010000
          -54 callsubr
          -120 -20 77 -102 126 hhcurveto
          139 50 98 17 3 hvcurveto
          hintmask 00101000
          -51 446 -70 callgsubr
          endchar
        </CharString>
        <CharString name="cedilla">
          33 callsubr
        </CharString>
        <CharString name="cedilla.dup">
          33 callsubr
        </CharString>
        <CharString name="cent">
          -5 61 323 61 hstemhm
          109 69 70 62 -53 62 12 62 -53 62 hintmask 11000100
          484 109 rmoveto
          28 5 -29 0 -6 hhcurveto
          -16 -10 -2 -20 -11 hvcurveto
          -7 -12 -22 -39 -59 -8 54 323 rcurveline
          20 25 -2 -7 -1 hvcurveto
          -35 -5 17 -14 24 hhcurveto
          24 23 17 29 5 hvcurveto
          11 66 -84 6 -49 1 rrcurveto
          hintmask 00000010
          9 53 rlineto
          96 callgsubr
          -17 -16 -14 -17 -3 hvcurveto
          hintmask 00101100
          -9 -57 -140 -22 -69 -119 -13 -79 rlinecurve
          -18 -109 61 -93 105 -17 rrcurveto
          hintmask 00010000
          -9 -59 rlineto
          189 callgsubr
          hintmask 10101000
          9 57 118 12 45 86 2 16 rlinecurve
          -216 -48 rmoveto
          -63 18 -40 61 13 76 7 42 36 92 99 24 rrcurveto
          endchar
        </CharString>
        <CharString name="cent.oldstyle">
          -6 61 -58 61 319 61 -59 61 -2 61 hstemhm
          109 62 -62 69 248 89 hintmask 10000000
          484 109 rmoveto
          28 5 -29 0 -6 hhcurveto
          -16 -10 -2 -20 -11 hvcurveto
          -13 -8 -27 -47 -74 hhcurveto
          hintmask 01001001
          -10 -11 1 2 -9 hvcurveto
          124 320 14 -1 12 -2 -1 -5 rlinecurve
          -35 -5 17 -14 24 hhcurveto
          24 23 17 29 5 hvcurveto
          9 53 -52 14 -46 4 18 48 rcurveline
          19 8 -12 19 -20 hhcurveto
          -15 -13 -11 -14 -6 hvcurveto
          hintmask 01010100
          -23 -59 -162 -8 -78 -131 -14 -85 rlinecurve
          -14 -86 36 -77 68 -37 -28 -71 rcurveline
          -20 -9 12 -18 20 hhcurveto
          15 14 10 14 5 hvcurveto
          26 66 rlineto
          hintmask 10100010
          -2 12 13 -1 13 hhcurveto
          139 50 98 17 3 hvcurveto
          -145 268 rmoveto
          -115 -294 -36 29 -19 48 9 56 rlinecurve
          7 44 41 102 113 15 rrcurveto
          endchar
        </CharString>
        <CharString name="centigrade">
          -10 61 438 61 0 61 -60 61 -50 61 hstemhm
          452 70 hintmask 10001100
          522 172 rmoveto
          25 4 -16 6 -18 hhcurveto
          -20 -16 -7 -47 callsubr
          -33 -9 -31 -82 -58 hhcurveto
          -53 -19 68 47 -8 hvcurveto
          -7 43 2 46 7 45 13 79 27 91 64 63 rrcurveto
          16 15 21 13 21 hhcurveto
          72 -19 -109 -34 6 hvcurveto
          -15 3 14 -3 14 hhcurveto
          30 7 20 18 3 hvcurveto
          25 147 rlineto
          23 4 -8 14 -20 hhcurveto
          -21 -13 -18 -17 -8 hvcurveto
          -21 20 -22 10 -30 5 rrcurveto
          -8 hlineto
          -78 -58 -67 -64 -38 hvcurveto
          -34 -58 -20 -66 -10 -63 -17 -104 4 -143 87 -53 rrcurveto
          -10 16 19 -5 21 hhcurveto
          93 77 90 92 16 hvcurveto
          -307 379 rmoveto
          hintmask 00010000
          26 4 -15 35 -38 hhcurveto
          hintmask 00100000
          -3 -3 0 -1 -3 hvcurveto
          -37 -4 -22 -31 -4 -26 rrcurveto
          hintmask 01010000
          -26 -5 16 -35 38 hhcurveto
          41 26 33 29 5 hvcurveto
          -54 hmoveto
          -4 -1 -4 -3 -4 hhcurveto
          -3 -2 2 3 1 hvcurveto
          1 vlineto
          4 5 3 4 3 2 -2 -4 -1 vhcurveto
          endchar
        </CharString>
        <CharString name="circumflex">
          487 542 -68 callsubr
          endchar
        </CharString>
        <CharString name="circumflex.cap">
          481 540 rmoveto
          -111 43 -5 2 -7 0 -7 -96 callgsubr
          endchar
        </CharString>
        <CharString name="circumflex.dup">
          487 542 -68 callsubr
          endchar
        </CharString>
        <CharString name="colon">
          0 125 181 125 hstem
          386 368 47 callsubr
          -51 -306 47 callsubr
          endchar
        </CharString>
        <CharString name="colonmonetary">
          561 61 hstemhm
          91 69 88 62 -43 62 22 62 -43 62 80 69 hintmask 10011010
          512 168 rmoveto
          33 6 -24 0 -11 hhcurveto
          -9 -23 0 -29 -7 hvcurveto
          -18 -75 -54 -32 -43 -10 84 501 rcurveline
          42 -15 31 -42 -65 vvcurveto
          -17 1 -1 -16 30 109 callgsubr
          4 hvcurveto
          23 139 rlineto
          16 3 4 25 -30 hhcurveto
          -18 -7 -10 -7 -6 hvcurveto
          -3 -4 0 -2 -17 -25 -21 21 -29 16 -34 7 rrcurveto
          hintmask 01100110
          9 55 rlineto
          96 callgsubr
          -17 -16 -14 -17 -3 hvcurveto
          -8 -52 -122 -15 -120 -129 -29 -171 rlinecurve
          -29 -172 77 -128 117 -15 -8 -53 rcurveline
          189 callgsubr
          9 54 99 17 81 79 13 80 rlinecurve
          -245 -115 rmoveto
          -77 20 -52 99 22 134 rrcurveto
          hintmask 00011000
          22 134 87 99 82 19 rrcurveto
          endchar
        </CharString>
        <CharString name="comma">
          0 125 hstem
          350 25 rmoveto
          61 10 -32 39 -44 hhcurveto
          -40 -28 -30 -32 -5 hvcurveto
          -38 -7 25 -25 33 hhcurveto
          6 7 1 2 8 hvcurveto
          -26 -62 -50 -16 -12 -4 -11 -3 -19 -5 -3 -20 rrcurveto
          -15 -2 12 -17 17 hhcurveto
          32 111 54 110 18 hvcurveto
          endchar
        </CharString>
        <CharString name="copyleft">
          0 38 449 38 hstemhm
          44 38 112 38 0 38 261 38 hintmask 11101100
          -50 callgsubr
          -85 hmoveto
          98 16 -48 72 -70 hhcurveto
          -27 -26 -10 -15 -21 hvcurveto
          -5 13 0 1 2 vvcurveto
          4 -3 -1 5 -10 hhcurveto
          -16 -2 -13 -9 -1 hvcurveto
          -13 -75 rlineto
          -11 -2 -2 -11 19 hhcurveto
          16 3 9 9 2 hvcurveto
          44 16 34 24 32 hhcurveto
          48 37 -57 -80 -13 hvcurveto
          -81 -14 -55 -57 -49 hhcurveto
          -23 -41 12 53 5 hvcurveto
          16 1 -13 0 -4 hhcurveto
          hintmask 00010000
          -6 -13 0 -18 -3 hvcurveto
          -48 -8 38 -48 63 hhcurveto
          70 72 72 99 17 hvcurveto
          endchar
        </CharString>
        <CharString name="copyright">
          0 38 449 38 hstemhm
          44 38 275 38 -15 38 -25 38 100 38 hintmask 11110010
          -50 callgsubr
          -138 -75 rmoveto
          18 3 -13 0 -6 hhcurveto
          -4 -13 0 -16 -3 hvcurveto
          -52 -13 -45 -13 -23 hhcurveto
          -49 -37 57 81 14 hvcurveto
          80 13 57 57 48 hhcurveto
          hintmask 00001000
          32 26 -24 -44 hvcurveto
          hintmask 00010000
          -9 -1 -9 16 vhcurveto
          hintmask 00001000
          19 2 11 11 2 hvcurveto
          hintmask 00000100
          13 75 rlineto
          hintmask 00001000
          9 1 2 13 -16 hhcurveto
          -10 -3 -5 -4 -3 hvcurveto
          -2 -2 0 -1 -9 -14 rrcurveto
          16 -15 -24 10 -27 hhcurveto
          -70 -72 -72 -98 -16 hvcurveto
          -99 -17 48 -72 70 hhcurveto
          hintmask 00000100
          63 54 48 48 8 hvcurveto
          endchar
        </CharString>
        <CharString name="currency">
          156 -20 21 70 158 70 22 -21 hstemhm
          129 70 -34 70 22 70 65 70 -35 70 hintmask 0000000010000000
          446 147 rmoveto
          29 25 -21 24 -7 9 -20 23 rcurveline
          hintmask 0000000100000000
          18 23 12 26 5 29 5 29 -4 26 -10 23 27 22 rcurveline
          hintmask 0011101010000000
          9 9 29 25 -21 24 -19 25 -30 -25 -10 -8 -26 -23 rcurveline
          14 -20 -25 8 -28 hhcurveto
          -29 -28 -8 -14 -25 hvcurveto
          -20 24 -7 8 -20 25 -29 -25 rlinecurve
          -30 -25 21 -24 7 -9 20 -24 rcurveline
          hintmask 0000010000000000
          -17 -22 -12 -27 -5 -28 -5 -28 4 -27 9 -22 -27 -23 rcurveline
          hintmask 1100100000000000
          -9 -9 -29 -25 21 -24 20 -25 29 25 10 8 27 23 rcurveline
          -14 20 25 -8 29 hhcurveto
          28 28 8 14 25 hvcurveto
          19 -24 8 -8 19 -25 30 25 rlinecurve
          -54 159 rmoveto
          -43 -7 -41 -36 -43 hhcurveto
          hintmask 0010011100000000
          -44 -29 36 43 7 hvcurveto
          43 7 41 36 44 hhcurveto
          43 29 -36 -43 -7 hvcurveto
          endchar
        </CharString>
        <CharString name="cwm">
          -107 endchar
        </CharString>
        <CharString name="cwmascender">
          -107 endchar
        </CharString>
        <CharString name="cwmcapital">
          -107 endchar
        </CharString>
        <CharString name="d">
          -6 61 -55 138 callsubr
          72 69 104 69 88 69 hintmask 01111100
          -9 callsubr
          hintmask 10000000
          85 callgsubr
          hintmask 01000010
          48 callsubr
          hintmask 10101110
          32 callgsubr
          endchar
        </CharString>
        <CharString name="dagger">
          -195 -21 613 67 241 -20 hstemhm
          187 79 -8 79 -4 79 hintmask 01110100
          529 430 146 callgsubr
          5 20 5 28 24 65 12 37 14 37 6 37 rrcurveto
          8 1 6 33 -39 hhcurveto
          -40 -6 -32 -9 -1 hvcurveto
          -6 -35 1 -58 -24 vvcurveto
          2 -46 -3 -32 -4 -29 -12 1 -23 138 callgsubr
          36 8 6 26 hvcurveto
          3 1 31 7 23 2 -6 -25 -6 -20 -10 -25 rrcurveto
          hintmask 11001000
          -29 -72 -2 -8 -9 -53 -25 -151 -15 -168 -5 -95 rrcurveto
          -14 -1 0 -6 13 hhcurveto
          14 1 5 13 5 hvcurveto
          15 50 12 53 12 51 14 63 23 103 16 96 9 54 2 7 -5 71 -2 23 0 21 2 27 13 -1 22 -4 23 -5 rrcurveto
          -6 21 33 -8 24 hhcurveto
          42 7 28 5 1 hvcurveto
          endchar
        </CharString>
        <CharString name="daggerdbl">
          -184 -21 194 66 389 67 194 -20 hstem
          115 79 1 79 1 79 cntrmask 00001110
          537 477 146 callgsubr
          6 30 14 34 6 14 13 33 14 40 5 28 rrcurveto
          7 1 6 32 -40 hhcurveto
          -12 -28 -3 -36 -6 hvcurveto
          -3 -20 0 -29 2 -35 1 -41 2 -28 -4 -26 -13 1 -22 138 callgsubr
          35 8 6 26 hvcurveto
          4 1 31 7 23 2 -6 -30 -14 -34 -6 -14 -12 -33 -15 -40 -5 -28 179 callsubr
          4 20 -1 29 -2 35 -1 41 -1 28 3 26 13 -1 22 -4 22 -5 rrcurveto
          -6 21 34 -8 24 hhcurveto
          42 7 28 5 1 hvcurveto
          -76 -455 rmoveto
          17 3 -12 16 -25 hhcurveto
          -23 -21 -3 -8 -38 hvcurveto
          -32 -8 -8 -2 -27 -2 7 28 9 24 15 42 22 56 4 23 1 5 rrcurveto
          35 6 -25 4 -13 hhcurveto
          -35 -10 -25 -14 -2 hvcurveto
          -5 -29 3 -43 1 -34 2 -11 0 -31 -3 -30 -26 2 -3 1 -46 11 rrcurveto
          9 -36 -20 0 -9 hhcurveto
          -29 -14 -20 -13 -2 hvcurveto
          -15 -3 9 -18 28 hhcurveto
          29 29 6 4 14 hvcurveto
          48 10 8 1 20 2 -7 -28 -9 -24 -15 -42 -22 -56 -4 -23 -1 -5 179 callsubr
          5 29 -2 43 -1 34 -2 11 -1 31 3 30 27 -2 4 -1 45 -11 rrcurveto
          -9 37 21 0 6 hhcurveto
          28 15 18 15 3 hvcurveto
          endchar
        </CharString>
        <CharString name="dblbracketleft">
          -82 70 637 70 1 -20 hstemhm
          305 70 36 70 hintmask 11011000
          488 -47 rmoveto
          19 3 -4 16 -28 hhcurveto
          -84 hlineto
          106 637 rlineto
          68 hlineto
          5 6 -1 6 hhcurveto
          28 9 18 19 3 hvcurveto
          hintmask 00100000
          20 4 -8 15 -25 hhcurveto
          hintmask 01000000
          -7 -7 -1 -6 hhcurveto
          -237 hlineto
          hintmask 10100000
          -7 -7 1 -8 hhcurveto
          -26 -13 -13 -25 -4 hvcurveto
          -117 -701 rlineto
          -28 -5 9 -11 28 hhcurveto
          280 hlineto
          28 7 18 17 3 hvcurveto
          -183 35 rmoveto
          -92 hlineto
          hintmask 11011000
          106 637 rlineto
          92 hlineto
          endchar
        </CharString>
        <CharString name="dblbracketright">
          -82 70 637 70 hstem
          145 70 36 70 vstem
          371 -47 rmoveto
          118 706 rlineto
          17 3 -1 19 -29 hhcurveto
          -285 hlineto
          -26 -9 -18 -17 -3 hvcurveto
          -19 -3 4 -16 28 hhcurveto
          83 hlineto
          -106 -637 rlineto
          -83 hlineto
          -28 -10 -16 -19 -3 hvcurveto
          -17 -3 3 -18 26 hhcurveto
          286 hlineto
          26 9 18 17 3 hvcurveto
          -64 35 rmoveto
          -92 hlineto
          106 637 rlineto
          92 hlineto
          endchar
        </CharString>
        <CharString name="dblgrave.ts1">
          500 -21 133 -20 hstem
          322 518 rmoveto
          81 callgsubr
          175 hmoveto
          81 callgsubr
          endchar
        </CharString>
        <CharString name="dblverticalbar">
          187 -36 rmoveto
          53 callgsubr
          210 hmoveto
          53 callgsubr
          endchar
        </CharString>
        <CharString name="dcaron">
          -6 61 -55 159 callgsubr
          80 94 -61 61 hstemhm
          72 69 104 69 88 69 hintmask 01101110
          -9 callsubr
          hintmask 10000000
          85 callgsubr
          hintmask 01000001
          48 callsubr
          hintmask 10101111
          32 callgsubr
          278 271 106 callgsubr
          hintmask 00110000
          17 callgsubr
        </CharString>
        <CharString name="dcroat">
          -6 61 -55 159 callgsubr
          22 62 29 61 hstemhm
          297 69 0 69 0 69 cntrmask 00000111
          hintmask 01111111
          94 callgsubr
          67 398 rlineto
          50 83 callsubr
          -50 hlineto
          8 49 -97 callgsubr
          -5 -29 rlineto
          -148 84 callsubr
          148 hlineto
          -12 -67 rlineto
          29 -28 -38 16 -43 hhcurveto
          -109 -112 -95 -127 -21 hvcurveto
          hintmask 10000111
          85 callgsubr
          hintmask 01000111
          48 callsubr
          hintmask 10100111
          32 callgsubr
          endchar
        </CharString>
        <CharString name="ddotbelow">
          -200 100 94 61 -55 138 callsubr
          72 69 47 100 -43 69 88 69 hintmask 0011110100000000
          -9 callsubr
          hintmask 0100000000000000
          85 callgsubr
          hintmask 0010000010000000
          48 callsubr
          hintmask 0101010110000000
          32 callgsubr
          hintmask 1000001000000000
          -114 -415 -96 callsubr
          endchar
        </CharString>
        <CharString name="degree">
          319 70 152 70 hstem
          195 70 151 70 vstem
          486 465 rmoveto
          81 13 -54 65 -80 hhcurveto
          -81 -76 -65 -81 -13 hvcurveto
          -80 -14 54 -66 81 hhcurveto
          80 76 66 80 14 hvcurveto
          -70 hmoveto
          -42 -7 -40 -34 -41 hhcurveto
          -42 -28 34 42 7 hvcurveto
          42 7 39 34 42 hhcurveto
          41 29 -34 -42 -7 hvcurveto
          endchar
        </CharString>
        <CharString name="diameter">
          92 70 0 70 148 70 0 70 hstemhm
          99 70 288 70 hintmask 10011100
          569 496 rmoveto
          195 callgsubr
          -10 -9 -4 -6 -8 hvcurveto
          -47 -41 rlineto
          25 -31 -40 15 -46 hhcurveto
          -118 -112 -96 -118 -20 hvcurveto
          -8 -47 8 -43 19 -35 -46 -40 rcurveline
          -8 -7 -5 -8 -2 -10 rrcurveto
          -19 -3 14 -16 19 hhcurveto
          10 8 4 6 8 hvcurveto
          47 41 rlineto
          -25 31 40 -15 46 hhcurveto
          118 112 96 118 20 hvcurveto
          8 47 -8 43 -19 35 47 40 rcurveline
          7 7 5 8 2 10 rrcurveto
          -112 -190 rmoveto
          -80 -13 -75 -64 -80 hhcurveto
          -27 -24 7 13 -20 hvcurveto
          hintmask 01101100
          230 198 10 -21 4 -26 -5 -27 rlinecurve
          -49 124 rmoveto
          -230 -198 -10 21 -3 26 4 27 rlinecurve
          80 13 75 64 80 hhcurveto
          27 24 -7 -13 20 hvcurveto
          endchar
        </CharString>
        <CharString name="died">
          4 -21 313 64 189 -20 hstemhm
          231 70 -25 70 -59 70 hintmask 01100100
          550 329 rmoveto
          27 4 -19 5 -18 hhcurveto
          -17 hlineto
          -10 -11 -1 -10 hhcurveto
          -112 hlineto
          26 156 rlineto
          27 5 -16 6 -19 hhcurveto
          -29 -8 -17 -21 -4 hvcurveto
          -25 -151 rlineto
          -112 hlineto
          -10 -11 1 -10 hhcurveto
          -17 hlineto
          -18 -21 -5 -27 -4 hvcurveto
          -18 -3 8 -16 22 hhcurveto
          10 hlineto
          14 13 1 14 hhcurveto
          hintmask 01001000
          114 hlineto
          hintmask 10010000
          -45 -272 rlineto
          -23 -4 0 -18 34 hhcurveto
          33 4 23 19 3 hvcurveto
          hintmask 01001000
          45 271 rlineto
          114 hlineto
          14 13 -1 14 hhcurveto
          10 hlineto
          21 15 14 20 3 hvcurveto
          endchar
        </CharString>
        <CharString name="dieresis">
          510 90 hstem
          158 callgsubr
          vstem
          -29 callgsubr
          endchar
        </CharString>
</ttFont>
